<?xml version="1.0" encoding="UTF-8"?>
<svg id="Layer_2" data-name="Layer 2" xmlns="http://www.w3.org/2000/svg" viewBox="0 0 395.81 81.34">
  <defs>
    <style>
      .cls-1 {
        fill: #ea801f;
      }
    </style>
  </defs>
  <g id="Layer_2-2" data-name="Layer 2">
    <g>
      <g>
        <path class="cls-1" d="m17.54.41v4.6H5.7v7.29h9.08v4.52H5.7v12.01H0V.42h17.54Z"/>
        <path class="cls-1" d="m27.27.41v28.41h-5.7V.41h5.7Z"/>
        <path class="cls-1" d="m47.54,28.82l-6.27-11.07h-2.69v11.07h-5.7V.41h10.66c2.2,0,4.07.39,5.62,1.16s2.71,1.82,3.48,3.13c.77,1.32,1.16,2.79,1.16,4.42,0,1.87-.54,3.56-1.63,5.07-1.09,1.51-2.7,2.54-4.84,3.11l6.8,11.52h-6.59Zm-8.95-15.34h4.76c1.55,0,2.7-.37,3.46-1.12.76-.75,1.14-1.78,1.14-3.11s-.38-2.31-1.14-3.03-1.91-1.08-3.46-1.08h-4.76v8.34Z"/>
        <path class="cls-1" d="m63.43,28.09c-1.59-.68-2.84-1.65-3.76-2.93s-1.4-2.78-1.42-4.52h6.11c.08,1.17.49,2.09,1.24,2.77.75.68,1.77,1.02,3.07,1.02s2.37-.32,3.13-.96,1.14-1.47,1.14-2.5c0-.84-.26-1.53-.77-2.08-.52-.54-1.16-.97-1.93-1.28s-1.84-.66-3.19-1.04c-1.85-.54-3.34-1.08-4.5-1.61-1.15-.53-2.14-1.33-2.97-2.4-.83-1.07-1.24-2.5-1.24-4.29,0-1.68.42-3.15,1.26-4.4s2.02-2.2,3.54-2.87C64.66.34,66.4,0,68.35,0,71.28,0,73.66.71,75.49,2.14s2.84,3.41,3.03,5.96h-6.27c-.05-.98-.47-1.78-1.24-2.42s-1.8-.96-3.07-.96c-1.11,0-2,.28-2.67.85-.66.57-1,1.4-1,2.48,0,.76.25,1.39.75,1.89s1.13.91,1.87,1.22c.75.31,1.8.67,3.15,1.08,1.85.54,3.35,1.09,4.52,1.63,1.17.54,2.17,1.36,3.01,2.44.84,1.09,1.26,2.51,1.26,4.27,0,1.52-.39,2.93-1.18,4.23-.79,1.3-1.94,2.34-3.46,3.11s-3.32,1.16-5.41,1.16c-1.98,0-3.76-.34-5.35-1.02v.03Z"/>
        <path class="cls-1" d="m103.1.41v4.6h-7.57v23.81h-5.7V5.01h-7.57V.41h20.84Z"/>
        <path class="cls-1" d="m134.48.41v4.6h-11.84v7.29h9.08v4.52h-9.08v12.01h-5.7V.42h17.54Z"/>
        <path class="cls-1" d="m144.21,24.3h9.36v4.52h-15.06V.41h5.7v23.89Z"/>
        <path class="cls-1" d="m163.05,27.23c-2.23-1.25-3.99-2.98-5.29-5.19-1.3-2.21-1.95-4.71-1.95-7.51s.65-5.26,1.95-7.47c1.3-2.21,3.07-3.94,5.29-5.19s4.67-1.87,7.33-1.87,5.14.62,7.35,1.87c2.21,1.25,3.96,2.98,5.25,5.19s1.93,4.7,1.93,7.47-.64,5.3-1.93,7.51c-1.29,2.21-3.05,3.94-5.27,5.19-2.23,1.25-4.67,1.87-7.33,1.87s-5.1-.62-7.33-1.87h0Zm11.84-4.38c1.3-.77,2.32-1.88,3.05-3.32s1.1-3.11,1.1-5.01-.37-3.56-1.1-4.99c-.73-1.42-1.75-2.52-3.05-3.28s-2.81-1.14-4.52-1.14-3.22.38-4.54,1.14-2.34,1.85-3.07,3.28c-.73,1.42-1.1,3.09-1.1,4.99s.37,3.57,1.1,5.01c.73,1.44,1.76,2.54,3.07,3.32,1.32.77,2.83,1.16,4.54,1.16s3.22-.39,4.52-1.16Z"/>
        <path class="cls-1" d="m195,27.23c-2.23-1.25-3.99-2.98-5.29-5.19s-1.95-4.71-1.95-7.51.65-5.26,1.95-7.47,3.07-3.94,5.29-5.19,4.67-1.87,7.33-1.87,5.14.62,7.35,1.87c2.21,1.25,3.96,2.98,5.25,5.19s1.93,4.7,1.93,7.47-.64,5.3-1.93,7.51c-1.29,2.21-3.05,3.94-5.27,5.19-2.23,1.25-4.67,1.87-7.33,1.87s-5.1-.62-7.33-1.87h0Zm11.84-4.38c1.3-.77,2.32-1.88,3.05-3.32s1.1-3.11,1.1-5.01-.37-3.56-1.1-4.99c-.73-1.42-1.75-2.52-3.05-3.28s-2.81-1.14-4.52-1.14-3.22.38-4.54,1.14-2.34,1.85-3.07,3.28c-.73,1.42-1.1,3.09-1.1,4.99s.37,3.57,1.1,5.01c.73,1.44,1.76,2.54,3.07,3.32,1.32.77,2.83,1.16,4.54,1.16s3.22-.39,4.52-1.16Z"/>
        <path class="cls-1" d="m235.74,28.82l-6.27-11.07h-2.69v11.07h-5.7V.41h10.66c2.2,0,4.07.39,5.62,1.16s2.71,1.82,3.48,3.13c.77,1.32,1.16,2.79,1.16,4.42,0,1.87-.54,3.56-1.63,5.07-1.09,1.51-2.7,2.54-4.84,3.11l6.8,11.52h-6.59,0Zm-8.95-15.34h4.76c1.55,0,2.7-.37,3.46-1.12s1.14-1.78,1.14-3.11-.38-2.31-1.14-3.03-1.91-1.08-3.46-1.08h-4.76v8.34Z"/>
        <path class="cls-1" d="m24.78,38.81v3.49H6.23v15.72h15.66v3.49H6.23v19.4H2.01v-42.11h22.77Z"/>
        <path class="cls-1" d="m40.02,78.6c-3.17-1.83-5.67-4.38-7.5-7.65-1.83-3.27-2.74-6.98-2.74-11.11s.91-7.84,2.74-11.11,4.33-5.82,7.5-7.65c3.17-1.83,6.71-2.74,10.6-2.74s7.49.91,10.66,2.74,5.66,4.38,7.47,7.65c1.81,3.27,2.71,6.98,2.71,11.11s-.9,7.84-2.71,11.11-4.3,5.82-7.47,7.65c-3.17,1.83-6.73,2.74-10.66,2.74s-7.43-.91-10.6-2.74Zm19.04-3.1c2.49-1.45,4.46-3.52,5.9-6.23s2.17-5.85,2.17-9.43-.72-6.71-2.17-9.4c-1.45-2.69-3.41-4.76-5.9-6.2-2.49-1.45-5.3-2.17-8.43-2.17s-5.94.72-8.43,2.17-4.46,3.51-5.9,6.2c-1.45,2.69-2.17,5.82-2.17,9.4s.72,6.72,2.17,9.43,3.41,4.79,5.9,6.23c2.49,1.45,5.3,2.17,8.43,2.17s5.94-.72,8.43-2.17Z"/>
        <path class="cls-1" d="m83.21,38.81v26.51c0,4.18.99,7.27,2.98,9.28,1.99,2.01,4.71,3.01,8.16,3.01s6.15-.99,8.1-2.98c1.95-1.99,2.92-5.09,2.92-9.31v-26.51h4.22v26.44c0,5.34-1.42,9.36-4.25,12.05s-6.52,4.04-11.05,4.04-8.22-1.35-11.05-4.04c-2.83-2.69-4.25-6.71-4.25-12.05v-26.44h4.22,0Z"/>
        <path class="cls-1" d="m150.74,80.92h-4.22l-23.31-35.42v35.42h-4.22v-42.11h4.22l23.31,35.36v-35.36h4.22v42.11Z"/>
        <path class="cls-1" d="m184.77,41.34c3.33,1.69,5.88,4.12,7.65,7.29s2.65,6.95,2.65,11.33-.88,8.08-2.65,11.23-4.32,5.56-7.65,7.23-7.33,2.5-11.99,2.5h-12.47v-42.11h12.47c4.66,0,8.65.84,11.99,2.53h0Zm1.42,31.47c3.07-3.07,4.61-7.36,4.61-12.86s-1.54-9.87-4.61-12.98-7.54-4.67-13.4-4.67h-8.25v35.12h8.25c5.86,0,10.33-1.54,13.4-4.61Z"/>
        <path class="cls-1" d="m227.24,70.92h-19.16l-3.67,10h-4.46l15.36-41.56h4.76l15.3,41.56h-4.46l-3.67-10Zm-1.27-3.49l-8.31-22.77-8.31,22.77h16.63-.01Z"/>
        <path class="cls-1" d="m266.76,38.81v3.49h-11.69v38.61h-4.22v-38.61h-11.75v-3.49h27.66Z"/>
        <path class="cls-1" d="m277.66,38.81v42.11h-4.22v-42.11h4.22Z"/>
        <path class="cls-1" d="m295.55,78.6c-3.17-1.83-5.67-4.38-7.5-7.65-1.83-3.27-2.74-6.98-2.74-11.11s.91-7.84,2.74-11.11,4.33-5.82,7.5-7.65c3.17-1.83,6.71-2.74,10.6-2.74s7.49.91,10.66,2.74,5.66,4.38,7.47,7.65c1.81,3.27,2.71,6.98,2.71,11.11s-.9,7.84-2.71,11.11-4.3,5.82-7.47,7.65c-3.17,1.83-6.73,2.74-10.66,2.74s-7.43-.91-10.6-2.74Zm19.04-3.1c2.49-1.45,4.46-3.52,5.9-6.23s2.17-5.85,2.17-9.43-.72-6.71-2.17-9.4c-1.45-2.69-3.41-4.76-5.9-6.2-2.49-1.45-5.3-2.17-8.43-2.17s-5.94.72-8.43,2.17-4.46,3.51-5.9,6.2c-1.45,2.69-2.17,5.82-2.17,9.4s.72,6.72,2.17,9.43,3.41,4.79,5.9,6.23c2.49,1.45,5.3,2.17,8.43,2.17s5.94-.72,8.43-2.17Z"/>
        <path class="cls-1" d="m366.45,80.92h-4.22l-23.31-35.42v35.42h-4.22v-42.11h4.22l23.31,35.36v-35.36h4.22v42.11Z"/>
      </g>
      <path class="cls-1" d="m392.16,25.97c1.15.69,2.05,1.63,2.69,2.81s.96,2.49.96,3.93-.32,2.75-.96,3.93-1.53,2.12-2.69,2.81c-1.15.69-2.45,1.04-3.89,1.04s-2.73-.35-3.89-1.04c-1.15-.69-2.05-1.63-2.69-2.81s-.96-2.49-.96-3.93.32-2.75.96-3.93,1.53-2.12,2.69-2.81c1.15-.69,2.45-1.04,3.89-1.04s2.73.35,3.89,1.04Zm-.41,12.82c1.02-.61,1.81-1.45,2.38-2.52s.85-2.26.85-3.56-.28-2.49-.85-3.56c-.57-1.07-1.36-1.91-2.38-2.52s-2.18-.92-3.48-.92-2.46.31-3.48.92-1.81,1.45-2.38,2.52-.85,2.26-.85,3.56.28,2.49.85,3.56c.57,1.07,1.36,1.91,2.38,2.52s2.18.92,3.48.92,2.46-.31,3.48-.92Zm-2.87-5.6l2.81,3.83-.9.04-2.81-3.87h-1.63v3.87h-.81v-8.71h3.38c.84,0,1.5.21,1.97.63s.71,1.01.71,1.77-.24,1.36-.71,1.79c-.47.43-1.13.65-1.97.65h-.04Zm-2.52-.77h2.48c.6,0,1.07-.14,1.42-.41s.53-.69.53-1.26c0-1.09-.65-1.63-1.95-1.63h-2.48v3.3Z"/>
    </g>
  </g>
</svg>