<?xml version="1.0" encoding="UTF-8"?>
<svg id="Layer_2" data-name="Layer 2" xmlns="http://www.w3.org/2000/svg" viewBox="0 0 483.75 400.98">
  <defs>
    <style>
      .cls-1 {
        fill: #f3dfbb;
      }

      .cls-2 {
        fill: #205f6b;
      }

      .cls-3 {
        fill: #fae9c9;
      }

      .cls-4 {
        fill: #fcf8e4;
      }

      .cls-5 {
        fill: #026c82;
      }

      .cls-6 {
        fill: #caa36c;
      }

      .cls-7 {
        fill: #f2f0ef;
      }

      .cls-8 {
        fill: #debe93;
      }

      .cls-9 {
        fill: #db6f04;
      }

      .cls-10 {
        fill: #106677;
      }

      .cls-11 {
        fill: #ede3d5;
      }

      .cls-12 {
        fill: #e6e6e6;
      }

      .cls-13 {
        fill: #e5cba6;
      }

      .cls-14 {
        fill: #ea801f;
      }

      .cls-15 {
        fill: #fcf3d7;
      }

      .cls-16 {
        fill: #477987;
      }

      .cls-17 {
        fill: #d0eef4;
      }

      .cls-18 {
        fill: #c37725;
      }

      .cls-19 {
        fill: #b87d38;
      }

      .cls-20 {
        fill: #ac8f64;
      }

      .cls-21 {
        fill: #af824a;
      }

      .cls-22 {
        fill: #82bdc3;
      }
    </style>
  </defs>
  <g id="Layer_3" data-name="Layer 3">
    <g>
      <g>
        <circle class="cls-12" cx="226.88" cy="121.59" r="121.59"/>
        <g>
          <path class="cls-7" d="m210.61,192.18c-.03,2.07.19,4.19-.24,6.17-.14.66-1.95,1.34-3,1.35-8.1.11-16.21.06-24.32.06-.95,0-1.89,0-2.84,0q-6.25.03-6.25-6.3c0-21.27.06-42.53-.07-63.8-.02-2.94.61-4.05,3.77-3.93,6.52.24,13.05.04,19.58.1,1.09,0,2.18.4,3.27.61-2.17,3.68-4.08,7.71-9.63,6.39-.47-.11-1.17.77-1.76,1.18-1.46,0-2.93.02-4.39.03-.22.2-.44.4-.65.61h0c-.21.21-.42.42-.63.63-.2,0-.41.01-.61.02-1.94,1.69-3.13,6.38-2.43,8.77.53,1.84,1.05,3.76,1.09,5.66.13,6.62.25,13.26-.01,19.88-.22,5.46,1.27,11.07-1.14,16.4-.19.42-.09,1.07.07,1.55.89,2.85,5.07,5.96,8.1,5.84,7.38-.29,14.84,1,22.11-1.24Z"/>
          <path class="cls-17" d="m255.88,174.73c.31,0,.87-.09.88-.02.66,2.47,1.75,4.95,1.8,7.45.2,10.11.09,20.22.08,30.33,0,3.7-3.24,5.79-6.58,4.42-1.12-.46-2.4-.68-3.62-.68-9.69-.05-19.38-.02-29.07-.04-3.42,0-4.94-1.52-4.96-4.9-.02-4.63.05-9.27-.04-13.9-.03-1.3-.81-2.62-.72-3.89.11-1.64.87-3.22,1.12-4.86.21-1.39.11-2.83.08-4.24-.08-3.86-.26-7.72-.2-11.57,0-.3,1.53-.83,2.35-.84,5.58-.07,11.17.02,16.74-.09.94-.02,1.86-.77,2.79-1.18.41,0,.83,0,1.24,0,.85.2,1.71.4,2.56.6l1.23.61c.43,0,.87,0,1.3,0,.41,0,.82,0,1.23,0,.91.19,1.81.51,2.72.54,1.52.05,3.13.2,4.53-.23,2.17-.66,3.92.12,4.56,2.51-4.77,0-9.54,0-14.31,0-1.69,0-3.39,0-5.08,0h-19.3v37.04c-.04.1-.14.22-.11.28.09.16.23.3.35.45v.02c.76.29,1.52.84,2.28.85,10.2.07,20.39.07,30.59.09.28,0,.56,0,.84,0,.62-.14,1.24-.28,1.86-.42.4.01.81.02,1.21.04.39-.24.78-.48,1.17-.73l.24.08c.05-.29.1-.57.14-.86,0-9.72-.02-19.44-.02-29.16,0-1.45-.02-2.91-.02-4.36.04-1.11.09-2.22.13-3.33Z"/>
          <path class="cls-7" d="m244.1,171.92c-.41,0-.82,0-1.23,0,2.29-2.93,2.17-4.01-.66-6.28-.42-.92-1.18-1.83-1.2-2.76-.11-5.56-.08-11.13-.04-16.69,0-.91.02-2,.49-2.71,1.78-2.72-.59-3.98-1.78-5.67-.39-.87-.78-1.73-1.18-2.6-.03-.39-.06-.77-.09-1.16-.74-1.94-.82-4.85-4.23-2.76-.26.16-.77-.13-1.17-.13-2.96-.05-5.93-.28-8.86-.05-2.1.16-4.14,1.25-6.24,1.36-1.78.1-3.6-.61-5.4-.96-.42-1.86-.85-3.71-1.27-5.57.26-.1.51-.2.77-.29.21.03.39.12.54.26.96.6,1.88,1.64,2.88,1.73,2.68.24,5.4.08,8.11.08,6.62,0,13.25.2,19.86-.09,3.36-.15,3.99,1.02,3.93,4.09-.19,9.98-.03,19.96-.11,29.95-.01,1.47-.7,2.93-.94,4.41-.13.77.04,1.59.07,2.39.68-.09,1.36-.18,2.04-.28.26,0,.52.02.77.03,0,.4.02.79.03,1.19-.68.42-1.34.91-2.06,1.26-.98.47-2.02.84-3.03,1.25Z"/>
          <path class="cls-17" d="m309.21,70.82c1.89-.25,2.57.51,2.56,2.47-.05,30.81-.04,61.63-.02,92.44,0,1.86-.3,3.04-2.47,1.8-.15-.44-.29-.89-.44-1.33-.03-10.63-.09-21.25-.08-31.88.01-20.94.06-41.87.09-62.81l.36-.7Z"/>
          <path class="cls-11" d="m176.47,25.94c.02-.74-.22-1.64.11-2.18,1.06-1.7,2.05-4.01,3.62-4.61,1.03-.39,3.42,1.49,4.5,2.89,1.45,1.9,2.1,4.39,3.34,6.48.8,1.35,1.93,2.55,3.8,1.06,1.55-1.24,2.95-1.12,4.2.69.69,1,1.7,2.07,2.79,2.44,3.14,1.07,3.35,2.99,2.29,5.67-1.13,2.86-2.26,5.74-3.11,8.69-.67,2.33,1.04,3.99,2.85,4.52.85.24,2.31-1.63,3.49-2.55.46-.36.88-.82,1.38-1.1,5.63-3.16,4.25-6.6-.09-10.03-.32-.25-.7-.43-1.26-.77.91-1.82.37-4.66,3.8-4.18.59,1.05,1.19,2.1,1.78,3.16,1.02,3.96,4.25,2.97,6.98,3.12-1.04,2.53-2.08,5.05-3.13,7.58-.47-.26-1.3-.81-1.36-.74-1.51,1.87-2.93,3.8-4.38,5.73-2.07,1.73-4.14,3.45-6.22,5.18-.64.23-1.29.46-1.93.69-1.08-1.94-2.16-3.87-3.24-5.81-.29-1.19-.3-2.58-.94-3.54-1.24-1.87-1.3-3.37.28-5.03.94-.98,1.64-2.18,2.64-3.55-.81-.2-1.45-.36-2.09-.53.45-.89.89-1.79,1.34-2.68l-.77.33c-1.01-1.72-2.01-3.45-3.02-5.17-.22-.36-.43-.71-.65-1.07-.19.29-.38.58-.57.88-.2.06-.4.11-.61.16-2.39.51-4.78,1.02-7.8,1.67-.14-1.23-.34-3.1-.54-4.96.12-1.17.23-2.35.31-3.11-2.08-.8-3.82-1.48-5.72-2.21-.63.95-1.3,1.97-1.98,2.98,0,0-.12-.09-.12-.09Z"/>
          <path class="cls-2" d="m308.86,71.52c-.03,20.94-.08,41.87-.09,62.81,0,10.63.05,21.25.08,31.88-.05.46-.1.92-.15,1.39-.23.05-.47.09-.7.14-1.36-.07-2.71-.2-4.07-.2-16.49-.01-32.97,0-49.46,0-1.14,0-2.29.16-3.43.24-.4-.03-.79-.05-1.19-.08-.45-.02-.9-.04-1.36-.07-.04-1.05-.12-2.1-.12-3.15-.04-12.63-.07-25.26-.11-37.9-.34-.24-.68-.48-1.01-.72,0,0,.03-.13.03-.13-4.21-.03-8.43-.05-12.64-.08-4.64,0-9.27,0-13.91,0-1.47,0-2.94.01-4.42.02-1.25.08-2.5.15-3.75.23-.15-.14-.33-.23-.54-.26.03-.58.07-1.16.1-1.73.75-1.91,1.51-3.82,2.27-5.73q.09,5.73,5.76,5.74c5.88,0,11.76,0,17.64,0,2.99-.64,5.99-1.28,9.15-1.96.82,1.3,1.84,2.9,2.86,4.5,0,4.42,0,8.85,0,13.27v1.26c0,7.2-.05,14.41.05,21.61.01,1.02.79,2.02,1.22,3.03l1.25.02c.93.42,1.85,1.19,2.78,1.2,16.01.07,32.01.06,48.02.05,3.8,0,4.82-1.06,4.82-4.8,0-28.65.02-57.29-.05-85.94,0-1.77-.8-3.54-1.22-5.31.63,0,1.26,0,1.89-.01,0,0,.1-.06.1-.06.07.25.13.49.2.74Z"/>
          <path class="cls-11" d="m149.94,113.81c1.76-6.47-4.49-6.09-7.69-8.57,1.86-2.19,1.85-4.04.44-6.54-1.08-1.92-.7-4.66-.96-7.03,2.75.89,4.83-.52,5.65-3.83.64-.43,1.28-.86,1.91-1.29.48.44.88,1.1,1.44,1.28,3.45,1.09,6.94,2.08,9.88,2.94.98,2.46,1.8,4.51,2.62,6.57-.79-.49-1.54-1.07-2.38-1.46-.95-.44-1.98-.7-3.42-1.2.65,1.94.99,2.95,1.33,3.97-.6,0-1.2,0-1.79-.01-.67-1.05-1.34-2.09-2.01-3.14l-.61-.64s-.01,0-.01,0c-1.3-1.45-2.32-1.17-4.4,1.23-.42-.03-.84-.06-1.25-.09-2.18-1.12-3.12-.31-3.1,1.99-1.92,2.37.81,3.78,1.17,5.68.07.51-.04,1.24.25,1.49,1.63,1.38,3.35,2.65,5.06,3.94.03.02.28-.26.42-.4l.65.17c1.01.74,2.01,1.49,3.6,2.66-1.68.44-2.75.63-3.73,1.02-.66.26-1.2.81-1.8,1.22-.42,0-.84.01-1.26.02Z"/>
          <path class="cls-15" d="m210.61,192.18c-7.27,2.24-14.73.95-22.11,1.24-3.03.12-7.21-2.99-8.1-5.84-.15-.48-.26-1.13-.07-1.55,2.41-5.33.92-10.93,1.14-16.4.27-6.62.14-13.25.01-19.88-.04-1.9-.56-3.82-1.09-5.66-.69-2.4.49-7.08,2.43-8.77.2.63.4,1.25.61,1.88,0,.62-.02,1.25-.03,1.87-.2.99-.58,1.98-.58,2.97-.04,14.89-.04,29.78,0,44.67,0,.98.4,1.96.61,2.95.21.22.41.45.62.67.99.2,1.98.56,2.98.57,7.01.04,14.02,0,21.03-.01l1.36-.5c.8-.04,1.61-.07,2.41-.11-.41.64-.82,1.27-1.23,1.91Z"/>
          <path class="cls-11" d="m215.49,61.76c.74,1.09,1.47,2.18,2.21,3.28,1.42-1.42,2.92-2.76,4.2-4.3.33-.4-.04-1.38-.09-2.24-1.18-.22-2.27-.43-3.31-.63.42-5.68,5.17-7.66,8.66-10.63.54-.46,1.6-.28,2.41-.44,1.9-.37,3.84-.64,5.69-1.17,2.66-.77,4.72-.49,5.68,2.49-2.84-.12-5.62-.13-6.94,3.13-.84-.38-1.67-.77-2.51-1.15-.4.19-.79.39-1.19.58-4.76-.2-8.44,3.41-6.83,7.27.97,2.32.72,4.02-.14,6-.21.21-.42.41-.63.62-.93,1.09-1.87,2.17-2.8,3.26-.87.02-1.75.04-2.62.06-1.34-.02-2.68.05-4-.09-.69-.07-1.33-.5-2-.76,1.03-1.49,2.06-2.98,3.09-4.47.38-.27.76-.53,1.14-.8Z"/>
          <path class="cls-1" d="m183.97,28.37c.21,1.87.41,3.73.55,4.97,3.02-.65,5.41-1.16,7.8-1.67-.24,2.3-1.85,2.62-3.72,2.56-.24.4-.48.81-.72,1.21,0,.42,0,.84.01,1.26-1.03.43-2.07.85-3.1,1.28-.02.23-.04.45-.06.68.01.16.01.31,0,.47.61,2.19,1.32,4.37,1.81,6.59.79,3.56-3.37,2.84-4.38,4.89-1.04,0-2.09-.02-3.13-.03.65-.63,1.3-1.26,1.96-1.9,1.65-.78,3.75-1.27,2.51-3.9-.53-1.2-.92-2.48-1.63-3.57-.52-.8-1.44-1.34-2.18-2-.64-.22-1.28-.45-1.92-.67-.86-.46-1.72-.93-2.58-1.39,1.67-1.68,1.82-3.2-.55-4.33-2.8-1.33-.22-3.33-.67-4.95.43.02.87.03,1.3.05.6,1.99,3.13,3.31,2.05,5.89.7.25,1.72.91,2.05.67.94-.71,1.6-1.79,2.37-2.72.21-.53.34-1.12.66-1.58.45-.65,1.04-1.2,1.58-1.79Z"/>
          <path class="cls-13" d="m223.32,63.94c.86-1.98,1.1-3.69.14-6-1.61-3.85,2.07-7.46,6.83-7.27-1.31,1.23-2.62,2.47-3.93,3.7-2.47,1.61-.76,2.61.61,4.13.61-1.34,1.06-2.33,1.52-3.33.76-.53,1.53-1.06,2.29-1.59,2.18.75,2.58-.96,3.22-2.34,1.31-3.26,4.1-3.25,6.94-3.13,0,.2.02.39.03.59-.24,2.11-.47,4.23-.71,6.34-.38-.02-.77-.03-1.15-.05-.8-.42-1.61-.84-2.22-1.16-1.24.92-2.18,2.1-3.33,2.36-2,.45-2.17,1.6-1.99,3.18-.76-.29-1.53-.57-2.43-.91-.72,1.87-1.4,3.62-2.07,5.36-1.24.03-2.49.06-3.73.1Z"/>
          <path class="cls-11" d="m227.05,63.84c.67-1.74,1.35-3.49,2.07-5.36.9.34,1.67.62,2.43.91,3.42,1.85,5.26-.78,7.39-2.59.43-.58.86-1.16,1.3-1.74.24-2.12.47-4.23.71-6.34.75.27,1.51.55,1.58.58.21,1.71.52,2.88.43,4.02-.09,1.08-.44,2.21-.97,3.16-.9,1.61-2.04,3.1-3.48,5.24-.37.22-1.49.88-2.62,1.54.47,2.89-.55,4.14-3.65,3.87-1.28-.11-2.64.74-3.97,1.15-.16-.63-.32-1.26-.48-1.89.03-.4.05-.81.08-1.21.06-.08.18-.17.17-.23-.05-.16-.15-.31-.24-.47-.25-.21-.5-.42-.76-.63Z"/>
          <path class="cls-17" d="m256.09,69.6c3.39-.44,6.77-.88,10.16-1.32,10.53,0,21.06,0,31.59,0,3.07,0,6.14-.11,9.2.06.56.03,1.05,1.19,1.57,1.83-17.48-.03-34.95-.06-52.43-.09-.03-.17-.06-.33-.09-.49Z"/>
          <path class="cls-11" d="m179,64.51c2.83,1.73,5.31,1.04,7.86-.81,1.78-1.29,3.27-.15,4.65,1.22.85.84,2.02,1.35,3.05,2,.29-1.13.63-2.25.87-3.39.11-.5.02-1.05.03-1.57.62.42,1.24.85,1.86,1.27.02.43.04.85.06,1.28.17.42.33.84.5,1.26,0,1.05.01,2.11.02,3.16-.39.71-1.05,1.4-1.12,2.14-.17,1.83-.08,3.69-.09,5.54-1.08-1.71-2.16-3.42-3.23-5.13-.82-1.04-1.63-2.08-2.45-3.12-1.79-.99-3.55-2.2-5.62-.61-.81.61-1.62,1.22-2.44,1.83-2.11-1.11-2.58,1.39-4,1.81,0-.6.02-1.2.03-1.81-.19-.85-.39-1.7-.58-2.55-.01-.64-.03-1.27-.04-1.91.21-.21.43-.41.64-.62Z"/>
          <path class="cls-1" d="m185.98,115.68c-1.06-.21-2.12-.42-3.18-.62-.85-.01-1.69-.03-2.54-.04,1.08-.77,2.17-1.54,3.25-2.32,1.46-.03,2.91-.05,4.37-.08.43-.22.86-.44,1.29-.67.88-.32,1.74-.81,2.64-.92,3.09-.38,6.2-.63,9.3-.93,1.52,1.02,3.04,2.05,4.56,3.07,2.02,3.17,3.08,6.34-.02,9.5-.44-.42-.89-.84-1.33-1.25,0-1.7,0-3.39-.01-5.09-.42-.42-.83-.85-1.25-1.27,0,0,0,0,0,0-2.28-.79-4.62-2.37-6.81-2.18-3.48.31-6.85,1.81-10.26,2.81Z"/>
          <path class="cls-11" d="m165.81,73.3c-4.57,0-7.41-5.8-5.11-10.41.86-1.73,1.64-3.49,2.62-5.58,1.31-.43,3.1-1.23,4.96-1.58,2.31-.43,4.18.25,4.42,3.05-.21.41-.42.82-.63,1.23-1.52-.29-3.03-.59-4.55-.88-.37-.05-.75-.09-1.12-.14-2.24.08-2.39.36-1.26,2.34-.17.67-.12,1.63-.56,1.96-3.03,2.3-1.16,4.56-.07,6.84.43,1.05.87,2.11,1.3,3.16Z"/>
          <path class="cls-13" d="m184.73,39.12c.02-.16.02-.31,0-.47.02-.23.04-.45.06-.68,1.03-.43,2.07-.85,3.1-1.28.4.48.81.97,1.21,1.45.84,1.64,1.71,1.62,2.59.03,2.16-.49,1.67,1.1,1.87,2.27.08.48.75,1.28,1,1.23.54-.12,1.06-.63,1.45-1.09.3-.36.4-.89.59-1.35.64.16,1.28.32,2.09.53-1,1.37-1.7,2.57-2.64,3.55-1.58,1.66-1.53,3.16-.28,5.03.64.96.65,2.35.94,3.54-.87.17-1.75.35-2.62.52-.79-1.88-1.58-3.76-2.37-5.65,0-.19,0-.39-.02-.58-.72-3.93-5.33-4.01-6.95-7.05Z"/>
          <path class="cls-17" d="m249.84,167.7c.4.03.79.05,1.19.08,1.13.13,2.26.36,3.39.36,17.22.04,34.44.04,51.66.06.41.29.83.59,1.7,1.21-19.82,0-39.2,0-58.58,0,0-.4-.02-.79-.03-1.19.22-.17.45-.34.67-.52Z"/>
          <path class="cls-11" d="m185.98,115.68c3.41-1,6.78-2.5,10.26-2.81,2.19-.2,4.53,1.39,6.81,2.18-1.26,0-2.55.16-3.78-.01-2.62-.38-4.36.73-5.63,2.89,4.04,2.57,4.15,3.44.19,6.16-2.56-2.74-5.2-5.57-7.84-8.4Z"/>
          <path class="cls-17" d="m228.28,68.27c1.33-.41,2.69-1.26,3.97-1.15,3.1.27,4.13-.99,3.65-3.87,1.54,0,3.08,0,5,0-.68,1.54-1.19,2.7-1.81,4.1,2.9.35,5.53.66,8.16.98.06.44.11.88.16,1.33-.05.13-.07.26-.06.4-6.76.07-13.52.14-20.27.21-.02-.37-.03-.75-.05-1.13.02-.26.05-.52.07-.78.18-.03.35-.08.51-.16.23.03.45.05.68.08Z"/>
          <path class="cls-1" d="m163.24,97.35c-.82-2.06-1.64-4.11-2.62-6.57-2.94-.86-6.43-1.85-9.88-2.94-.56-.18-.96-.84-1.44-1.27,0-.2.05-.4.11-.59,1.02,0,2.04,0,3.07,0,.83.23,1.67.46,2.5.69,2.32.41,4.64.82,6.97,1.23,1.27.21,2.53.41,3.8.62,1.27.41,2.54.82,3.81,1.23-1.43,0-2.85,0-4.39,0v4.53c.61.42,1.23.84,1.84,1.27.63.19,1.27.38,1.9.58-1.26.84-2.53,1.67-3.79,2.51-.63-.42-1.25-.84-1.88-1.27Z"/>
          <path class="cls-11" d="m179.02,117.6c-1.02.42-2.02,1.14-3.07,1.2-3.74.24-5.09,1.34-5.86,4.89-.15.68-.92,1.77-1.38,1.76-3.15-.07-4.35,2.49-6.25,4.17-1,.88-2.44,1.26-3.68,1.86.32-.92.63-1.84.95-2.76l.15.06c.44-.45.89-.89,1.33-1.34l.16-.06.13.12c.36-.35.72-.71,1.08-1.06.41-.68,1.25-1.42,1.17-2.04-.37-3.05.87-4.47,3.9-4.53.23,0,.44-.62.66-.95,1.67-.65,3.34-1.3,5.02-1.95,1.89.2,3.78.4,5.66.6l.02.02Z"/>
          <path class="cls-1" d="m211.84,190.26c-.8.04-1.61.07-2.42.11,0,0-.07-.09-.07-.09.04-.18.08-.36.1-.54.16-.04.32-.1.48-.16.23-.96.63-1.91.65-2.87.06-5-.02-10.01.06-15.01.02-1.18.44-2.35.68-3.52,6.36,0,12.72.04,19.08-.03,2.26-.02,4.51-.29,6.77-.44.43-.01.87-.03,1.3-.04-.01.58-.02,1.17-.04,1.75h0c-7.41,0-14.82-.05-22.23.05-1.02.01-2.02.79-3.03,1.21,0,0,0,0,0,0-.42.9-1.19,1.8-1.21,2.71-.11,5.41-.05,10.83-.05,16.24-.01.2-.03.41-.05.61Z"/>
          <path class="cls-11" d="m210.61,32.2c.92-1.31,1.74-2.72,2.8-3.91.85-.94,1.99-1.62,3.01-2.4,1.74-1.35,2.82-.17,3.95,1.01,1.29,1.34,2.62,2.64,3.95,3.94,1.48,1.45,3.76,2.95,2.59,5.17-1.05,1.97-3.16,3.43-5,4.88-.24.19-1.61-1.06-2.46-1.64,2.73.07,4.27-1.68,4.91-3.91.26-.92-.73-2.48-1.56-3.36-1.56-1.62-3.42-2.96-5.64-4.81-.28.98-.57,2.02-.87,3.06-.2.06-.4.12-.61.17-1.69.6-3.38,1.21-5.07,1.81Z"/>
          <path class="cls-1" d="m210.58,52.5c-.46,2.96-.4,5.75,2.54,7.57-1.06.4-2.12.8-3.18,1.21-.38-.03-.75-.07-1.13-.1-.82-.26-1.65-.52-2.47-.77-.03.93-.06,1.86-.1,2.78-3.9.19-4.47.77-4.48,4.58,0,1.03-.02,2.06-.03,3.09-.44-1.26-.87-2.51-1.31-3.77-.19-1.5-.39-3.01-.58-4.51,1.49-1.49,2.98-2.98,4.47-4.47.22.03.43.06.65.1,1.26-.26,3.79.86,2.44-2.24.64-.95,1.28-1.91,1.91-2.86.42-.2.84-.4,1.27-.6Z"/>
          <path class="cls-11" d="m152.47,85.97c-1.02,0-2.04,0-3.07,0-.04-1.47-.08-2.94-.11-4.4-.2-.42-.41-.85-.61-1.27-.02-.41-.04-.81-.06-1.22-.79-1.47-1.6-2-2.51-.09-.04.19-.09.37-.15.55l-6.72.18c-.23-.02-.45-.04-.68-.06,2.05-.84,4.1-1.69,6.16-2.52.37-.15.77-.22,1.29-.37.06-1.11-.07-2.19.23-3.14.19-.6.95-1.35,1.53-1.42.64-.08,2,.63,1.97.81-.83,4.71,4.25,8.16,2.74,12.96Z"/>
          <path class="cls-13" d="m168.32,118.93c-.22.33-.44.95-.66.95-3.03.06-4.26,1.48-3.9,4.53.08.62-.76,1.36-1.17,2.04-.33.01-.66.03-.99.04,0-2.5,1.95-5.71-2.44-6.61-.17-.04-.31-.51-.36-.8-.31-1.71-.72-3.43-2.92-3.35-2.09.07-4.7-1.13-5.77,2.1-.12.36-1.29.37-1.97.54-.02-1.09-.04-2.18-.05-3.27.62-.43,1.23-.86,1.85-1.28.42,0,.84-.01,1.26-.02,2.31.01,4.62.02,6.93.04.8,1.72,1.6,3.44,2.38,5.14,1.89-.42,3.89-.86,5.88-1.3-.06.54-.11,1.08-.17,1.64.88-.15,1.49-.26,2.1-.37Z"/>
          <path class="cls-1" d="m216.29,30.22c.29-1.04.59-2.08.87-3.06,2.22,1.86,4.08,3.19,5.64,4.81.84.87,1.83,2.44,1.56,3.36-.64,2.23-2.18,3.98-4.91,3.91-.84,0-1.67,0-2.51,0-2.73-.14-5.96.84-6.98-3.12.6,0,1.19-.02,1.79-.03,1.35,1.31,2.65,1.79,4.2.14.34-.37,1.37-.09,2.09-.11,1.65,1.65,2.56,1.36,4.51-1.6-.64-.17-1.21-.31-1.78-.46-1.03-1.81-.69-5.23-4.47-3.83Z"/>
          <path class="cls-15" d="m204.31,121.41c.44.42.89.84,1.33,1.25.01.22.02.44.04.65-1.33,2.72-2.66,5.44-3.98,8.16-.59.14-1.54.09-1.72.43-1.32,2.67-3.72,2.09-5.92,2.12-1.65.02-3.3,0-4.94,0,.59-.42,1.29-1.29,1.76-1.18,5.56,1.32,7.46-2.71,9.63-6.39.85-1.31,1.66-2.63,2.56-3.91.32-.45.83-.76,1.25-1.13Z"/>
          <path class="cls-16" d="m256.18,70.09c17.48.03,34.95.06,52.43.09-.01.22-.03.44-.04.65-.63,0-1.26,0-1.89,0-15.83,0-31.65.02-47.48-.05-2.73-.01-4.38,1-4.91,3.7-.46.35-.92.71-1.39,1.06-.39.12-.78.23-1.17.35-.64-.22-1.28-.44-1.92-.66-.17-.55-.35-1.11-.52-1.66.18-.49.37-.98.55-1.46l-.06-.27c1.23.23,2.46.47,3.69.7l2.72-2.45Z"/>
          <path class="cls-1" d="m138.56,79.66c.23.02.45.04.68.06-.02.4-.04.79-.05,1.19,0,.43-.02.87-.03,1.3.45.4.9.8,1.36,1.21.19.23.39.45.58.68.8,1.49,1.61,2.98,2.41,4.47,1.08-.26,2.15-.52,3.23-.78.21.02.43.04.64.07-.83,3.31-2.9,4.71-5.65,3.83-.36-.61-1.15-1.35-1.01-1.81.89-2.92-1.68-3.56-3-5.1-.94-1.1-1.41-2.6-2.09-3.93.98-.39,1.95-.78,2.93-1.18Z"/>
          <path class="cls-7" d="m297.84,68.29c-10.53,0-21.06,0-31.59,0,.81-.42,1.62-1.19,2.44-1.19,8.9-.09,17.81-.09,26.71,0,.82,0,1.63.78,2.44,1.2Z"/>
          <path class="cls-8" d="m194.08,52.39c.87-.17,1.75-.35,2.62-.52,1.08,1.94,2.16,3.87,3.24,5.8-.74.61-1.48,1.23-2.21,1.84-1.15-2.59-2.96-3.71-5.77-2.54-.09.04-.2.02-.31.03-.21-.03-.42-.05-.63-.08-.22-.86-.45-1.71-.67-2.57.64-.63,1.28-1.26,1.92-1.89.6-.02,1.21-.05,1.81-.07Z"/>
          <path class="cls-22" d="m306.08,168.2c-17.22-.01-34.44-.02-51.66-.06-1.13,0-2.26-.24-3.39-.36,1.14-.08,2.29-.24,3.43-.24,16.49-.02,32.97-.02,49.46,0,1.36,0,2.71.13,4.07.2-.64.16-1.28.31-1.92.47Z"/>
          <path class="cls-11" d="m184.73,39.12c1.62,3.04,6.23,3.12,6.95,7.05-1.85.18-3.39.37-4.12,2.74-.79,2.58-3.45,1.5-5.4,1.68,1.01-2.04,5.16-1.32,4.38-4.89-.49-2.22-1.2-4.39-1.81-6.59Z"/>
          <path class="cls-11" d="m148.09,115.09c.02,1.09.04,2.18.05,3.27-.23,1.21-.45,2.42-.68,3.63-.41.87-.81,1.74-1.22,2.61-.46.4-.93.8-1.39,1.19-.62.43-1.24.85-1.85,1.28.22-1.88-.02-3.99.76-5.6,1.1-2.28.62-5.84,4.33-6.39Z"/>
          <path class="cls-11" d="m247.41,69.65c-.06-.44-.11-.88-.17-1.33-.38-.85-.71-1.72-1.14-2.53-.33-.62-.8-1.16-1.2-1.74.72-.26,1.85-.96,2.1-.72,2.36,2.25,6.7-.58,8.42,3.38.24.56,1.8.55,2.74.8-.01.27-.02.54-.03.81-1.26,0-2.53,0-3.79,0-.57-1.53-.83-3.58-3.27-1.92-.07.17-.14.34-.2.52-.35.46-.7.92-1.05,1.38-.08.4-.16.81-.24,1.21-.72.05-1.44.09-2.16.14Z"/>
          <path class="cls-11" d="m213.16,170.69c1.01-.42,2.02-1.2,3.03-1.21,7.41-.1,14.82-.05,22.23-.05-.21.43-.43.86-.64,1.28-.41,0-.83,0-1.24,0-7.79,0-15.59-.01-23.38-.02Z"/>
          <path class="cls-13" d="m165.81,73.3c-.43-1.05-.87-2.11-1.3-3.16,1.69.25,3.39.49,5.08.74.83-.71,1.66-1.42,2.49-2.13.41.69.83,1.38,1.24,2.08.24.37.48.74.73,1.12.82.07,1.64.14,2.46.21-1.07.62-2.14,1.23-3.21,1.85-.64,0-1.28,0-1.91,0-1.05-.23-2.1-.46-3.15-.68-.81,0-1.61,0-2.42,0Z"/>
          <path class="cls-11" d="m211.89,189.65c0-5.41-.06-10.83.05-16.24.02-.91.79-1.81,1.21-2.71,0,4.08-.04,8.16,0,12.23.02,1.96,1.77,3.95-.1,5.87-.33.34-.78.57-1.17.85Z"/>
          <path class="cls-11" d="m194.08,52.39c-.6.02-1.21.05-1.81.07-.64.63-1.28,1.26-1.92,1.89.22.86.45,1.71.67,2.57-.99,0-1.98,0-3.01,0,1.36-3.73,2.53-6.95,3.7-10.18.79,1.88,1.58,3.76,2.37,5.65Z"/>
          <path class="cls-3" d="m180.99,48.67c-.65.63-1.3,1.26-1.96,1.9-5.59.08-6.03-.18-6.29-3.83.61-.02,1.23-.04,1.84-.06.84.08,1.68.17,2.52.25,1.03.19,2.07.38,3.1.57.26.39.53.78.79,1.18Z"/>
          <path class="cls-8" d="m211.76,36.09c-.6,0-1.19.02-1.79.03-.59-1.05-1.19-2.1-1.78-3.15.81-.25,1.62-.51,2.42-.76,1.69-.6,3.38-1.21,5.07-1.81-1.31,1.9-2.62,3.8-3.93,5.7Z"/>
          <path class="cls-1" d="m172.07,60.02c.21-.41.42-.82.63-1.23,2.1,1.91,4.2,3.81,6.3,5.72-.21.21-.43.41-.64.62-1.31-.14-2.62-.28-3.93-.42-.41-.89-.81-1.78-1.22-2.67-.38-.67-.76-1.35-1.14-2.02Z"/>
          <path class="cls-11" d="m169.55,89.74c-1.27-.41-2.54-.82-3.81-1.23,1.84-1.65,2.05-3.75,1.97-6.08-.03-.91.77-1.84,1.19-2.77,0,0,.06.06.06.06.44,1.27.87,2.54,1.31,3.81-.01.19-.05.37-.1.56-1.78.82-1.79,1.67-.06,2.56l.03.03.67,1.2c0,.61-.01,1.23-.02,1.84-.41,0-.83.01-1.24.02Z"/>
          <path class="cls-6" d="m175.19,37.13c.86.46,1.72.93,2.58,1.39-.36.57-1.16,1.33-1.01,1.7,1.13,2.79-.7,3.49-2.71,4.13-.21-.24-.41-.49-.62-.73.58-2.16,1.17-4.32,1.75-6.49Z"/>
          <path class="cls-11" d="m155.64,131.49c-3.35,0-6.7.07-10.04-.02-2.22-.06-2.97-1.08-2.6-3.14,1.05.25,2.11.5,3.16.75,1.5.35,3.01.7,4.51,1.06h1.07c1.3.45,2.6.9,3.89,1.35Z"/>
          <path class="cls-1" d="m191.65,57c.1,0,.22,0,.31-.03,2.81-1.16,4.61-.04,5.77,2.55.04.82.07,1.64.11,2.46-.17.42-.34.84-.52,1.27-.62-.42-1.24-.84-1.86-1.27-1.27-1.66-2.54-3.31-3.81-4.97Z"/>
          <path class="cls-13" d="m210.58,52.5c-.42.2-.84.4-1.27.6-.41-.43-.82-.87-1.23-1.3,1.44-1.92,2.87-3.86,4.38-5.73.06-.07.89.48,1.36.74-1.08,1.9-2.16,3.8-3.23,5.7Z"/>
          <path class="cls-1" d="m155.64,131.49c-1.3-.45-2.6-.9-3.89-1.35.05-.55.1-1.1.15-1.65,1.23-.39,2.45-.77,3.69-1.16.57,1.06,1.07,1.99,1.64,3.05,1.01-.66,1.76-1.15,2.52-1.64-.32.92-.63,1.84-.95,2.76-1.05,0-2.1,0-3.15,0Z"/>
          <path class="cls-11" d="m168.23,73.31c1.05.23,2.1.46,3.15.68.42,1.47.85,2.94,1.27,4.41-.42.41-.83.82-1.25,1.24-.18.04-.36.08-.55.09-.64,0-1.27,0-1.91,0,0,0-.06-.06-.06-.06,1.6-2.31.67-4.35-.66-6.36Z"/>
          <path class="cls-11" d="m161.94,87.89c-2.32-.41-4.64-.82-6.97-1.23,1.54-.22,3.1-.69,4.61-.56.83.07,1.57,1.16,2.36,1.79Z"/>
          <path class="cls-8" d="m251.07,66.4c2.44-1.66,2.7.39,3.27,1.92.02.4.04.8.06,1.2-.31.25-.62.51-.93.76-.37-.04-.75-.08-1.12-.12.92-1.71,1.28-3.24-1.28-3.76Z"/>
          <path class="cls-8" d="m146.16,129.09c-1.05-.25-2.11-.5-3.16-.75,0-.42,0-.84,0-1.26.62-.43,1.24-.85,1.85-1.28.43.88.86,1.75,1.29,2.63,0,.22,0,.44.01.65Z"/>
          <path class="cls-8" d="m215.49,61.76c-.38.27-.76.53-1.14.8-.45.17-.89.35-1.34.52.02-.76.05-1.52.07-2.28l.17-.2c.55.06,1.11.12,1.67.19.22.23.44.47.66.71,0,0-.08.26-.08.26Z"/>
          <path class="cls-11" d="m175.27,27.9c-.43-.02-.87-.03-1.3-.05.83-.64,1.67-1.28,2.5-1.92,0,0,.12.08.11.08-.03.39-.07.79-.1,1.18l-1.22.7Z"/>
          <path class="cls-22" d="m253.47,70.28c.31-.25.62-.51.93-.76.56.03,1.12.06,1.68.08.03.16.07.33.09.49-.91.82-1.81,1.63-2.72,2.45,0-.55,0-1.1-.01-1.65.09-.2.09-.41.02-.62Z"/>
          <path class="cls-11" d="m180.26,115.01c.85.01,1.69.03,2.54.04-.83.43-1.67.86-2.5,1.29,0,0-.02-.02-.02-.02-.01-.43-.03-.86-.04-1.29,0,0,.02-.02.02-.02Z"/>
          <path class="cls-8" d="m209.94,61.28c1.06-.4,2.12-.8,3.18-1.21.04.18.08.36.13.54,0,0-.17.2-.17.19-1.05.16-2.09.32-3.14.48Z"/>
          <path class="cls-20" d="m174.58,46.67c-.61.02-1.23.04-1.84.06.01-.39.02-.78.03-1.16.39-.23.79-.46,1.18-.68.21.6.42,1.19.63,1.79Z"/>
          <path class="cls-7" d="m190.38,13.29c.43-.41.86-.82,1.29-1.23-.43.41-.86.82-1.29,1.23Z"/>
          <path class="cls-11" d="m180.3,116.35c-.42.42-.85.84-1.27,1.26,0,0-.02-.02-.02-.02.42-.42.85-.84,1.27-1.26,0,0,.02.02.02.02Z"/>
          <path class="cls-11" d="m203.05,115.05c.42.42.83.85,1.25,1.27-.42-.42-.83-.85-1.25-1.27Z"/>
          <path class="cls-8" d="m173.95,44.88c-.39.23-.79.46-1.18.68.22-.65.45-1.3.67-1.95.21.24.41.49.62.73-.06.17-.09.35-.11.54Z"/>
          <path class="cls-22" d="m308.7,167.59c.05-.46.1-.92.15-1.39.15.44.29.89.44,1.33,0,0-.29.08-.29.08l-.3-.03Z"/>
          <path class="cls-22" d="m308.86,71.52c-.07-.25-.13-.49-.2-.74.19.01.37.03.56.04-.12.23-.24.46-.36.7Z"/>
          <path class="cls-11" d="m215.57,61.5c-.22-.24-.44-.47-.66-.71.22.24.44.47.66.71Z"/>
          <path class="cls-1" d="m189.12,134.03c1.65,0,3.3.03,4.94,0,2.2-.03,4.6.55,5.92-2.12.17-.34,1.12-.3,1.72-.43-.84,1.24-1.67,2.48-2.51,3.72-1.81.24-3.61.55-5.43.71-2.83.25-5.67.4-8.5.6-.61.22-1.22.45-1.82.67-.2-.63-.4-1.25-.61-1.88.2,0,.41-.02.61-.02.21-.21.42-.42.63-.63,0,0,0,0,0,0,.22-.2.44-.4.65-.61,1.46,0,2.93-.02,4.39-.03Z"/>
          <path class="cls-15" d="m184.73,134.05c-.22.2-.44.4-.65.61.22-.2.44-.4.65-.61Z"/>
          <path class="cls-15" d="m184.07,134.66c-.21.21-.42.42-.63.63.21-.21.42-.42.63-.63Z"/>
          <path class="cls-10" d="m254.24,213.08c-.4-.01-.81-.02-1.21-.03-1.08-.22-2.16-.62-3.24-.62-10.31-.06-20.63-.05-30.94-.06-.2-4.65-.43-9.31-.55-13.96,0-.38.76-.77,1.17-1.16,0,3.57,0,7.15,0,10.72,0,2.14.79,3.24,3.19,3.22,9.04-.09,18.08-.11,27.12,0,2.55.03,3.44-.98,3.19-3.37-.24-2.39-.68-4.79-.59-7.17.28-7.04.79-14.07,1.21-21.1.4,0,.79,0,1.19,0,.16.03.32.07.49.09.02.38.03.77.05,1.15,0,.54,0,1.08,0,1.62l.22.04.22-.03c0,9.72.02,19.44.02,29.16-.05.29-.1.57-.14.86,0,0-.24-.08-.24-.08-.39.24-.78.48-1.17.73Z"/>
          <path class="cls-2" d="m219.47,197.23c-.41.39-1.18.78-1.17,1.16.12,4.66.35,9.31.55,13.96-.46.05-.93.1-1.39.15,0,0,0-.02,0-.02-.08-.24-.16-.49-.24-.73v-37.04c6.58,0,12.94,0,19.3,0-.88.34-1.75.94-2.64.97-3.26.12-6.53-.07-9.78.1-1.48.08-3.88.34-4.2,1.17-.9,2.28-1.02,4.9-1.24,7.4-.14,1.54.12,3.11.2,4.66,0,1.47,0,2.94,0,4.41.21,1.27.42,2.53.63,3.8h0Z"/>
          <path class="cls-10" d="m218.84,189.02c-.08-1.56-.33-3.13-.2-4.66.22-2.5.35-5.12,1.24-7.4.33-.83,2.73-1.09,4.2-1.17,3.25-.17,6.52.02,9.78-.1.89-.03,1.76-.63,2.64-.97,1.69,0,3.39,0,5.08,0,.67.34,1.31.92,2,.97,1.77.14,3.59-.14,5.32.13.79.13,1.44,1.16,2.16,1.79-.56.22-1.14.66-1.68.61-4.92-.47-9.8.61-14.84-.96-3.73-1.16-8.11-.32-12.2-.15-.57.02-1.5,1.28-1.56,2.02-.2,2.57.06,5.18-.17,7.74-.07.77-1.17,1.44-1.8,2.15Z"/>
          <path class="cls-16" d="m217.46,212.51c.46-.05.93-.1,1.39-.15,10.31.01,20.63,0,30.94.06,1.08,0,2.16.41,3.24.62-.62.14-1.24.28-1.86.42-.28,0-.56,0-.84-.01-10.2-.02-20.39-.02-30.59-.09-.76,0-1.52-.55-2.28-.85Z"/>
          <path class="cls-2" d="m251.08,177.62c-.72-.62-1.36-1.66-2.16-1.79-1.74-.27-3.55,0-5.32-.13-.69-.05-1.33-.63-2-.97,4.77,0,9.54,0,14.31,0,0,0,.11-.24.11-.24,0,0-.14.23-.14.23-.05,1.11-.09,2.22-.13,3.33-.18.27-.37.54-.55.81-.14.22-.28.44-.41.67-.4,0-.79,0-1.19,0-.84-.64-1.68-1.28-2.52-1.92Z"/>
          <path class="cls-12" d="m237.79,170.71c.21-.43.43-.86.64-1.28,0,0,0,0,0,0,2.61.09,3.88-1.16,3.78-3.79,2.84,2.27,2.95,3.35.66,6.28-.43,0-.87,0-1.3,0-.41-.2-.82-.41-1.23-.61l-2.56-.6Z"/>
          <path class="cls-22" d="m255.2,178.87c.18-.27.37-.54.55-.81,0,1.45.02,2.9.02,4.36,0,0-.22.03-.22.03,0,0-.22-.04-.22-.04,0-.54,0-1.08,0-1.62-.02-.38-.03-.77-.05-1.15-.02-.25-.05-.5-.08-.76Z"/>
          <path class="cls-7" d="m240.34,171.31c.41.2.82.41,1.23.61-.41-.2-.82-.41-1.23-.61Z"/>
          <path class="cls-16" d="m254.24,213.08c.39-.24.78-.48,1.17-.73-.39.24-.78.48-1.17.73Z"/>
          <path class="cls-16" d="m217.22,211.77c.08.24.16.49.24.73-.12-.15-.26-.28-.35-.45-.03-.06.07-.18.11-.28Z"/>
          <path class="cls-22" d="m255.65,212.44c.05-.29.1-.57.14-.86-.05.29-.1.57-.14.86Z"/>
          <path class="cls-22" d="m250.33,213.45c.28,0,.56,0,.84.01-.28,0-.56,0-.84-.01Z"/>
          <path class="cls-17" d="m220.73,125.66c4.64,0,9.27,0,13.91,0,4.21.03,8.43.05,12.64.08,0,0-.03.13-.03.13.34.24.68.48,1.01.72.03,12.63.07,25.26.11,37.9,0,1.05.08,2.1.12,3.15-.07.18-.1.36-.09.56-.68.09-1.36.18-2.04.28-.03-.8-.2-1.62-.07-2.39.24-1.49.93-2.94.94-4.41.09-9.98-.07-19.97.11-29.95.06-3.07-.57-4.24-3.93-4.09-6.61.29-13.24.09-19.86.09-2.71,0-5.42.16-8.11-.08-1.01-.09-1.93-1.13-2.88-1.73,1.25-.08,2.5-.15,3.75-.23,1.47,0,2.94-.01,4.42-.02Z"/>
          <path class="cls-4" d="m212.52,131.51c1.8.35,3.62,1.06,5.4.96,2.1-.11,4.14-1.2,6.24-1.36,2.94-.23,5.91,0,8.86.05.4,0,.91.29,1.17.13,3.4-2.08,3.49.83,4.23,2.76-8.63-.01-17.27-.02-25.9-.03,0-.84,0-1.67,0-2.51Z"/>
          <path class="cls-15" d="m242.21,165.64c.1,2.62-1.17,3.87-3.78,3.79.01-.58.02-1.17.04-1.75.12-.3.25-.59.37-.88.28-1.03.81-2.06.81-3.1.06-8.63.03-17.26.03-25.88,1.19,1.69,3.56,2.95,1.78,5.67-.47.71-.48,1.8-.49,2.71-.04,5.56-.08,11.13.04,16.69.02.93.78,1.84,1.2,2.76Z"/>
          <path class="cls-1" d="m212.52,134.02c8.63.01,17.27.02,25.9.03.03.39.06.77.09,1.16,0,0-.15.15-.15.15-9.02-.02-18.03.02-27.05-.15-1.12-.02-2.23-1.21-3.34-1.86.16-.69.33-1.37.49-2.06.29.06.57.11.86.17-.35,2.63,1.32,2.72,3.2,2.55Z"/>
          <path class="cls-1" d="m239.69,137.81c0,8.63.03,17.26-.03,25.88,0,1.04-.53,2.07-.81,3.1-.08-8.81-.16-17.61-.24-26.42.06-.07.19-.15.17-.21-.03-.17-.12-.32-.19-.48,0-.62-.01-1.24-.02-1.85-.06-.62-.11-1.25-.17-1.87,0,0-.1.03-.1.03.02-.21.05-.42.07-.63,0,0,.15-.15.15-.15.39.87.78,1.73,1.18,2.6Z"/>
          <path class="cls-15" d="m212.52,134.02c-1.88.18-3.55.08-3.2-2.54-.02-.44-.03-.88-.05-1.33.03-.2,0-.39-.09-.56l.87-2.48c.2-.42.4-.85.6-1.27h0c.21-.02.41.02.6.11.42,1.86.85,3.71,1.27,5.57,0,.84,0,1.67,0,2.51Z"/>
          <path class="cls-20" d="m211.25,125.94c-.19-.09-.39-.12-.6-.09-.02-5.06-.04-10.12-.06-15.18,0,0,.3,0,.3,0l.3.05c.25,4.02.5,8.03.75,12.05.06.38.12.76.19,1.14-.04.58-.07,1.16-.11,1.73-.26.1-.51.2-.77.29Z"/>
          <path class="cls-22" d="m248.4,168.19c0-.19.02-.38.09-.56.45.02.9.04,1.36.07-.22.17-.45.34-.67.52-.26,0-.52-.02-.77-.03Z"/>
          <path class="cls-21" d="m196.59,39.22c-.19.46-.28.99-.59,1.35-.39.46-.91.98-1.45,1.09-.25.05-.91-.75-1-1.23-.21-1.17.29-2.75-1.87-2.27-.86-.01-1.72-.02-2.59-.03-.4-.48-.81-.97-1.21-1.45,0-.42,0-.84-.01-1.26.24-.4.48-.81.72-1.21,1.87.05,3.48-.26,3.72-2.56.2-.05.41-.1.61-.16.41.06.81.13,1.22.19,1.01,1.72,2.01,3.45,3.02,5.17l.77-.33c-.45.89-.89,1.79-1.34,2.68Z"/>
          <path class="cls-8" d="m176.49,27.2c.03-.39.07-.79.1-1.18.67-1.01,1.35-2.03,1.98-2.98,1.9.74,3.64,1.41,5.72,2.21-.08.77-.19,1.94-.31,3.11-.53.59-1.13,1.14-1.58,1.79-.32.46-.45,1.05-.66,1.58-1.04-4.12-1.86-4.83-5.25-4.53Zm2.82-2.16c-.16.09-.38.14-.46.28-.06.09.06.3.1.45.16-.07.4-.11.46-.23.06-.11-.06-.32-.11-.5Z"/>
          <path class="cls-20" d="m197.83,61.97c-.04-.82-.07-1.64-.11-2.46.74-.61,1.47-1.23,2.21-1.84.64-.23,1.29-.46,1.93-.69.82.37,1.63.75,2.45,1.13-1.49,1.49-2.98,2.98-4.47,4.47-.67-.2-1.34-.41-2.01-.61Z"/>
          <path class="cls-6" d="m204.32,58.1c-.82-.38-1.63-.75-2.45-1.13,2.07-1.73,4.14-3.45,6.22-5.18.41.43.82.87,1.23,1.3-.64.95-1.28,1.91-1.91,2.86-.81.75-1.63,1.49-2.44,2.24-.22-.03-.43-.06-.65-.1Z"/>
          <path class="cls-1" d="m194.15,31.69c-.41-.06-.81-.13-1.22-.19.19-.29.38-.58.57-.88.22.36.43.71.65,1.07Z"/>
          <path class="cls-5" d="m249.8,126.45c-1.02-1.6-2.03-3.2-2.86-4.5-3.16.68-6.16,1.32-9.15,1.96-.92-.42-1.84-1.18-2.77-1.2-4.84-.12-9.69-.06-14.53-.06-5.12,0-5.53-.47-4.79-5.58.07-.5.23-1.02.47-1.47,1.88-3.51,4.41-6.74,4.65-10.96.01-.26.26-.64.49-.74,3.4-1.46,6.43-3.75,10.52-3.45,3.08.23,3.09,3.12,4.77,4.5,1.05,2.79,2.92.37,4.36.68.4.61.66,1.47,1.22,1.79,1.98,1.13,4.03.36,6.13.26,2.49-.12,3.5-1.84,3.49-3.07-.02-2.25-.48-4.32.14-6.72.54-2.08-.8-4.57-.75-6.87.02-1.17,1.06-3.07,2.01-3.33,2.6-.73,3.33-2.7,4.05-4.74.71-1.99,1.15-4.08,1.75-6.28-.67-.06-1.18-.1-1.69-.15-.01-.56-.03-1.12-.04-1.68-.13-2.15.84-2.81,3.01-2.8,13.99.09,27.98.12,41.96-.02,2.79-.03,3.24,1.02,3.23,3.48-.07,28.92-.09,57.85.02,86.77.01,2.95-1.02,3.43-3.64,3.41-16.51-.1-33.02-.05-49.54-.04-.42,0-.83-.01-1.25-.02,0-7.2.04-14.4-.07-21.59-.02-1.02-.78-2.03-1.21-3.05,0-.42,0-.84,0-1.26,1.85-1.76,1.85-11.53,0-13.27Z"/>
          <path class="cls-10" d="m252.32,165.64c16.51,0,33.02-.06,49.54.04,2.62.02,3.65-.46,3.64-3.41-.12-28.92-.1-57.84-.02-86.77,0-2.46-.44-3.51-3.23-3.48-13.99.14-27.98.11-41.96.02-2.17-.01-3.14.65-3.01,2.8-1-.12-1.99-.24-2.99-.35.54-2.7,2.18-3.71,4.91-3.7,15.83.08,31.65.05,47.48.05.43,1.77,1.22,3.54,1.22,5.31.08,28.65.06,57.29.05,85.94,0,3.74-1.03,4.8-4.82,4.8-16.01.02-32.02.03-48.02-.05-.93,0-1.85-.78-2.78-1.2Z"/>
          <path class="cls-10" d="m236.6,104.95c-1.68-1.37-1.69-4.27-4.77-4.49-4.09-.3-7.12,1.99-10.52,3.45-.23.1-.47.48-.49.74-.24,4.22-2.77,7.45-4.65,10.96-.24.45-.4.97-.47,1.47-.74,5.1-.32,5.58,4.79,5.58,4.84,0,9.69-.06,14.53.06.93.02,1.85.78,2.77,1.2-5.88,0-11.76,0-17.64,0q-5.67,0-5.76-5.74c-.16-1.24-.32-2.48-.47-3.72-.02-.62-.04-1.24-.06-1.87.81-1.5,1.63-2.99,2.44-4.49,1.27-2.09,2.55-4.19,3.82-6.28.93-.81,1.74-1.84,2.8-2.4,2.58-1.38,5.27-2.54,7.92-3.79,1.96.55,3.95,1.04,5.88,1.7.63.22,1.64,1,1.57,1.34-.42,2.12-1.1,4.19-1.7,6.28Z"/>
          <path class="cls-10" d="m249.81,140.98c.42,1.02,1.19,2.03,1.21,3.05.11,7.2.06,14.4.07,21.59-.42-1.01-1.2-2.01-1.22-3.03-.11-7.2-.05-14.41-.05-21.61Z"/>
          <path class="cls-10" d="m249.8,126.45c1.85,1.74,1.86,11.51,0,13.27,0-4.42,0-8.85,0-13.27Z"/>
          <path class="cls-16" d="m213.91,114.46c.16,1.24.32,2.48.47,3.72-.76,1.91-1.51,3.82-2.27,5.73-.06-.38-.12-.76-.19-1.15.18-.7.37-1.41.56-2.11.23-.99.47-1.98.7-2.97.17-1.09.35-2.17.52-3.26l.2.04Z"/>
          <path class="cls-16" d="m247.28,125.75c-4.21-.03-8.43-.05-12.64-.08,4.21.03,8.43.05,12.64.08Z"/>
          <path class="cls-16" d="m220.73,125.66c-1.47,0-2.94.01-4.42.02,1.47,0,2.94-.01,4.42-.02Z"/>
          <path class="cls-22" d="m248.26,126.6c-.34-.24-.68-.48-1.01-.72.34.24.68.48,1.01.72Z"/>
          <path class="cls-12" d="m163.24,97.35c.63.42,1.25.84,1.88,1.27,1.11.34,2.42,1.21,3.27.89,1.16-.44,1.89-1.9,2.95-2.74.98-.77,2.18-1.87,3.23-1.82,4.11.2,8.2.77,12.29,1.27.45.06.89.5,1.27.84,1.87,1.71,3.71,3.45,5.82,5.42-1.26,3.39-5.4,2.16-8.02,3.76-.2,0-.39-.03-.59-.07-.83-.76-1.95-1.36-2.43-2.3-1.16-2.25-2.92-2.9-5.25-2.64-.57,0-1.14,0-1.71,0-2.3,1.55-5.97.04-7.55,3.38-.17.35-1.33.24-2.03.34-1.68-.85-3.36-1.7-5.04-2.55l-2.58-3.75c-.34-1.01-.68-2.03-1.33-3.97,1.44.49,2.47.76,3.42,1.2.84.39,1.59.96,2.38,1.46Z"/>
          <path class="cls-3" d="m158.14,113.83c-2.31-.01-4.62-.02-6.93-.04.59-.42,1.14-.96,1.8-1.22.99-.39,2.06-.58,3.73-1.02-1.59-1.18-2.6-1.92-3.6-2.66,0,0-.04-.24-.04-.24.24-.16.49-.33.73-.49.19,0,.38-.03.56-.09l.49-.54c.05-.22.1-.44.15-.66.42,0,.83.01,1.25.02.2.2.39.41.59.61.67,1.44,1.34,2.88,2.01,4.32-.02.45-.04.9-.06,1.34-.23.23-.45.45-.68.68Z"/>
          <path class="cls-21" d="m154.39,108.06c-.18.06-.37.09-.56.09-.24.16-.49.33-.73.49,0,0,.04.24.04.24-.22-.06-.43-.11-.65-.17-.45-2.2-.58-4.67-3.9-4.28-.1.01-.27-.5-.4-.77,2.95,1.06,3.33-1.86,4.8-3.1.45,1.11.91,2.22,1.36,3.33-.03,1.05-3.1,2.79.68,2.97-.05.22-.1.44-.15.66-.16.18-.32.36-.49.54Z"/>
          <path class="cls-6" d="m154.96,95.51c.67,1.05,1.34,2.09,2.01,3.14-.03.83-.06,1.66-.09,2.5-1.22-.39-2.45-.78-3.67-1.17.28-1.36,1.84-2.77-.19-4.02.44-.36.88-.72,1.31-1.08,0,0,.01,0,.01,0,.2.21.41.43.61.64Z"/>
          <path class="cls-13" d="m148.18,103.66c.14.27.3.78.4.77,3.31-.38,3.45,2.09,3.9,4.28-.15.14-.39.42-.42.4-1.71-1.29-3.43-2.55-5.06-3.94-.29-.25-.18-.98-.25-1.49.41-.42.82-.85,1.23-1.27.07.42.13.83.2,1.25Z"/>
          <path class="cls-1" d="m147.98,102.41c-.41.42-.82.85-1.23,1.27-.36-1.9-3.08-3.32-1.17-5.68.39,0,.79.01,1.18.02.64.84,1.27,1.68,1.91,2.51-.23.63-.46,1.26-.69,1.88Z"/>
          <path class="cls-6" d="m147.38,87.85c-.21-.02-.43-.04-.64-.07-.22-.66-.45-1.32-.67-1.98.08-.8.16-1.6.24-2.4.67.18,1.34.36,1.96.52.38-.88.7-1.61,1.02-2.34.04,1.47.07,2.94.11,4.4-.06.19-.1.39-.11.58-.64.43-1.28.86-1.91,1.29Z"/>
          <path class="cls-1" d="m156.88,101.15c.03-.83.06-1.66.09-2.5.6,0,1.2,0,1.79.01.86,1.25,1.72,2.5,2.58,3.75,0,0-.03.03-.03.03-1.47-.43-2.95-.86-4.42-1.3Z"/>
          <path class="cls-6" d="m148.67,100.53c-.64-.84-1.27-1.68-1.91-2.51.64-.67,1.28-1.34,1.92-2,.42.03.84.06,1.25.09,0,.25-.01.5-.02.75-.42,1.23-.83,2.46-1.25,3.68Z"/>
          <path class="cls-13" d="m149.92,96.84c0-.25.01-.5.02-.75,2.08-2.39,3.09-2.68,4.4-1.23-.44.36-.88.72-1.31,1.09-.17.08-.34.15-.51.2-.43.24-.86.47-1.29.71-.43,0-.87-.01-1.3-.02Z"/>
          <path class="cls-13" d="m148.68,96.01c-.64.67-1.28,1.34-1.92,2-.39,0-.79-.01-1.18-.02-.02-2.3.92-3.11,3.1-1.99Z"/>
          <path class="cls-13" d="m154.96,95.51c-.2-.21-.41-.43-.61-.64.2.21.41.43.61.64Z"/>
          <path class="cls-1" d="m183.44,189.65c-.21-.98-.61-1.96-.61-2.95-.04-14.89-.04-29.78,0-44.67,0-.99.38-1.98.58-2.97.17.44.33.89.5,1.33.02,1.05.06,2.1.06,3.14,0,15.3-.02,30.6-.03,45.9-.17.07-.34.14-.51.21Z"/>
          <path class="cls-13" d="m208.06,190.87c-7.01.01-14.02.05-21.03.01-.99,0-1.98-.37-2.98-.57,0,0,.08-.17.08-.17,7.99.06,15.98.13,23.98.19-.02.18-.04.36-.05.54Z"/>
          <path class="cls-8" d="m183.91,140.39c-.17-.44-.33-.89-.5-1.33,0-.63.02-1.25.03-1.87.61-.22,1.22-.45,1.82-.67-.45,1.29-.9,2.58-1.35,3.88Z"/>
          <path class="cls-1" d="m208.06,190.87c.01-.18.03-.36.05-.54.41-.02.83-.04,1.24-.05,0,0,.07.09.07.09-.45.17-.91.34-1.36.5Z"/>
          <path class="cls-8" d="m184.05,190.32c-.21-.22-.41-.45-.62-.67.17-.07.34-.14.51-.21,0,0,.24.13.24.13-.06.19-.08.38-.05.58l-.08.17Z"/>
          <path class="cls-12" d="m211.26,67.03c.67.27,1.31.69,2,.76,1.32.14,2.67.07,4,.08-1.2,3.09-3.88,1.13-6.2,1.62.32,1.21.6,2.26.88,3.3.18,2.07.36,4.14.54,6.21-.58,1.77-1.19,3.54-1.68,5.33-.07.26.49.69.76,1.04.03.13.08.26.17.36-.22.04-.44.09-.66.13l-1.74,1.37c-1.35,0-2.7,0-4.04.01-1.38.02-2.51-.06-2.06-2.03.47-2.04.72-4.12,1.06-6.19,1.25-2.7,2.54-5.38,3.67-8.12.09-.23-.76-1.03-1.3-1.29-.61-.28-1.38-.25-2.28-.38.37-1.98-1.75-4.88,2.44-4.75.43.41.86.83,1.29,1.24,1.05.43,2.1.85,3.15,1.28Z"/>
          <path class="cls-22" d="m211.56,85.38c-.27-.35-.83-.78-.76-1.04.49-1.8,1.11-3.56,1.68-5.33.38-2.12,2.04-4.35-.54-6.21-.28-1.05-.56-2.09-.88-3.3,2.32-.49,5,1.47,6.2-1.62.88-.02,1.75-.04,2.63-.06,1.38.58,2.76,1.15,4.14,1.73.76-.4,1.52-.8,2.28-1.21.24.27.48.53.72.8.02.37.03.75.05,1.12-.2,1.09-.4,2.19-.6,3.28-5.73-1.73-7.22,3.33-10.05,6.22,1.11,1.03,2.19,2.03,3.26,3.02l-2.18,1.79c.34-.57.68-1.14,1.09-1.82-2.23-1.05-3.22-.58-2.92,1.86l.05.28c-.43.14-.86.29-1.28.43-1.02-2.84-1.94-.79-2.88.06Zm8.5-12.99c-2.71-.73-4.75-1.28-6.96-1.88,1.04,2.39,1.82,4.19,2.84,6.52,1.33-1.5,2.45-2.76,4.12-4.63Z"/>
          <path class="cls-6" d="m226.31,68.34c-.76.4-1.52.8-2.28,1.21-1.53-1.37-2.3-2.95-1.34-4.99.21-.21.42-.41.63-.62,1.24-.03,2.49-.06,3.73-.1.25.21.5.42.76.63.02.23.05.46.07.69-.03.4-.05.81-.08,1.21-.07.6-.13,1.21-.19,1.81-.16.08-.33.13-.51.16-.26,0-.52,0-.78-.01Z"/>
          <path class="cls-20" d="m226.35,54.37c1.31-1.23,2.62-2.47,3.93-3.7.4-.19.79-.39,1.19-.58,1.12,1.44.39,2.5-.7,3.49-.76.53-1.53,1.06-2.29,1.59-.71-.27-1.42-.53-2.12-.8Z"/>
          <path class="cls-1" d="m211.26,67.03c-1.05-.43-2.1-.85-3.15-1.28,0-.41-.01-.81-.02-1.22.87-.36,1.75-.73,2.62-1.09.76-.12,1.53-.24,2.29-.36.45-.17.89-.35,1.34-.52-1.03,1.49-2.06,2.98-3.09,4.47Z"/>
          <path class="cls-13" d="m222.69,64.56c-.96,2.04-.19,3.62,1.34,4.99-1.38-.58-2.76-1.15-4.14-1.73.93-1.09,1.87-2.17,2.8-3.26Z"/>
          <path class="cls-6" d="m230.77,53.58c1.1-.99,1.82-2.06.7-3.49.84.38,1.68.77,2.51,1.15-.64,1.38-1.03,3.09-3.22,2.34Z"/>
          <path class="cls-6" d="m176.49,27.2c3.39-.3,4.21.41,5.25,4.53-.77.93-1.43,2.01-2.37,2.72-.33.25-1.34-.42-2.05-.67,1.08-2.58-1.44-3.9-2.05-5.89.41-.23.81-.47,1.22-.7Z"/>
          <path class="cls-21" d="m173.95,44.88c.01-.18.05-.36.11-.54,2.01-.64,3.84-1.33,2.71-4.12-.15-.37.65-1.12,1.01-1.7.64.22,1.28.45,1.92.67.03,1.14.39,2.41,0,3.39-.61,1.55-1.71,2.9-2.6,4.34-.84-.08-1.68-.17-2.52-.25-.21-.6-.42-1.19-.63-1.79Z"/>
          <path class="cls-8" d="m177.09,46.92c.89-1.44,2-2.79,2.6-4.34.38-.98.02-2.25,0-3.39.74.66,1.66,1.2,2.18,2,.7,1.08,1.1,2.37,1.63,3.57-1.1.91-2.2,1.82-3.3,2.73-1.03-.19-2.07-.38-3.1-.57Z"/>
          <path class="cls-21" d="m180.2,47.49c1.1-.91,2.2-1.82,3.3-2.73,1.24,2.64-.86,3.12-2.51,3.9-.26-.39-.53-.78-.79-1.18Z"/>
          <path class="cls-13" d="m188.6,34.22c-.24.4-.48.81-.72,1.21.24-.4.48-.81.72-1.21Z"/>
          <path class="cls-11" d="m184.79,37.97c-.02.23-.04.45-.06.68.02-.23.04-.45.06-.68Z"/>
          <path class="cls-21" d="m238.95,56.8c-2.13,1.82-3.98,4.44-7.39,2.59-.19-1.59-.01-2.73,1.99-3.18,1.15-.26,2.09-1.44,3.33-2.36.61.32,1.42.74,2.22,1.16-.05.6-.1,1.19-.14,1.79Z"/>
          <path class="cls-6" d="m226.35,54.37c.71.27,1.41.53,2.12.8-.45,1-.91,1.99-1.52,3.33-1.37-1.51-3.08-2.52-.61-4.13Z"/>
          <path class="cls-8" d="m238.95,56.8c.05-.6.1-1.19.14-1.79.38.02.77.03,1.15.05-.43.58-.86,1.16-1.3,1.74Z"/>
          <path class="cls-13" d="m227.6,68.19c.06-.6.13-1.21.19-1.81.16.63.32,1.26.49,1.89-.23-.03-.45-.05-.68-.08Z"/>
          <path class="cls-13" d="m227.88,65.17c-.02-.23-.05-.46-.07-.69.08.15.19.3.24.47.02.05-.11.15-.17.23Z"/>
          <path class="cls-12" d="m178.95,71.4c1.42-.42,1.89-2.93,4-1.81-.02.36-.03.72-.04,1.08,2.44,2.41,5.59,2.94,8.8,3.28.84,2.11,1.67,4.21,2.51,6.32-1.06,1.07-2.18,2.1-3.15,3.24-.57.67-.89,1.55-1.32,2.33-.62.08-1.24.16-1.85.24-1.13-.68-2.25-1.36-3.7-2.23.39-5.63-6.38-4.1-8.91-7.47,5.38-1.71,5.81-2.34,3.67-4.96v-.02Z"/>
          <path class="cls-13" d="m194.22,80.26c-.84-2.11-1.67-4.21-2.51-6.32-.02-.62-.04-1.25-.06-1.87l-.03-.08c.61-.17,1.22-.35,1.83-.52,1.08,1.71,2.16,3.42,3.23,5.13.21.88.42,1.76.64,2.69.74-.37,1.27-.65,1.8-.92,0,.62.27,1.51-.04,1.82-2.35,2.41-1.62,5.4-1.77,8.24-.03.67-.39,1.32-.6,1.97-.22-1.48-.43-2.97-.65-4.45-.62-1.9-1.23-3.81-1.85-5.71Z"/>
          <path class="cls-1" d="m199.13,78.38c-.53.27-1.07.54-1.8.92-.22-.93-.43-1.81-.64-2.69.01-1.85-.09-3.71.09-5.54.07-.74.73-1.43,1.12-2.14.4.44.81.87,1.21,1.31,0,2.71.02,5.43.03,8.14Z"/>
          <path class="cls-6" d="m185.38,67.75c2.07-1.6,3.83-.38,5.62.61.21,1.21.41,2.43.62,3.64,0,0,.03.08.03.08-.41-.02-.82-.03-1.23-.05-1.68-1.43-3.36-2.85-5.04-4.28Z"/>
          <path class="cls-8" d="m199.1,70.24c-.4-.44-.8-.87-1.21-1.31,0-1.05-.01-2.11-.02-3.16-.17-.42-.33-.84-.5-1.26-.02-.43-.04-.85-.06-1.28.17-.42.34-.84.51-1.27.67.2,1.34.41,2.01.61.19,1.5.39,3.01.58,4.51-.44,1.05-.88,2.1-1.32,3.15Z"/>
          <path class="cls-8" d="m185.38,67.75c1.68,1.43,3.36,2.85,5.04,4.28-2.51-.45-5.01-.91-7.52-1.36.01-.36.03-.72.04-1.08.81-.61,1.63-1.22,2.44-1.83Z"/>
          <path class="cls-8" d="m178.98,69.59c0,.6-.02,1.2-.03,1.81,0,0,0,.02,0,.02-.58.03-1.16.07-1.74.1-.44-1.27-.89-2.55-1.33-3.82.59-.24,1.18-.48,1.77-.72l.11.09c.4.84.8,1.69,1.21,2.53Z"/>
          <path class="cls-8" d="m191.62,72c-.21-1.21-.41-2.43-.62-3.64.82,1.04,1.63,2.08,2.45,3.12-.61.17-1.22.35-1.83.52Z"/>
          <path class="cls-8" d="m174.43,64.71c1.31.14,2.62.28,3.93.42.01.64.03,1.27.04,1.91-.21,0-.42,0-.62.02,0,0-.11-.09-.11-.09-.6-.4-1.2-.81-1.8-1.21l-1.43-1.05Z"/>
          <path class="cls-1" d="m177.77,67.05c.21-.02.42-.02.62-.02.19.85.39,1.7.58,2.55-.4-.84-.8-1.69-1.21-2.53Z"/>
          <path class="cls-1" d="m197.38,64.51c.17.42.33.84.5,1.26-.17-.42-.33-.84-.5-1.26Z"/>
          <path class="cls-19" d="m210.59,110.67c.02,5.06.04,10.12.06,15.18,0,0,0-.01,0-.01-.2.42-.4.85-.6,1.27-.29.83-.58,1.65-.87,2.48-.36-.9-1.11-1.84-1.02-2.69.21-2.05-.68-3.06-2.48-3.57-.01-.22-.02-.44-.04-.65,3.1-3.16,2.04-6.33.02-9.5,1.02-1.26,2.04-2.53,3.05-3.79,0,0,.31,0,.31,0l.31.03c.42.42.84.84,1.25,1.27Z"/>
          <path class="cls-18" d="m208.72,109.38c-1.02,1.26-2.04,2.53-3.05,3.79-1.52-1.02-3.04-2.05-4.55-3.07-.66-.69-1.33-1.38-1.99-2.06.24-.22.48-.44.71-.66.26-.37.52-.73.77-1.1.37-.87.74-1.74,1.11-2.61.88,0,1.76,0,2.63.01.41.2.81.41,1.22.61,1.05,1.7,2.1,3.39,3.15,5.09Z"/>
          <path class="cls-20" d="m199.12,108.03c.66.69,1.33,1.37,1.99,2.06-3.1.3-6.21.55-9.3.93-.91.11-1.76.61-2.64.92-.43.22-.86.44-1.29.67-1.46.03-2.91.05-4.37.08-.42-.24-.84-.48-1.27-.72,0-.25,0-.5-.01-.75,1.25-.46,2.51-.92,3.76-1.38.38-.04.75-.07,1.13-.11.46-.14.93-.28,1.39-.41,3.54-.43,7.08-.86,10.62-1.29Z"/>
          <path class="cls-8" d="m182.24,111.98c.42.24.84.48,1.27.72-1.08.77-2.16,1.55-3.25,2.32,0,0-.02.02-.02.02-1.29-.04-2.57-.07-3.86-.11.44-.37.88-.74,1.33-1.1.86-.22,1.72-.45,2.58-.67.65-.39,1.3-.79,1.96-1.18Z"/>
          <path class="cls-8" d="m187.87,112.62c.43-.22.86-.44,1.29-.67-.43.22-.86.44-1.29.67Z"/>
          <path class="cls-19" d="m174.43,64.71c.48.35.95.7,1.43,1.05,0,.64.02,1.29.03,1.93.44,1.27.89,2.55,1.33,3.82-.24.21-.47.43-.71.64-.82-.07-1.64-.14-2.46-.21-.24-.37-.48-.74-.72-1.12-.41-.69-.83-1.38-1.24-2.07-.22-.89-.3-1.86-.71-2.66-.38-.74-1.11-1.29-1.69-1.93-.47.79-1.38,1.62-1.32,2.37.12,1.47.78,2.89,1.22,4.34-1.69-.25-3.39-.49-5.08-.74-1.09-2.28-2.95-4.54.08-6.84.43-.33.38-1.29.56-1.96.42-.78.84-1.56,1.26-2.34.37.05.75.09,1.12.14.99,2.74,3.26,2.98,5.69,2.9.41.89.81,1.78,1.22,2.67Z"/>
          <path class="cls-6" d="m173.22,62.04c-2.43.08-4.7-.16-5.69-2.9,1.52.29,3.03.59,4.55.88.38.67.76,1.35,1.14,2.02Z"/>
          <path class="cls-6" d="m166.4,59c-.42.78-.84,1.56-1.26,2.34-1.13-1.98-.97-2.27,1.26-2.34Z"/>
          <path class="cls-8" d="m189.1,38.14c.86,0,1.72.02,2.59.03-.88,1.59-1.74,1.61-2.59-.03Z"/>
          <path class="cls-16" d="m226.47,73.54c.2-1.09.4-2.19.6-3.28,6.76-.07,13.52-.14,20.27-.21.56.5,1.11.99,1.67,1.49-1.39.21-2.78.42-4.17.64-.46-.44-.92-.88-1.37-1.31-.42,0-.83,0-1.25,0-3.37,0-6.73.06-10.09-.06-1.92-.07-3.02.58-3.19,2.55-.63.24-1.27.47-1.9.71-.19-.17-.38-.35-.57-.52Z"/>
          <path class="cls-8" d="m249.02,71.54c-.56-.5-1.12-.99-1.67-1.49,0-.14.02-.27.07-.4.72-.05,1.44-.09,2.17-.14.08.22.17.45.25.67,0,.2.01.41.07.6-.04.35-.08.7-.12,1.05,0,0,.06.27.06.27-.27-.19-.54-.38-.81-.57Z"/>
          <path class="cls-13" d="m226.31,68.34c.26,0,.52,0,.78.01-.02.26-.04.52-.07.78-.24-.26-.48-.53-.72-.8Z"/>
          <path class="cls-11" d="m185.92,106.25c2.62-1.6,6.76-.37,8.02-3.76-2.12-1.98-3.96-3.71-5.82-5.42-.37-.34-.81-.79-1.27-.84-4.09-.5-8.18-1.08-12.29-1.27-1.05-.05-2.26,1.05-3.23,1.82-1.06.84-1.79,2.3-2.95,2.74-.85.33-2.17-.55-3.27-.89,1.26-.84,2.53-1.67,3.79-2.51,0,0,0,0,0,0,1.68-1.25,3.36-2.5,5.04-3.75.64,0,1.29,0,1.93.01,2.72,1.69,5.43,3.44,8.83,1.84,3.17,1.44,6.35,2.88,9.52,4.33l2.52,5.19-.02,1.23c.05,2.24-1.53,2.48-3.19,2.51-2.51.05-5.03.02-7.55.02-.02-.41-.05-.82-.07-1.22Z"/>
          <path class="cls-8" d="m175.88,92.37c-.64,0-1.29,0-1.93-.01-1.17-.12-2.34-.24-3.33-.34-.62,1.49-1.17,2.79-1.71,4.09,0,0,0,0,0,0-.63-.19-1.27-.38-1.9-.58.42-.72.83-1.44,1.25-2.15-.16-.19-.31-.37-.47-.56-.87.48-1.75.96-2.62,1.45v-4.53c1.53,0,2.96,0,4.39,0,.41,0,.83-.01,1.24-.02,2.47.27,4.93.54,7.4.81.13-.4.27-.79.4-1.19-.91-.92-1.81-1.85-2.72-2.77-.21-.4-.42-.81-.63-1.21,0-.24.02-.47.03-.71.76.2,1.52.4,1.95.51.57-.8,1.15-1.62,1.73-2.43.64,1.72,1.28,3.44,1.93,5.16-.24.84-.47,1.67-.71,2.51-.16.42-.31.83-.47,1.25-1.27.24-2.54.48-3.81.71Z"/>
          <path class="cls-21" d="m165.17,94.27c.87-.48,1.75-.96,2.62-1.45.16.19.31.37.47.56-.42.72-.83,1.44-1.25,2.15-.61-.42-1.23-.84-1.84-1.27Z"/>
          <path class="cls-19" d="m159.74,128.74c-.76.49-1.51.99-2.52,1.64-.57-1.06-1.07-1.98-1.64-3.05-1.23.39-2.46.78-3.69,1.16-.65-.48-1.31-.97-1.96-1.45,0-.59,0-1.18,0-1.78.81-.07,1.62-.14,2.43-.21.56.25,1.11.64,1.69.73.83.13,1.69.05,2.54.03,1.11-.02,2.22-.08,3.33-.12-.33-1.31-.56-2.65-1.02-3.9-.22-.61-1.07-.99-1.29-1.6-1.15-3.1-1.86-3.34-4.47-1.43-.97.71-2,1.33-2.88,1.92.59.73,1.07,1.33,1.56,1.93-1.44-.21-2.89-.41-4.33-.62.23-1.21.45-2.42.68-3.63.68-.17,1.86-.18,1.97-.54,1.06-3.22,3.68-2.02,5.77-2.1,2.21-.08,2.61,1.64,2.92,3.35.05.29.19.77.36.8,4.39.9,2.44,4.12,2.44,6.61-.03.34-.06.68-.09,1.02l-.13-.12s-.16.06-.16.06c-.44.45-.89.89-1.33,1.34l-.15-.06Z"/>
          <path class="cls-8" d="m168.32,118.93c-.61.11-1.22.22-2.1.37.06-.56.11-1.1.17-1.64,2.09-.87,4.18-1.75,6.26-2.62.23.23.45.46.68.69,0,.42,0,.84,0,1.25-1.67.65-3.34,1.3-5.02,1.95Z"/>
          <path class="cls-1" d="m173.34,116.98c0-.42,0-.84,0-1.25,1.01-.27,2.03-.53,3.04-.8,1.29.04,2.57.07,3.86.11.01.43.03.86.04,1.29-.42.42-.85.84-1.27,1.26-1.89-.2-3.78-.4-5.66-.6Z"/>
          <path class="cls-1" d="m159.89,128.79c.44-.44.89-.89,1.33-1.34-.44.44-.89.89-1.33,1.34Z"/>
          <path class="cls-1" d="m161.51,127.51c.03-.34.06-.68.09-1.02.33-.01.66-.03.99-.04-.36.35-.72.71-1.08,1.06Z"/>
          <path class="cls-19" d="m184.19,189.56s-.25-.13-.24-.13c.01-15.3.02-30.6.03-45.9,0-1.05-.04-2.1-.06-3.14.45-1.29.9-2.58,1.35-3.88,2.83-.19,5.67-.35,8.5-.6,1.82-.16,3.62-.47,5.43-.71-1.35,2.42-3.65,2.47-6.04,2.66-1.79.14-3.54.77-5.3,1.18l-.02.03c-.83,1.27-2.37,2.52-2.39,3.8-.17,13.94-.13,27.88-.05,41.82,0,.82.78,1.63,1.2,2.44h0c.81.43,1.6,1.14,2.44,1.21,2.08.18,4.19.12,6.29.04,3.41-.13,6.81-.36,10.22-.54,2.15-.4,2.96-1.36,2.16-3.69-.48-1.4-.19-3.06-.24-4.61,1.84.16,1.92-1.03,1.91-2.39-.03-3.41,0-6.82,0-10.24h0c1.26-.42,2.53-.83,3.79-1.25h3.76c.61.41,1.22,1.17,1.84,1.18,5.04.1,10.08.09,15.13.03,2.33-.03,3.3-1.41,3.29-3.67-.03-5.46.02-10.93-.03-16.39-.01-1.1-.36-2.19-.56-3.29-.24-1.47-.47-2.95-.71-4.42.36-2.24-.85-2.59-2.76-2.57-6.83.08-13.66.06-20.5,0-1.09,0-2.18-.39-3.27-.6,9.64.02,19.29.04,28.93.06,0,0,.1-.03.1-.04.06.62.11,1.25.17,1.87,0,.62.01,1.24.02,1.85,0,.23.01.46.02.69.08,8.81.16,17.61.24,26.42-.13.29-.25.59-.37.88-.43.01-.87.03-1.3.04-8.62-.02-17.24-.04-25.86-.06-.44.85-1.25,1.7-1.27,2.56-.12,6.45-.09,12.91-.11,19.36-.16.06-.32.11-.48.16-8.42-.06-16.85-.12-25.27-.18Z"/>
          <path class="cls-8" d="m211.31,167.66c8.62.02,17.24.04,25.86.06-2.26.15-4.51.42-6.77.44-6.36.06-12.72.02-19.08.02-.03-.17-.03-.35,0-.52Z"/>
          <path class="cls-6" d="m184.19,189.56c8.42.06,16.85.12,25.27.18-.02.18-.06.36-.1.54-.41.02-.83.04-1.24.05-7.99-.06-15.98-.13-23.98-.19-.03-.2,0-.39.05-.58Z"/>
          <path class="cls-6" d="m211.31,167.66c-.02.17-.02.35,0,.52-.24,1.17-.66,2.35-.68,3.52-.07,5,0,10.01-.06,15.01-.01.96-.42,1.91-.65,2.87.02-6.46-.02-12.91.11-19.37.02-.86.83-1.71,1.27-2.56Z"/>
          <path class="cls-6" d="m211.76,36.09c1.31-1.9,2.62-3.8,3.93-5.7.2-.06.4-.11.61-.17,3.79-1.41,3.44,2.01,4.47,3.83-.91.69-1.82,1.38-2.73,2.07-.71.02-1.74-.25-2.09.11-1.54,1.66-2.84,1.17-4.2-.14Z"/>
          <path class="cls-20" d="m199.1,70.24c.44-1.05.88-2.1,1.32-3.15.44,1.26.87,2.51,1.31,3.77,0,0,0,0,0,0-.64,7.57-1.29,15.13-1.93,22.7-1,0-2,0-3,0-.08-.43-.17-.86-.25-1.28.05-.62.11-1.24.16-1.86.21-.66.57-1.31.6-1.97.15-2.84-.59-5.83,1.77-8.24.31-.32.04-1.2.04-1.82,0-2.71-.02-5.43-.03-8.14Z"/>
          <path class="cls-11" d="m206.82,64.51c-4.19-.14-2.06,2.77-2.44,4.75.9.13,1.67.09,2.28.38.54.25,1.4,1.06,1.3,1.29-1.14,2.74-2.43,5.42-3.67,8.12,0-1.22.16-2.48-.05-3.66-.2-1.13-.79-2.19-1.2-3.28-.44-.41-.87-.83-1.31-1.24,0,0,0,0,0,0,0-1.03.02-2.06.03-3.09.02-3.81.58-4.39,4.48-4.57.22-.02.44-.04.66-.05,0,0,.02.03.02.03,0,.4.02.81.03,1.21l-.13.13Z"/>
          <path class="cls-20" d="m213.01,63.08c-.76.12-1.53.24-2.29.36-1.26-.09-2.53-.18-3.79-.27,0,0-.02-.03-.02-.03.64-.65,1.27-1.31,1.91-1.96.38.03.75.07,1.13.1,1.05-.16,2.09-.32,3.14-.48-.03.76-.05,1.52-.07,2.28Z"/>
          <path class="cls-8" d="m208.81,61.18c-.64.65-1.27,1.31-1.91,1.96-.22.02-.44.04-.66.05.03-.93.06-1.86.1-2.78.82.26,1.65.52,2.47.77Z"/>
          <path class="cls-12" d="m204.96,58.2c.81-.74,1.63-1.49,2.44-2.24,1.35,3.1-1.18,1.98-2.44,2.24Z"/>
          <path class="cls-19" d="m149.29,81.57c-.32.73-.64,1.46-1.02,2.34-.62-.17-1.29-.34-1.96-.52-.07-.2-.14-.39-.19-.6,0-.83.01-1.67.02-2.5h0c.85,0,1.69,0,2.54,0,.2.42.41.85.61,1.27Z"/>
          <path class="cls-8" d="m139.19,80.91c.02-.4.04-.79.05-1.19,2.24-.06,4.48-.12,6.72-.17.06.25.12.5.18.75,0,0,0,0,0,0-.66.25-1.32.5-1.98.76-1.66-.05-3.32-.1-4.97-.15Z"/>
          <path class="cls-6" d="m146.14,80.3c-.06-.25-.12-.5-.18-.75.06-.18.11-.36.14-.55.84.03,1.67.06,2.51.09.02.41.04.81.06,1.22-.85,0-1.69,0-2.54,0Z"/>
          <path class="cls-8" d="m148.62,79.08c-.84-.03-1.67-.06-2.51-.09.9-1.91,1.72-1.38,2.51.09Z"/>
          <path class="cls-11" d="m172.66,115.04c-2.09.87-4.18,1.74-6.26,2.62-1.99.44-3.98.88-5.88,1.3-.78-1.69-1.58-3.42-2.38-5.14.23-.23.45-.45.68-.68.28-.09.57-.19.85-.28.14.28.28.57.42.85.18.24.37.49.55.73.03.18.06.37.09.55.23.4.47.8.7,1.21.38-.37.77-.75,1.15-1.12.81-1.26,1.63-2.52,2.44-3.78.29-.61.58-1.22.87-1.83,1.42,1.02,2.84,2.05,4.26,3.07.2.05.4.09.6.12.21.18.41.36.62.55.46.63.92,1.25,1.38,1.88,0,0-.09-.04-.09-.04Z"/>
          <path class="cls-21" d="m218.04,36.11c.91-.69,1.82-1.38,2.73-2.07.57.15,1.14.3,1.78.46-1.94,2.96-2.86,3.26-4.51,1.6Z"/>
          <path class="cls-18" d="m209.36,135.93c1.09.21,2.18.59,3.27.6,6.83.06,13.66.08,20.5,0,1.91-.02,3.12.33,2.76,2.57-1.76-.42-3.51-1.17-5.28-1.21-7.12-.14-14.24.01-21.35-.12-1.89-.03-3.75-.83-5.65-1.01-1.04-.1-2.16.26-3.19.58-1.7.51-3.32,1.47-5.04,1.67-2.48.28-5.02.05-7.53.04,1.77-.41,3.52-1.04,5.3-1.18,2.38-.19,4.69-.24,6.04-2.66.84-1.24,1.67-2.48,2.51-3.72,1.33-2.72,2.66-5.44,3.98-8.16,1.81.51,2.7,1.51,2.48,3.57-.09.85.65,1.79,1.02,2.69.09.18.12.37.09.56-.27.38-.54.77-.81,1.15-.16.69-.33,1.37-.49,2.06-.7.67-1.41,1.34-2.7,2.57,1.91,0,3,0,4.09,0Z"/>
          <path class="cls-17" d="m249.28,73.58c.17.55.35,1.11.52,1.66-.45.8-.89,1.59-1.34,2.39-.19.67-.56,1.35-.52,2,.05.86.42,1.7.66,2.55-1.26.4-2.53.81-3.79,1.21-.18-.49-.36-.98-.54-1.47-.28-1.4-.56-2.8-.83-4.2.49-.59.97-1.18,1.46-1.77,1.33-1.03,1.68-3.88,4.39-2.37Z"/>
          <path class="cls-22" d="m254.27,74.49c1,.12,1.99.24,2.99.35.01.56.03,1.12.04,1.68-.65.79-1.31,1.58-1.96,2.37-.39.02-.78.05-1.18.07-.04-1.28,1.71-3.24-1.28-3.41.46-.35.92-.71,1.39-1.06Z"/>
          <path class="cls-17" d="m252.89,75.55c2.99.17,1.24,2.13,1.28,3.41,0,0,0,.01,0,.01-1.05.03-2.09.07-3.14.1-.05-.17-.1-.34-.17-.51.29-.89.58-1.78.86-2.67.39-.12.78-.23,1.17-.35Z"/>
          <path class="cls-22" d="m249.28,73.58c-2.7-1.51-3.05,1.34-4.39,2.37-.02-1.26-.03-2.51-.05-3.77,1.39-.21,2.78-.43,4.17-.64.27.19.55.38.82.57-.18.49-.37.98-.55,1.46Z"/>
          <path class="cls-17" d="m249.77,71.84c.04-.35.08-.7.12-1.05,1.19.04,2.37.07,3.56.11,0,.55,0,1.1.01,1.65-1.23-.23-2.46-.47-3.7-.7Z"/>
          <path class="cls-22" d="m251.72,75.9c-.29.89-.58,1.78-.86,2.67-.8-.31-1.6-.62-2.4-.93.45-.8.89-1.59,1.34-2.39.64.22,1.28.44,1.92.66Z"/>
          <path class="cls-8" d="m146.12,82.8c.05.2.11.4.19.6-.08.8-.16,1.6-.24,2.41-.85.92-1.71,1.84-2.56,2.76-.8-1.49-1.61-2.98-2.41-4.47,1.68,1.23,2.43-.09,3.27-1.18.58-.04,1.17-.07,1.75-.11Z"/>
          <path class="cls-21" d="m144.37,82.91c-.84,1.09-1.6,2.41-3.27,1.18-.19-.23-.39-.45-.58-.68-.45-.4-.9-.8-1.36-1.21,0-.43.02-.87.03-1.3,1.66.05,3.32.1,4.97.15.07.62.14,1.23.21,1.85Z"/>
          <path class="cls-21" d="m143.51,88.57c.85-.92,1.71-1.84,2.56-2.76.22.66.45,1.32.67,1.98-1.08.26-2.15.52-3.23.78Z"/>
          <path class="cls-8" d="m139.16,82.21c.45.4.9.8,1.36,1.21-.45-.4-.9-.8-1.36-1.21Z"/>
          <path class="cls-13" d="m190.34,54.35c.64-.63,1.28-1.26,1.92-1.89-.64.63-1.28,1.26-1.92,1.89Z"/>
          <path class="cls-21" d="m149.93,125.27c0,.59,0,1.18,0,1.78-.61.44-1.23.89-1.84,1.33-.65.02-1.3.04-1.95.06-.43-.88-.86-1.75-1.29-2.63.46-.4.93-.8,1.39-1.2,1.23.22,2.46.44,3.68.66Z"/>
          <path class="cls-6" d="m149.93,125.27c-1.23-.22-2.46-.44-3.68-.66.41-.87.81-1.74,1.22-2.61,1.44.21,2.89.41,4.33.62.19.81.37,1.63.56,2.44-.81.07-1.62.14-2.43.21Z"/>
          <path class="cls-20" d="m249.83,70.18c-.08-.22-.16-.45-.25-.67.08-.4.16-.81.24-1.21.35-.46.7-.92,1.05-1.38.06-.18.13-.35.2-.52,2.57.52,2.2,2.05,1.28,3.76-.84,0-1.68.02-2.53.03Z"/>
          <path class="cls-8" d="m250.88,66.92c-.35.46-.7.92-1.05,1.38.35-.46.7-.92,1.05-1.38Z"/>
          <path class="cls-11" d="m180.87,87.9c-.64-1.72-1.28-3.44-1.93-5.16.39-.55.78-1.11,1.66-2.35h-4.71c-.17-.11-.36-.17-.56-.2-.27-.58-.54-1.17-.8-1.75-.41-1.48-.82-2.96-1.22-4.45,1.07-.62,2.14-1.23,3.21-1.85.24-.21.47-.43.71-.64.58-.03,1.16-.06,1.74-.1,2.14,2.61,1.71,3.24-3.67,4.96,2.53,3.37,9.3,1.85,8.91,7.47,1.45.87,2.57,1.55,3.7,2.23.01.41.02.81.04,1.22-.12.4-.23.81-.35,1.21-2.19,0-4.38,0-6.58,0-.07-.2-.12-.4-.14-.6Z"/>
          <path class="cls-6" d="m169.59,70.88c-.44-1.44-1.1-2.87-1.22-4.34-.06-.75.85-1.58,1.32-2.37.58.64,1.31,1.19,1.69,1.93.41.8.49,1.77.71,2.66-.83.71-1.66,1.42-2.49,2.12Z"/>
          <path class="cls-8" d="m173.3,74c.41,1.48.82,2.96,1.22,4.45-.37,0-.75-.01-1.13-.02-.25-.01-.49-.02-.74-.03-.42-1.47-.85-2.94-1.27-4.41.64,0,1.28,0,1.91,0Z"/>
          <path class="cls-6" d="m173.33,70.83c.24.37.48.75.72,1.12-.24-.37-.48-.75-.72-1.12Z"/>
          <path class="cls-1" d="m175.87,86.57l2.72,2.77c-.13.4-.27.79-.4,1.19-2.47-.27-4.93-.54-7.4-.81,0-.61.01-1.23.02-1.84,1.69-.44,3.37-.87,5.06-1.31Z"/>
          <path class="cls-6" d="m173.4,78.43c.38,0,.75,0,1.13.02.27.58.54,1.17.8,1.75-.08.09-.17.18-.25.27-.99.46-2.5.69-2.84,1.44-.61,1.35-.51,3.02-.7,4.56-.46.07-.93.15-1.39.22,0,0-.03-.03-.03-.03.02-.85.04-1.71.05-2.56.05-.18.09-.37.1-.56.2-1.27.4-2.54.6-3.8.18-.02.37-.05.55-.09.66-.4,1.33-.8,1.99-1.21Z"/>
          <path class="cls-13" d="m170.14,86.68c.46-.07.93-.15,1.39-.22.56-.01,1.13-.02,1.69-.04l2.01-1.06c.21.4.42.81.63,1.21-1.69.44-3.37.87-5.06,1.31-.22-.4-.44-.8-.67-1.2Z"/>
          <path class="cls-13" d="m170.86,79.73c-.2,1.27-.4,2.53-.6,3.8-.44-1.27-.87-2.54-1.31-3.81.64,0,1.27,0,1.91,0Z"/>
          <path class="cls-13" d="m170.16,84.09c-.02.85-.04,1.71-.05,2.56-1.74-.89-1.73-1.75.05-2.56Z"/>
          <path class="cls-1" d="m146.14,128.43c.65-.02,1.3-.04,1.95-.06.86.59,1.72,1.18,2.58,1.77-1.5-.35-3.01-.71-4.51-1.06,0-.22,0-.44-.01-.65Z"/>
          <path class="cls-8" d="m150.67,130.14c-.86-.59-1.72-1.18-2.58-1.77.61-.44,1.23-.89,1.84-1.33.65.48,1.31.97,1.96,1.45-.05.55-.1,1.1-.15,1.65-.36,0-.71,0-1.07,0Z"/>
          <path class="cls-13" d="m173.4,78.43c-.66.4-1.33.8-1.99,1.21.42-.41.83-.82,1.25-1.24.25.01.49.02.74.03Z"/>
          <path class="cls-1" d="m249.83,70.18c.84,0,1.68-.02,2.53-.03.37.04.75.08,1.12.12.07.21.07.41-.02.62-1.19-.03-2.38-.07-3.56-.11-.05-.2-.07-.4-.06-.6Z"/>
          <path class="cls-5" d="m251.08,177.62c.84.64,1.68,1.28,2.52,1.92-.42,7.03-.93,14.06-1.21,21.1-.1,2.38.35,4.78.59,7.17.24,2.39-.65,3.4-3.19,3.37-9.04-.11-18.08-.1-27.12,0-2.4.03-3.19-1.08-3.19-3.22,0-3.57,0-7.15,0-10.72,0,0,0,0,0,0,2-1.83,1.81-2.95-.63-3.8,0-1.47,0-2.94,0-4.41.63-.71,1.73-1.39,1.8-2.15.23-2.56-.03-5.17.17-7.74.06-.74.99-1.99,1.56-2.02,4.08-.17,8.47-1.01,12.2.15,5.03,1.57,9.92.49,14.84.96.53.05,1.12-.39,1.68-.61Z"/>
          <path class="cls-16" d="m255.32,180.78c0,.54,0,1.08,0,1.62,0-.54,0-1.08,0-1.62Z"/>
          <path class="cls-16" d="m255.2,178.87c.03.25.05.5.08.76-.16-.03-.33-.06-.49-.09.14-.22.28-.44.41-.67Z"/>
          <path class="cls-10" d="m218.84,193.44c2.44.85,2.62,1.97.63,3.8l-.63-3.8Z"/>
          <path class="cls-6" d="m209.36,135.93h-4.09c1.3-1.24,2-1.9,2.7-2.57,1.11.65,2.21,1.83,3.34,1.86,9.01.17,18.03.13,27.05.15-.02.21-.05.42-.07.63-9.64-.02-19.29-.04-28.93-.06Z"/>
          <path class="cls-13" d="m208.46,131.3c.27-.38.54-.77.81-1.15.02.44.03.88.05,1.33-.29-.06-.57-.12-.86-.17Z"/>
          <path class="cls-8" d="m238.56,137.83c-.06-.62-.11-1.25-.17-1.87.06.62.11,1.25.17,1.87Z"/>
          <path class="cls-8" d="m238.6,140.38c0-.23-.01-.46-.02-.69.07.16.16.31.19.48.01.06-.11.14-.17.21Z"/>
          <path class="cls-20" d="m210.05,127.1c.2-.42.4-.85.6-1.27-.2.42-.4.85-.6,1.27Z"/>
          <path class="cls-13" d="m212.49,120.65c-.19.7-.37,1.41-.56,2.11-.25-4.02-.5-8.03-.75-12.05.21-.24.42-.48.63-.72.2,2.95.41,5.9.61,8.84.02.6.04,1.21.06,1.81Z"/>
          <path class="cls-8" d="m211.82,109.99c-.21.24-.42.48-.63.72,0,0-.3-.05-.3-.05,0,0-.3,0-.3,0-.42-.42-.84-.84-1.25-1.27.59-.24,1.18-.48,1.77-.73.28.27.57.53.85.8-.05.17-.1.35-.14.52Z"/>
          <path class="cls-6" d="m179.3,25.05c.05.18.17.39.11.5-.07.13-.3.16-.46.23-.04-.16-.16-.36-.1-.45.08-.13.3-.19.46-.28Z"/>
          <path class="cls-16" d="m244.27,81.92c.18.49.36.98.54,1.47.99.47,1.98.95,2.97,1.42.06.39.12.78.18,1.16-.18.69-.35,1.38-.53,2.07-.44-.09-.89-.19-1.33-.28-.25.03-.51.05-.76.08-.59.04-1.18.08-1.76.11-.05.83-.1,1.67-.15,2.5.86.41,1.72.82,2.58,1.22.4.71.81,1.42,1.21,2.13-2.15.52-4.06,1.23-5.04,3.59-.41,1-1.63,1.66-2.48,2.48-1.26,3.68-.82,4.33,2.73,4.43,1.2.03,2.39.34,3.59.52-1.68.27-3.37.53-5.05.8-1.44-.31-3.3,2.11-4.36-.68.6-2.09,1.28-4.16,1.7-6.28.07-.34-.94-1.12-1.57-1.34-1.93-.66-3.92-1.15-5.88-1.7,1.75-1.26,1.79-2.5-.05-3.72,2.51-1.55,5.02-3.11,6.85-4.24-.18-2.54-.33-4.63-.48-6.71.4,0,.79,0,1.19,0,.14,1.97-.24,4.39,3.1,3.62.94-.88,1.87-1.76,2.81-2.64Zm-3.52,7.22c-2.66,1.56-4.74,2.79-7.15,4.21,2.81.97,4.93,1.7,7.15,2.47v-6.68Z"/>
          <path class="cls-10" d="m240.96,105.63c1.68-.27,3.37-.53,5.05-.8.44-.04.87-.09,1.31-.13.39.01.78.03,1.16.04,1.97-1.65,1.76-3.57-.55-4.92-1.07-1.03-1.02-2.09-.08-3.17.61-.67,1.22-1.34,1.83-2.01-.63-.33-1.26-.65-1.89-.98l-.48-2.21c.03-1.15.06-2.31.09-3.46,2.29-.34,4.83-.26,5.46-3.33,0,0,.02-.03.02-.03.2-.4.4-.81.61-1.21.23-.22.45-.43.68-.65,3.23-.43,1.31-2.43,1.17-3.88.65-.79,1.31-1.58,1.96-2.37.51.04,1.01.09,1.69.15-.6,2.2-1.04,4.29-1.75,6.28-.72,2.04-1.45,4.01-4.05,4.74-.95.27-1.98,2.16-2.01,3.33-.05,2.3,1.29,4.79.75,6.87-.62,2.4-.16,4.48-.14,6.72.01,1.23-1,2.95-3.49,3.07-2.1.1-4.15.87-6.13-.26-.56-.32-.82-1.18-1.22-1.79Z"/>
          <path class="cls-22" d="m230.8,91.91c1.84,1.22,1.8,2.46.05,3.72-2.65,1.25-5.34,2.41-7.92,3.79-1.06.57-1.88,1.59-2.8,2.4-.23-.69-.45-1.39-.68-2.08.21-.41.31-1,.65-1.21,3.55-2.24,7.13-4.42,10.71-6.61Z"/>
          <path class="cls-22" d="m211.96,109.47c-.28-.27-.57-.53-.85-.8-.14-1.26-.27-2.52-.41-3.78,1.04-.17,2.08-.34,3.12-.5.22.04.44.07.67.11.61,1.2,1.21,2.4,1.82,3.6-.81,1.5-1.63,2.99-2.44,4.49-.63-1.04-1.27-2.08-1.9-3.12Z"/>
          <path class="cls-17" d="m216.3,108.1c-.61-1.2-1.21-2.4-1.82-3.6.64-.67,1.29-1.35,1.93-2.02,1.01-.91,2.02-1.83,3.03-2.74.23.69.45,1.39.68,2.08-1.27,2.09-2.55,4.19-3.82,6.28Z"/>
          <path class="cls-12" d="m211.96,109.47c.63,1.04,1.27,2.08,1.9,3.12.02.62.04,1.24.06,1.87,0,0-.2-.04-.2-.04-.24.82-.48,1.63-.73,2.45-.19.65-.37,1.31-.56,1.96-.2-2.95-.41-5.9-.61-8.84.04-.18.08-.35.14-.52Z"/>
          <path class="cls-8" d="m212.43,118.84c.19-.65.37-1.31.56-1.96.07.27.14.54.21.8-.23.99-.47,1.98-.7,2.97-.02-.61-.04-1.21-.06-1.81Z"/>
          <path class="cls-22" d="m213.19,117.68c-.07-.27-.14-.53-.21-.8.24-.82.48-1.64.73-2.45-.17,1.09-.35,2.17-.52,3.26Z"/>
          <path class="cls-11" d="m166.37,104.96c.7-.1,1.86.01,2.03-.34,1.58-3.34,5.25-1.82,7.55-3.38-.29,1.33-.57,2.65-.85,3.98-.69,0-1.38.02-2.08.03-.53.11-1.06.22-1.59.34h0c-.22.19-.44.37-.65.56-.22.23-.44.47-.66.7-1.78.44-3.7,1.13-3.74-1.89Z"/>
          <path class="cls-11" d="m177.66,101.24c2.32-.27,4.09.38,5.25,2.64.48.94,1.6,1.54,2.43,2.3-1.26,0-2.52.02-3.79.03-1.03-.45-2.07-.9-3.1-1.35-.26-1.21-.52-2.41-.79-3.62Z"/>
          <path class="cls-1" d="m166.37,104.96c.04,3.02,1.96,2.32,3.74,1.89.03.62.06,1.24.09,1.86-.37.18-.79.59-1.09.51-1.12-.29-2.19-.73-3.28-1.12-.87-1.01-1.73-2.02-2.6-3.04-.64-.23-1.28-.47-1.91-.7,0-.64-.01-1.28-.02-1.92,0,0,.03-.03.03-.03,1.68.85,3.36,1.7,5.04,2.55Z"/>
          <path class="cls-8" d="m181.55,106.21c1.26,0,2.52-.02,3.79-.03.19.05.39.07.59.07.02.41.05.82.07,1.22,0,.79,0,1.58-.01,2.37-1.25.46-2.51.92-3.76,1.38-.24-1.03-.48-2.06-.72-3.09.01-.65.03-1.29.04-1.94Z"/>
          <path class="cls-13" d="m177.66,101.24c.26,1.21.52,2.41.79,3.62-1.1.18-2.2.37-3.3.55l-.05-.19c.28-1.33.57-2.65.85-3.98.57,0,1.14,0,1.71,0Z"/>
          <path class="cls-19" d="m161.32,104.36c.64.23,1.28.47,1.91.7-.84.38-1.67.77-2.51,1.15l-3.15.14c-.44.18-.87.36-1.31.53-.42,0-.83-.01-1.25-.02-3.78-.18-.71-1.92-.68-2.97.46-.03.91-.05,1.37-.08.59-.01,1.18-.02,1.77-.04l3.84.59Z"/>
          <path class="cls-21" d="m160.09,113.72c-.14-.28-.28-.57-.42-.85-.26-.35-.53-.71-.79-1.07-.67-1.44-1.34-2.88-2.01-4.32,0,0,.28,0,.28,0,0,0,.28,0,.28,0,.65.43,1.3.85,1.96,1.28.96,1.47,1.93,2.94,2.89,4.42,1.3-.88,2.03-1.38,2.76-1.88-.81,1.26-1.63,2.52-2.44,3.78-.62-.03-1.23-.05-1.85-.08-.03-.18-.06-.37-.09-.55-.18-.24-.37-.49-.55-.73Z"/>
          <path class="cls-20" d="m157.42,107.49h-.28s-.28,0-.28,0c-.2-.2-.39-.41-.59-.61.44-.18.87-.35,1.31-.53-.05.38-.11.76-.16,1.15Z"/>
          <path class="cls-13" d="m158.88,111.81c.26.36.53.71.79,1.07-.28.09-.57.18-.85.28.02-.45.04-.9.06-1.34Z"/>
          <path class="cls-19" d="m154.39,108.06c.16-.18.32-.36.49-.54-.16.18-.32.36-.49.54Z"/>
          <path class="cls-19" d="m153.1,108.64c.24-.17.49-.33.73-.49-.24.17-.49.33-.73.49Z"/>
          <path class="cls-19" d="m149.92,96.84c.43,0,.87.01,1.3.02.43-.24.86-.47,1.29-.71.18-.05.35-.12.51-.2,2.03,1.25.47,2.66.19,4.02-.07.2-.15.39-.23.58-1.46,1.24-1.85,4.16-4.8,3.1-.07-.42-.13-.83-.2-1.25.23-.63.46-1.26.69-1.88.42-1.23.83-2.46,1.25-3.68Z"/>
          <path class="cls-13" d="m152.98,100.56c.09-.19.16-.39.23-.58,1.22.39,2.45.78,3.67,1.17,1.47.43,2.95.86,4.42,1.3,0,.64.01,1.28.02,1.92-1.28-.2-2.56-.39-3.84-.59-.59.01-1.18.02-1.77.04-.46.03-.91.05-1.37.08-.45-1.11-.91-2.22-1.36-3.33Z"/>
          <path class="cls-6" d="m152.51,96.15c-.43.23-.86.47-1.29.71.43-.23.86-.47,1.29-.71Z"/>
          <path class="cls-3" d="m203.04,72.1c.42,1.09,1,2.15,1.2,3.28.21,1.19.05,2.44.05,3.66-.35,2.06-.6,4.15-1.06,6.19-.45,1.97.68,2.05,2.06,2.03,1.35-.02,2.69,0,4.04-.01-.21.45-.41.9-.62,1.35-1.28.38-2.55.76-3.83,1.14-.46.22-.91.45-1.37.67-.74-2.16-2.71-4.96-1.98-6.37,2.04-3.97,1.23-7.95,1.51-11.93Z"/>
          <path class="cls-2" d="m211.56,85.38c.94-.85,1.86-2.9,2.88-.06-.43,1.52-.83,3.05-1.3,4.56-.33,1.05-.75,2.06-1.13,3.09-.24-.21-.48-.42-.72-.64l.09-.62c.12-1.99.24-3.98.36-5.97-.09-.11-.14-.23-.17-.36Z"/>
          <path class="cls-2" d="m211.94,72.8c2.58,1.86.92,4.09.54,6.21-.18-2.07-.36-4.14-.54-6.21Z"/>
          <path class="cls-20" d="m208.71,88.59c.21-.45.41-.9.62-1.35.58-.46,1.16-.91,1.74-1.37-.07.35-.15.7-.22,1.05v.03c.06.32.13.65.19.97-.59.62-1.18,1.25-1.78,1.87-.19-.4-.37-.8-.56-1.2Z"/>
          <path class="cls-16" d="m210.85,86.93c.07-.35.15-.7.22-1.05.22-.04.44-.09.66-.13-.12,1.99-.24,3.98-.36,5.97-.11-1.26-.22-2.52-.33-3.78-.06-.32-.13-.65-.19-.97,0,0,0-.03,0-.03Z"/>
          <path class="cls-11" d="m208.09,64.53c0,.41.01.81.02,1.22-.43-.41-.86-.83-1.29-1.24,0,0,.13-.13.13-.13.38.05.76.1,1.14.15Z"/>
          <path class="cls-5" d="m219.44,99.74c-1.01.91-2.02,1.83-3.03,2.74-.67-.79-1.91-1.58-1.91-2.36.02-5.1-.87-10.29,1.21-15.23,0,0-.05-.28-.05-.28.61-.01,1.22-.03,1.83-.04.73-.6,1.45-1.19,2.18-1.79.35-.6,1.04-1.24.99-1.81-.3-3.59,1.39-5.06,4.83-5.18.53-.02,1.03-1.13,1.54-1.73.63-.24,1.27-.47,1.9-.71,4.03-.43,8.07-.83,12.1-1.35.44-.06.79-.75,1.18-1.15.42,0,.83,0,1.25,0,0,1.04.23,2.15-.08,3.09-.24.75-1.15,1.84-1.73,1.82-3.79-.14-4.36,2.28-4.49,5.18.15,2.08.3,4.17.48,6.71-1.83,1.13-4.34,2.69-6.85,4.24-3.58,2.19-7.16,4.37-10.71,6.61-.34.21-.44.8-.65,1.21Z"/>
          <path class="cls-10" d="m227.04,74.06c-.51.6-1.01,1.71-1.54,1.73-3.44.12-5.14,1.6-4.83,5.18.05.57-.64,1.2-.99,1.81-1.07-1-2.15-1.99-3.26-3.02,2.84-2.89,4.32-7.95,10.05-6.22.19.17.38.35.57.52Z"/>
          <path class="cls-10" d="m215.72,84.89c-2.08,4.93-1.19,10.13-1.21,15.23,0,.78,1.24,1.58,1.91,2.36-.64.67-1.29,1.35-1.93,2.02-.22-.04-.44-.07-.67-.11-.22-2.66-.36-5.33-.7-7.98-.12-.97-.71-1.89-1.09-2.83-.09-.23-.17-.46-.25-.69,0,0,.24.07.24.07.38-1.03.81-2.04,1.13-3.09.47-1.51.87-3.04,1.3-4.56.43-.14.86-.29,1.28-.43Z"/>
          <path class="cls-16" d="m220.05,72.4c-1.67,1.88-2.79,3.14-4.12,4.63-1.02-2.33-1.8-4.13-2.84-6.52,2.21.6,4.24,1.15,6.96,1.88Z"/>
          <path class="cls-17" d="m217.5,84.58c-.61.01-1.22.03-1.83.04-.3-2.44.69-2.91,2.92-1.86-.41.69-.75,1.25-1.09,1.82Z"/>
          <path class="cls-8" d="m208.09,64.53c-.38-.05-.76-.1-1.14-.15,0-.4-.02-.81-.03-1.21,1.26.09,2.53.18,3.79.27-.87.37-1.75.73-2.62,1.09Z"/>
          <path class="cls-11" d="m194.22,80.26c.62,1.9,1.23,3.81,1.85,5.71-1.42.84-2.84,1.68-4.25,2.52-.29-.39-.57-.77-.85-1.16h-.03c-.39-.5-.79-1-1.18-1.49.43-.78.76-1.66,1.32-2.33.97-1.15,2.09-2.17,3.15-3.24Z"/>
          <path class="cls-11" d="m182.9,70.66c2.51.45,5.01.91,7.52,1.36.41.01.82.03,1.23.05.02.62.04,1.25.06,1.87-3.21-.34-6.36-.87-8.8-3.28Z"/>
          <path class="cls-8" d="m189.75,85.83c.39.5.79.99,1.18,1.49-1,0-2-.02-3-.03-.01-.41-.02-.82-.04-1.22.62-.08,1.24-.16,1.85-.24Z"/>
          <path class="cls-1" d="m191.81,88.49c1.42-.84,2.84-1.68,4.25-2.52.22,1.48.43,2.96.65,4.45-.05.62-.11,1.24-.16,1.86-1,.65-2,1.3-3.01,1.95-.86-.2-1.72-.4-2.58-.6.02-.86.04-1.71.06-2.57.2-.63.41-1.26.61-1.88.06-.23.11-.45.17-.68Z"/>
          <path class="cls-6" d="m175.89,67.69c0-.64-.02-1.29-.03-1.93.6.4,1.2.81,1.8,1.21-.59.24-1.18.48-1.77.72Z"/>
          <path class="cls-1" d="m210.69,104.9c.14,1.26.27,2.52.41,3.78-.59.24-1.18.48-1.77.73,0,0-.31-.03-.31-.03,0,0-.31,0-.31,0-1.05-1.7-2.1-3.39-3.15-5.09-.2-1-.7-2.05-.54-2.99.27-1.56.49-3.74,3.1-2.14.79.47,1.59.94,2.38,1.42.06,1.44.13,2.88.19,4.32Z"/>
          <path class="cls-6" d="m208.13,99.16c-2.61-1.6-2.83.58-3.1,2.14-.16.94.34,1.99.54,2.99-.41-.2-.81-.41-1.22-.61,0-1.43,0-2.86,0-4.34-3.31.96-3.95.35-4.34-3.95.72.81,1.44,1.63,2.61,2.95.7-1.56,1.26-2.81,1.82-4.05.13-.83.26-1.65.39-2.48l.05-2.07c1.28-.38,2.55-.76,3.83-1.14.19.4.37.8.56,1.2.05.92.1,1.84.15,2.75-.43,2.2-.86,4.41-1.3,6.61Z"/>
          <path class="cls-19" d="m200,95.38c.4,4.29,1.04,4.91,4.34,3.95,0,1.48,0,2.91,0,4.34-.88,0-1.75,0-2.63-.01-.82-.83-1.65-1.66-2.47-2.49,0,0-.01-.02-.01-.02-.44-.59-.88-1.18-1.32-1.78-.43-.17-.86-.35-1.29-.52v-.15c0-1.51,0-3.02.01-4.53.06-.21.11-.41.17-.62,1,0,2,0,3,0,.07.61.13,1.22.2,1.83Z"/>
          <path class="cls-1" d="m185.98,109.84c0-.79,0-1.58.01-2.37,2.52,0,5.03.03,7.55-.02,1.65-.03,3.23-.26,3.19-2.51,1.04.81,2.07,1.61,3.11,2.42-.24.22-.47.44-.71.66-3.54.43-7.08.86-10.62,1.29-.46.14-.92.28-1.39.41-.38.04-.75.07-1.13.11Z"/>
          <path class="cls-8" d="m199.83,107.37c-1.04-.81-2.07-1.61-3.11-2.42,0-.41.02-.82.02-1.23.38-1.04.76-2.08,1.14-3.12l.11-.09c.41.21.82.43,1.23.64,0,0,.01.02.01.02.45,1.7.91,3.4,1.36,5.1-.26.37-.52.73-.77,1.1Z"/>
          <path class="cls-6" d="m200.61,106.27c-.45-1.7-.91-3.4-1.36-5.1.82.83,1.65,1.66,2.47,2.49-.37.87-.74,1.74-1.11,2.61Z"/>
          <path class="cls-19" d="m181.5,108.14c.24,1.03.48,2.06.72,3.09,0,.25,0,.5.01.75-.65.39-1.3.79-1.96,1.18,0-.74.11-1.49-.02-2.2-.22-1.26.9-3.36-1.53-3.4-2.07-.03-4.91-1.22-5.44,2.43-.58-.22-1.16-.44-1.74-.67l-.05-.04c.42-1.13.84-2.27,1.25-3.4.09-.21.18-.42.27-.63.69-.01,1.38-.02,2.07-.03,0,0,.05.19.05.19.82.27,1.67.47,2.45.82,1.32.59,2.61,1.27,3.91,1.91Z"/>
          <path class="cls-8" d="m187.11,109.74c.46-.14.92-.28,1.39-.41-.46.14-.92.28-1.39.41Z"/>
          <path class="cls-18" d="m173.29,109.98c.53-3.65,3.37-2.46,5.44-2.43,2.43.04,1.31,2.13,1.53,3.4.13.71.02,1.47.02,2.2-.86.22-1.72.45-2.58.67-1.43-.02-2.86-.04-4.29-.06-.04-1.26-.08-2.52-.12-3.78Z"/>
          <path class="cls-21" d="m173.42,113.76c1.43.02,2.86.04,4.29.06-.44.37-.88.74-1.33,1.1-1.01.27-2.03.53-3.04.8-.23-.23-.45-.46-.68-.69,0,0,.09.04.09.04.22-.44.44-.88.66-1.32Z"/>
          <path class="cls-10" d="m237.17,80.96c.13-2.9.7-5.33,4.49-5.18.58.02,1.49-1.08,1.73-1.82.3-.94.07-2.05.08-3.09.46.44.92.88,1.37,1.32.02,1.26.03,2.51.05,3.77-.49.59-.97,1.18-1.46,1.77-1.06.49-2.13.98-3.19,1.46l-1.88,1.76c-.4,0-.79,0-1.19,0Z"/>
          <path class="cls-10" d="m242.23,70.86c-.39.4-.75,1.1-1.18,1.15-4.02.51-8.06.91-12.1,1.35.16-1.97,1.26-2.62,3.19-2.55,3.36.12,6.73.05,10.09.06Z"/>
          <path class="cls-6" d="m196.64,94.18c0,1.51,0,3.02-.01,4.53-.8-.06-1.6-.12-2.4-.17-3.17-1.44-6.35-2.88-9.52-4.33-.84-.44-1.67-.88-2.51-1.32.63-.63,1.26-1.25,1.89-1.88,1.46.41,2.92.82,4.39,1.23.83.46,1.66.92,2.49,1.38.86.2,1.72.4,2.58.6,1.03-.02,2.06-.03,3.09-.05Z"/>
          <path class="cls-1" d="m182.2,92.89c.84.44,1.67.88,2.51,1.32-3.41,1.61-6.11-.15-8.83-1.84,1.27-.24,2.54-.47,3.81-.71.84.41,1.67.82,2.51,1.23Z"/>
          <path class="cls-1" d="m194.23,98.53c.8.06,1.6.11,2.4.17,0,0,0,.15,0,.15.42.58.84,1.17,1.26,1.75-.38,1.04-.76,2.08-1.14,3.12-.84-1.73-1.68-3.46-2.52-5.19Z"/>
          <path class="cls-1" d="m168.91,96.11c.54-1.3,1.09-2.6,1.71-4.09.99.1,2.16.22,3.33.34-1.68,1.25-3.36,2.5-5.04,3.75Z"/>
          <path class="cls-21" d="m175.89,80.39h4.71c-.88,1.24-1.27,1.79-1.66,2.35-.58.81-1.16,1.63-1.73,2.43-.44-.12-1.2-.31-1.96-.51,0,0-.03-.15-.03-.15,1.06-1.15.74-2.3,0-3.46l.66-.66Z"/>
          <path class="cls-20" d="m182.2,92.89c-.84-.41-1.67-.82-2.51-1.23.16-.42.31-.83.47-1.25.47-.23.93-.47,1.39-.7.85.43,1.69.87,2.54,1.3-.63.63-1.26,1.25-1.89,1.88Z"/>
          <path class="cls-6" d="m181.55,89.7c-.46.23-.93.47-1.39.7.24-.84.47-1.67.71-2.51.02.21.07.41.14.6.18.4.36.8.55,1.2Z"/>
          <path class="cls-6" d="m175.23,85.37c-.67.35-1.34.71-2.01,1.06.67-.64,1.34-1.28,2-1.92,0,0,.03.15.03.15,0,.24-.02.47-.03.71Z"/>
          <path class="cls-18" d="m152.36,125.06c-.19-.81-.37-1.63-.56-2.44-.48-.6-.97-1.2-1.56-1.93.89-.59,1.92-1.21,2.88-1.92,2.62-1.92,3.33-1.67,4.47,1.43.23.61,1.07.99,1.29,1.6.46,1.26.7,2.6,1.02,3.9-1.11.04-2.22.1-3.33.12-.85.02-1.71.09-2.54-.03-.59-.09-1.13-.48-1.69-.73Z"/>
          <path class="cls-9" d="m187.85,139.04c2.51.01,5.05.25,7.53-.04,1.72-.2,3.34-1.15,5.04-1.67,1.03-.31,2.15-.67,3.19-.58,1.9.18,3.76.97,5.65,1.01,7.12.13,14.24-.02,21.35.12,1.77.04,3.52.79,5.28,1.21.24,1.47.47,2.95.71,4.42-.23.97-.63,1.95-.65,2.92-.07,4.94-.02,9.88-.04,14.82-.01,3.66-.73,4.36-4.48,4.37-4.83.02-9.67.02-14.5.04-1.25,0-2.51,0-3.76,0-1.26.41-2.53.83-3.79,1.24,0,0,0,0,0,0-.43,1.08-1.11,2.14-1.24,3.26-.35,3.11-.46,6.24-.67,9.37.05,1.54-.24,3.21.24,4.61.8,2.33,0,3.3-2.16,3.69-1.07-.24-2.14-.66-3.22-.67-5.24-.07-10.49-.03-15.74-.03,0,0,0,0,0,0,.76-16.01-1.51-32.1,1.24-48.06l.02-.03Z"/>
          <path class="cls-18" d="m187.82,139.07c-2.75,15.96-.48,32.05-1.24,48.06-.42-.81-1.2-1.62-1.2-2.44-.08-13.94-.12-27.88.05-41.82.02-1.28,1.56-2.53,2.39-3.8Z"/>
          <path class="cls-18" d="m216.92,165.67c4.83-.01,9.67-.01,14.5-.04,3.74-.02,4.46-.71,4.48-4.37.02-4.94-.03-9.88.04-14.82.01-.98.42-1.95.65-2.92.19,1.1.55,2.19.56,3.29.06,5.46,0,10.93.03,16.39.01,2.26-.95,3.65-3.29,3.67-5.04.06-10.09.06-15.13-.03-.62-.01-1.23-.76-1.84-1.17Z"/>
          <path class="cls-18" d="m186.59,187.14c5.25,0,10.49-.04,15.74.03,1.08.01,2.15.44,3.22.67-3.41.19-6.81.41-10.22.54-2.09.08-4.21.13-6.29-.04-.84-.07-1.63-.78-2.44-1.2Z"/>
          <path class="cls-18" d="m207.46,179.54c.21-3.12.32-6.26.67-9.37.12-1.12.81-2.17,1.24-3.26,0,3.41-.03,6.82,0,10.24.01,1.36-.06,2.55-1.91,2.39Z"/>
          <path class="cls-18" d="m209.37,166.91c1.26-.42,2.53-.83,3.79-1.24-1.26.42-2.53.83-3.79,1.24Z"/>
          <path class="cls-1" d="m200,95.38c-.07-.61-.13-1.22-.2-1.83.64-7.57,1.29-15.13,1.93-22.7.44.41.87.83,1.31,1.24-.28,3.98.53,7.96-1.51,11.93-.72,1.41,1.24,4.21,1.98,6.37.03.46.06.92.09,1.38l.84,2.51c-.56,1.25-1.12,2.49-1.82,4.05-1.17-1.33-1.89-2.14-2.61-2.95Z"/>
          <path class="cls-13" d="m196.64,94.18c-1.03.02-2.06.03-3.09.05,1-.65,2-1.3,3.01-1.95.08.43.17.86.25,1.28-.06.2-.11.41-.17.62Z"/>
          <path class="cls-6" d="m144.37,82.91c-.07-.62-.14-1.23-.21-1.85.66-.25,1.32-.5,1.98-.76,0,.83-.01,1.67-.02,2.5-.58.04-1.17.07-1.75.11Z"/>
          <path class="cls-18" d="m165.02,111.3c-.73.5-1.46,1-2.76,1.88-.96-1.47-1.93-2.94-2.89-4.42.45-.85.9-1.71,1.35-2.56.84-.38,1.67-.77,2.51-1.15.87,1.01,1.73,2.02,2.6,3.04.02.46.04.92.06,1.38l-.87,1.83Z"/>
          <path class="cls-13" d="m165.89,109.47c-.02-.46-.04-.92-.06-1.38,1.09.39,2.17.83,3.28,1.12.3.08.72-.33,1.09-.51.43.19.86.38,1.29.58,0,0,.05.04.05.04-.46,1.07-.93,2.15-1.39,3.22-1.42-1.02-2.84-2.05-4.26-3.07Z"/>
          <path class="cls-6" d="m170.16,112.54c.46-1.07.93-2.15,1.39-3.22.58.22,1.16.44,1.74.66.04,1.26.08,2.52.12,3.78-.22.44-.44.88-.66,1.32-.46-.63-.92-1.25-1.38-1.88-.21-.18-.41-.36-.62-.55-.2-.03-.4-.07-.6-.12Z"/>
          <path class="cls-13" d="m160.73,115c.62.03,1.23.05,1.85.08-.38.37-.77.75-1.15,1.12-.23-.4-.47-.8-.7-1.21Z"/>
          <path class="cls-13" d="m160.09,113.72c.19.24.37.49.55.73-.19-.24-.37-.49-.55-.73Z"/>
          <path class="cls-13" d="m170.75,112.66c.21.18.41.36.62.55-.21-.18-.41-.36-.62-.55Z"/>
          <path class="cls-16" d="m255.35,78.89c.13,1.45,2.06,3.45-1.17,3.88-.39-.42-.8-1.22-1.17-1.2-1.49.06-2.96.37-4.44.58l.04.03c-.23-.85-.61-1.69-.66-2.55-.04-.65.33-1.33.52-2,.8.31,1.6.62,2.4.93.07.17.12.34.17.51,1.12,2.29,2.14,1.36,3.14-.1,0,0,0-.01,0-.01.39-.02.78-.05,1.18-.07Z"/>
          <path class="cls-22" d="m240.24,79.19c1.06-.49,2.13-.98,3.19-1.46.28,1.4.55,2.8.83,4.2-.94.88-1.87,1.76-2.81,2.64-.41-1.79-.81-3.59-1.22-5.38Z"/>
          <path class="cls-22" d="m247.78,84.82c-.99-.47-1.98-.95-2.97-1.42,1.26-.4,2.52-.81,3.79-1.21,0,0-.04-.03-.04-.03-.26.89-.52,1.77-.78,2.66Z"/>
          <path class="cls-22" d="m254.17,78.98c-1,1.47-2.02,2.39-3.14.1,1.05-.03,2.09-.07,3.14-.1Z"/>
          <path class="cls-1" d="m181.55,89.7c-.18-.4-.37-.8-.55-1.2,2.19,0,4.38,0,6.58,0,.32.83.64,1.66.95,2.49-.02.42-.04.83-.06,1.25-1.46-.41-2.92-.82-4.39-1.23-.85-.43-1.69-.87-2.54-1.3Z"/>
          <path class="cls-20" d="m188.54,91c-.32-.83-.64-1.66-.95-2.49.11-.4.23-.81.35-1.21,1,0,2,.02,3,.03,0,0,.03,0,.03,0,.23.61.46,1.23.68,1.84-.2.63-.41,1.26-.61,1.88-.83-.02-1.66-.04-2.49-.06Z"/>
          <path class="cls-6" d="m175.89,80.39c-.22.22-.44.44-.66.66-.03-.2-.08-.4-.15-.59.08-.09.17-.18.25-.27.2.02.39.09.56.2Z"/>
          <path class="cls-19" d="m175.07,80.46c.07.19.13.38.15.59.73,1.16,1.06,2.31,0,3.46-.67.64-1.34,1.28-2,1.92-.57.01-1.13.02-1.69.03.2-1.54.1-3.21.7-4.56.34-.75,1.86-.98,2.84-1.44Z"/>
          <path class="cls-10" d="m240.75,89.15v6.68c-2.22-.77-4.34-1.5-7.15-2.47,2.42-1.42,4.5-2.64,7.15-4.21Z"/>
          <path class="cls-17" d="m247.78,84.82c.26-.89.52-1.77.78-2.66,1.48-.22,2.96-.53,4.44-.58.37-.01.78.78,1.17,1.2-.23.22-.45.43-.68.65-.2.4-.4.81-.61,1.21,0,0-.02.03-.02.03-1.64.44-3.27.87-4.91,1.31-.06-.39-.12-.78-.18-1.16Z"/>
          <path class="cls-17" d="m247.41,88c-.03,1.15-.06,2.31-.09,3.46-.44.08-.88.16-1.32.24-.86-.41-1.72-.81-2.58-1.22.05-.84.1-1.67.15-2.5.59-.04,1.18-.08,1.76-.11.25-.03.51-.05.76-.08.44.09.89.19,1.33.28,0,0-.02-.05-.02-.05Z"/>
          <path class="cls-17" d="m240.24,79.19c.41,1.79.81,3.59,1.22,5.38-3.34.77-2.96-1.64-3.1-3.62.63-.59,1.25-1.18,1.88-1.76Z"/>
          <path class="cls-17" d="m239.7,99.88c-.23,2.53,1.26,3,3.4,3.23,1.45.16,2.82,1.03,4.23,1.59-.44.04-.87.09-1.31.13-1.2-.18-2.39-.49-3.59-.52-3.55-.09-3.99-.75-2.73-4.43Z"/>
          <path class="cls-22" d="m247.41,88s.02.05.02.05c.18-.69.35-1.38.53-2.07,1.64-.44,3.27-.87,4.91-1.31-.63,3.06-3.17,2.99-5.46,3.33Z"/>
          <path class="cls-22" d="m246,91.69c.44-.08.88-.16,1.32-.24.16.73.32,1.47.47,2.21-.21.2-.42.39-.63.59-.1-.15-.09-.3.04-.43-.4-.71-.81-1.42-1.21-2.13Z"/>
          <path class="cls-22" d="m243.57,87.96c-.05.83-.1,1.67-.15,2.5.05-.83.1-1.67.15-2.5Z"/>
          <path class="cls-22" d="m246.1,87.77c-.25.03-.51.05-.76.08.25-.03.51-.05.76-.08Z"/>
          <path class="cls-17" d="m247.17,94.25c.21-.2.42-.39.63-.59.63.33,1.26.65,1.89.98-.61.67-1.22,1.34-1.83,2.01-.23-.8-.45-1.6-.68-2.4Z"/>
          <path class="cls-17" d="m248.49,104.75c-.18-1.64-.36-3.28-.55-4.92,2.3,1.36,2.52,3.27.55,4.92Z"/>
          <path class="cls-22" d="m252.89,84.64c.2-.4.4-.81.61-1.21-.2.4-.4.81-.61,1.21Z"/>
          <path class="cls-2" d="m210.69,104.9c-.06-1.44-.13-2.88-.19-4.32.51-2.33,1.01-4.66,1.52-6.99.38.94.96,1.85,1.09,2.83.34,2.65.48,5.32.7,7.98-1.04.17-2.08.34-3.12.5Z"/>
          <path class="cls-6" d="m171.5,109.28c-.43-.19-.86-.38-1.29-.58-.03-.62-.06-1.24-.09-1.86.22-.23.44-.47.66-.7.22-.18.44-.37.65-.56,0,0,0,0,0,0,.44.1.88.2,1.32.3-.42,1.13-.84,2.27-1.25,3.4Z"/>
          <path class="cls-13" d="m172.75,105.88c-.44-.1-.88-.2-1.32-.3.53-.11,1.06-.23,1.59-.34-.09.21-.18.42-.27.63Z"/>
          <path class="cls-13" d="m171.43,105.59c-.22.19-.44.37-.65.56.22-.19.44-.37.65-.56Z"/>
          <path class="cls-6" d="m181.5,108.14c-1.3-.64-2.58-1.32-3.91-1.91-.78-.35-1.63-.56-2.45-.82,1.1-.18,2.2-.36,3.3-.55,1.03.45,2.07.9,3.1,1.35-.01.65-.03,1.29-.04,1.94Z"/>
          <path class="cls-8" d="m160.73,106.2c-.45.85-.9,1.71-1.35,2.56-.65-.43-1.3-.85-1.96-1.28.05-.38.11-.76.16-1.15,1.05-.04,2.1-.09,3.15-.14Z"/>
          <path class="cls-21" d="m155.71,103.8c.59-.01,1.18-.02,1.77-.04-.59.01-1.18.02-1.77.04Z"/>
          <path class="cls-20" d="m203.61,91.78c-.03-.46-.06-.92-.09-1.38.46-.22.91-.45,1.37-.67-.02.69-.03,1.38-.05,2.07-.41,0-.82-.02-1.23-.02Z"/>
          <path class="cls-13" d="m209.42,92.55c-.05-.92-.1-1.84-.15-2.75.59-.62,1.18-1.24,1.77-1.87.11,1.26.22,2.52.33,3.78-.03.21-.06.42-.09.62l-.06-.02c-.6.08-1.2.15-1.8.23Z"/>
          <path class="cls-6" d="m211.28,92.33c.24.21.48.43.72.64,0,0-.24-.07-.24-.07-.18-.19-.36-.39-.55-.58l.06.02Z"/>
          <path class="cls-13" d="m210.85,86.93s0,.03,0,.03c0,0,0-.03,0-.03Z"/>
          <path class="cls-20" d="m211.23,92.32c.18.19.36.39.55.58.08.23.17.46.25.69-.51,2.33-1.01,4.66-1.52,6.99-.79-.47-1.59-.94-2.38-1.42.43-2.21.86-4.41,1.3-6.61.6-.07,1.2-.15,1.8-.23Z"/>
          <path class="cls-8" d="m191.64,89.17c-.23-.61-.45-1.23-.68-1.84.28.39.57.77.85,1.16-.06.23-.11.45-.17.68Z"/>
          <path class="cls-8" d="m188.54,91c.83.02,1.66.04,2.49.06-.02.85-.04,1.71-.06,2.57-.83-.46-1.66-.92-2.49-1.38.02-.42.04-.83.06-1.25Z"/>
          <path class="cls-8" d="m203.61,91.78c.41,0,.82.02,1.23.02-.13.83-.26,1.66-.39,2.48-.28-.84-.56-1.67-.83-2.51Z"/>
          <path class="cls-8" d="m197.88,100.61c-.42-.58-.84-1.17-1.26-1.75.43.18.86.35,1.29.52.03.38.06.76.09,1.14l-.11.09Z"/>
          <path class="cls-6" d="m198,100.52c-.03-.38-.06-.76-.09-1.14.44.59.88,1.18,1.32,1.78-.41-.21-.82-.43-1.23-.64Z"/>
        </g>
      </g>
      <g>
        <path class="cls-14" d="m99.58,293.57v5.65h-14.55v8.95h11.15v5.55h-11.15v14.75h-7v-34.9h21.55Z"/>
        <path class="cls-14" d="m111.53,293.57v34.9h-7v-34.9h7Z"/>
        <path class="cls-14" d="m136.43,328.47l-7.7-13.6h-3.3v13.6h-7v-34.9h13.1c2.7,0,5,.48,6.9,1.42,1.9.95,3.32,2.23,4.27,3.85.95,1.62,1.42,3.42,1.42,5.42,0,2.3-.67,4.38-2,6.23-1.33,1.85-3.32,3.12-5.95,3.83l8.35,14.15h-8.1Zm-11-18.85h5.85c1.9,0,3.32-.46,4.25-1.38.93-.92,1.4-2.19,1.4-3.82s-.47-2.84-1.4-3.73c-.93-.88-2.35-1.33-4.25-1.33h-5.85v10.25Z"/>
        <path class="cls-14" d="m155.95,327.57c-1.95-.83-3.49-2.03-4.62-3.6-1.13-1.57-1.72-3.42-1.75-5.55h7.5c.1,1.43.61,2.57,1.53,3.4.92.83,2.17,1.25,3.77,1.25s2.92-.39,3.85-1.18c.93-.78,1.4-1.81,1.4-3.07,0-1.03-.32-1.88-.95-2.55-.63-.67-1.42-1.19-2.38-1.57-.95-.38-2.26-.81-3.92-1.27-2.27-.67-4.11-1.33-5.52-1.98-1.42-.65-2.63-1.63-3.65-2.95-1.02-1.32-1.52-3.07-1.52-5.27,0-2.07.52-3.87,1.55-5.4,1.03-1.53,2.48-2.71,4.35-3.52,1.87-.82,4-1.23,6.4-1.23,3.6,0,6.52.88,8.77,2.62s3.49,4.19,3.73,7.32h-7.7c-.07-1.2-.58-2.19-1.52-2.97-.95-.78-2.21-1.18-3.77-1.18-1.37,0-2.46.35-3.28,1.05-.82.7-1.22,1.72-1.22,3.05,0,.93.31,1.71.92,2.33.62.62,1.38,1.12,2.3,1.5.92.38,2.21.82,3.88,1.32,2.27.67,4.12,1.33,5.55,2,1.43.67,2.67,1.67,3.7,3,1.03,1.33,1.55,3.08,1.55,5.25,0,1.87-.48,3.6-1.45,5.2-.97,1.6-2.38,2.88-4.25,3.82-1.87.95-4.08,1.43-6.65,1.43-2.43,0-4.62-.42-6.58-1.25Z"/>
        <path class="cls-14" d="m204.68,293.57v5.65h-9.3v29.25h-7v-29.25h-9.3v-5.65h25.6Z"/>
        <path class="cls-14" d="m243.23,293.57v5.65h-14.55v8.95h11.15v5.55h-11.15v14.75h-7v-34.9h21.55Z"/>
        <path class="cls-14" d="m255.18,322.92h11.5v5.55h-18.5v-34.9h7v29.35Z"/>
        <path class="cls-14" d="m278.33,326.52c-2.73-1.53-4.9-3.66-6.5-6.38-1.6-2.72-2.4-5.79-2.4-9.22s.8-6.46,2.4-9.18c1.6-2.72,3.77-4.84,6.5-6.38,2.73-1.53,5.73-2.3,9-2.3s6.31.77,9.02,2.3c2.72,1.53,4.87,3.66,6.45,6.38,1.58,2.72,2.38,5.77,2.38,9.18s-.79,6.51-2.38,9.22c-1.58,2.72-3.74,4.84-6.48,6.38-2.73,1.53-5.73,2.3-9,2.3s-6.27-.77-9-2.3Zm14.55-5.38c1.6-.95,2.85-2.31,3.75-4.07.9-1.77,1.35-3.82,1.35-6.15s-.45-4.38-1.35-6.12c-.9-1.75-2.15-3.09-3.75-4.03-1.6-.93-3.45-1.4-5.55-1.4s-3.96.47-5.57,1.4c-1.62.93-2.88,2.28-3.78,4.03-.9,1.75-1.35,3.79-1.35,6.12s.45,4.38,1.35,6.15c.9,1.77,2.16,3.12,3.78,4.07,1.62.95,3.47,1.43,5.57,1.43s3.95-.48,5.55-1.43Z"/>
        <path class="cls-14" d="m317.58,326.52c-2.73-1.53-4.9-3.66-6.5-6.38-1.6-2.72-2.4-5.79-2.4-9.22s.8-6.46,2.4-9.18c1.6-2.72,3.77-4.84,6.5-6.38,2.73-1.53,5.73-2.3,9-2.3s6.31.77,9.02,2.3c2.72,1.53,4.87,3.66,6.45,6.38,1.58,2.72,2.38,5.77,2.38,9.18s-.79,6.51-2.38,9.22c-1.58,2.72-3.74,4.84-6.48,6.38-2.73,1.53-5.73,2.3-9,2.3s-6.27-.77-9-2.3Zm14.55-5.38c1.6-.95,2.85-2.31,3.75-4.07.9-1.77,1.35-3.82,1.35-6.15s-.45-4.38-1.35-6.12c-.9-1.75-2.15-3.09-3.75-4.03-1.6-.93-3.45-1.4-5.55-1.4s-3.96.47-5.57,1.4c-1.62.93-2.88,2.28-3.78,4.03-.9,1.75-1.35,3.79-1.35,6.12s.45,4.38,1.35,6.15c.9,1.77,2.16,3.12,3.78,4.07,1.62.95,3.47,1.43,5.57,1.43s3.95-.48,5.55-1.43Z"/>
        <path class="cls-14" d="m367.63,328.47l-7.7-13.6h-3.3v13.6h-7v-34.9h13.1c2.7,0,5,.48,6.9,1.42,1.9.95,3.32,2.23,4.27,3.85.95,1.62,1.42,3.42,1.42,5.42,0,2.3-.67,4.38-2,6.23-1.33,1.85-3.32,3.12-5.95,3.83l8.35,14.15h-8.1Zm-11-18.85h5.85c1.9,0,3.32-.46,4.25-1.38.93-.92,1.4-2.19,1.4-3.82s-.47-2.84-1.4-3.73c-.93-.88-2.35-1.33-4.25-1.33h-5.85v10.25Z"/>
      </g>
      <g>
        <path class="cls-14" d="m27.97,348.74v4.29H5.18v19.31h19.24v4.29H5.18v23.83H0v-51.73h27.97Z"/>
        <path class="cls-14" d="m46.69,397.62c-3.9-2.24-6.97-5.38-9.21-9.4-2.25-4.02-3.37-8.57-3.37-13.65s1.12-9.63,3.37-13.65c2.24-4.02,5.32-7.15,9.21-9.4,3.9-2.24,8.24-3.37,13.02-3.37s9.2,1.12,13.1,3.37c3.9,2.25,6.96,5.38,9.18,9.4,2.22,4.02,3.33,8.57,3.33,13.65s-1.11,9.63-3.33,13.65c-2.22,4.02-5.28,7.15-9.18,9.4-3.9,2.25-8.26,3.37-13.1,3.37s-9.13-1.12-13.02-3.37Zm23.38-3.81c3.06-1.78,5.48-4.33,7.25-7.66s2.66-7.19,2.66-11.58-.89-8.24-2.66-11.54c-1.78-3.3-4.19-5.85-7.25-7.62-3.06-1.78-6.51-2.66-10.36-2.66s-7.3.89-10.36,2.66c-3.06,1.78-5.48,4.32-7.25,7.62-1.78,3.31-2.66,7.15-2.66,11.54s.89,8.25,2.66,11.58,4.19,5.88,7.25,7.66c3.06,1.78,6.51,2.66,10.36,2.66s7.3-.89,10.36-2.66Z"/>
        <path class="cls-14" d="m99.75,348.74v32.56c0,5.13,1.22,8.93,3.66,11.4,2.44,2.47,5.78,3.7,10.03,3.7s7.56-1.22,9.95-3.66c2.39-2.44,3.59-6.25,3.59-11.43v-32.56h5.18v32.49c0,6.56-1.74,11.5-5.22,14.8-3.48,3.31-8,4.96-13.58,4.96s-10.1-1.65-13.58-4.96c-3.48-3.3-5.22-8.24-5.22-14.8v-32.49h5.18Z"/>
        <path class="cls-14" d="m182.71,400.47h-5.18l-28.64-43.51v43.51h-5.18v-51.73h5.18l28.64,43.44v-43.44h5.18v51.73Z"/>
        <path class="cls-14" d="m224.51,351.85c4.09,2.07,7.23,5.06,9.4,8.95,2.17,3.9,3.26,8.54,3.26,13.91s-1.09,9.93-3.26,13.8c-2.17,3.87-5.3,6.83-9.4,8.88-4.1,2.05-9,3.07-14.73,3.07h-15.32v-51.73h15.32c5.72,0,10.63,1.04,14.73,3.11Zm1.74,38.67c3.77-3.77,5.66-9.04,5.66-15.8s-1.89-12.12-5.66-15.95c-3.77-3.82-9.26-5.73-16.47-5.73h-10.14v43.14h10.14c7.2,0,12.69-1.89,16.47-5.66Z"/>
        <path class="cls-14" d="m276.68,388.18h-23.53l-4.51,12.28h-5.48l18.87-51.06h5.85l18.8,51.06h-5.48l-4.51-12.28Zm-1.55-4.29l-10.21-27.97-10.21,27.97h20.42Z"/>
        <path class="cls-14" d="m325.23,348.74v4.29h-14.36v47.43h-5.18v-47.43h-14.43v-4.29h33.97Z"/>
        <path class="cls-14" d="m338.62,348.74v51.73h-5.18v-51.73h5.18Z"/>
        <path class="cls-14" d="m360.6,397.62c-3.9-2.24-6.97-5.38-9.21-9.4-2.25-4.02-3.37-8.57-3.37-13.65s1.12-9.63,3.37-13.65c2.24-4.02,5.32-7.15,9.21-9.4,3.9-2.24,8.24-3.37,13.02-3.37s9.2,1.12,13.1,3.37c3.9,2.25,6.96,5.38,9.18,9.4,2.22,4.02,3.33,8.57,3.33,13.65s-1.11,9.63-3.33,13.65c-2.22,4.02-5.28,7.15-9.18,9.4-3.9,2.25-8.26,3.37-13.1,3.37s-9.13-1.12-13.02-3.37Zm23.38-3.81c3.06-1.78,5.48-4.33,7.25-7.66s2.66-7.19,2.66-11.58-.89-8.24-2.66-11.54c-1.78-3.3-4.19-5.85-7.25-7.62-3.06-1.78-6.51-2.66-10.36-2.66s-7.3.89-10.36,2.66c-3.06,1.78-5.48,4.32-7.25,7.62-1.78,3.31-2.66,7.15-2.66,11.54s.89,8.25,2.66,11.58,4.19,5.88,7.25,7.66c3.06,1.78,6.51,2.66,10.36,2.66s7.3-.89,10.36-2.66Z"/>
        <path class="cls-14" d="m447.7,400.47h-5.18l-28.64-43.51v43.51h-5.18v-51.73h5.18l28.64,43.44v-43.44h5.18v51.73Z"/>
        <path class="cls-14" d="m479.28,332.97c1.42.85,2.52,2,3.3,3.45.78,1.45,1.17,3.06,1.17,4.83s-.39,3.38-1.17,4.83c-.78,1.45-1.88,2.6-3.3,3.45-1.42.85-3.01,1.27-4.77,1.27s-3.36-.42-4.77-1.27c-1.42-.85-2.52-2-3.3-3.45-.78-1.45-1.18-3.06-1.18-4.83s.39-3.38,1.18-4.83c.78-1.45,1.88-2.6,3.3-3.45,1.42-.85,3.01-1.27,4.77-1.27s3.36.42,4.77,1.27Zm-.5,15.75c1.25-.75,2.23-1.78,2.93-3.1.7-1.32,1.05-2.77,1.05-4.38s-.35-3.06-1.05-4.38c-.7-1.32-1.68-2.35-2.93-3.1s-2.67-1.12-4.27-1.12-3.02.38-4.27,1.12-2.23,1.78-2.92,3.1c-.7,1.32-1.05,2.77-1.05,4.38s.35,3.06,1.05,4.38c.7,1.32,1.67,2.35,2.92,3.1s2.67,1.12,4.27,1.12,3.02-.38,4.27-1.12Zm-3.52-6.88l3.45,4.7-1.1.05-3.45-4.75h-2v4.75h-1v-10.7h4.15c1.03,0,1.84.26,2.42.77.58.52.88,1.24.88,2.18s-.29,1.67-.88,2.2c-.58.53-1.39.8-2.42.8h-.05Zm-3.1-.95h3.05c.73,0,1.32-.17,1.75-.5.43-.33.65-.85.65-1.55,0-1.33-.8-2-2.4-2h-3.05v4.05Z"/>
      </g>
    </g>
  </g>
</svg>