<?xml version="1.0" encoding="UTF-8"?>
<svg id="Layer_2" data-name="Layer 2" xmlns="http://www.w3.org/2000/svg" viewBox="0 0 738.65 313.19">
  <defs>
    <style>
      .cls-1 {
        fill: #f3dfbb;
      }

      .cls-2 {
        fill: #205f6b;
      }

      .cls-3 {
        fill: #fae9c9;
      }

      .cls-4 {
        fill: #fcf8e4;
      }

      .cls-5 {
        fill: #026c82;
      }

      .cls-6 {
        fill: #caa36c;
      }

      .cls-7 {
        fill: #f2f0ef;
      }

      .cls-8 {
        fill: #debe93;
      }

      .cls-9 {
        fill: #db6f04;
      }

      .cls-10 {
        fill: #106677;
      }

      .cls-11 {
        fill: #ede3d5;
      }

      .cls-12 {
        fill: #e6e6e6;
      }

      .cls-13 {
        fill: #e5cba6;
      }

      .cls-14 {
        fill: #ea801f;
      }

      .cls-15 {
        fill: #fcf3d7;
      }

      .cls-16 {
        fill: #477987;
      }

      .cls-17 {
        fill: #d0eef4;
      }

      .cls-18 {
        fill: #c37725;
      }

      .cls-19 {
        fill: #b87d38;
      }

      .cls-20 {
        fill: #ac8f64;
      }

      .cls-21 {
        fill: #af824a;
      }

      .cls-22 {
        fill: #82bdc3;
      }
    </style>
  </defs>
  <g id="Layer_3" data-name="Layer 3">
    <g>
      <g>
        <circle class="cls-12" cx="156.6" cy="156.6" r="156.6"/>
        <g>
          <path class="cls-7" d="m135.64,247.51c-.04,2.66.24,5.39-.31,7.95-.18.85-2.51,1.72-3.86,1.74-10.44.14-20.88.08-31.32.08-1.22,0-2.44,0-3.66,0q-8.05.04-8.05-8.11c0-27.39.07-54.78-.09-82.16-.02-3.79.79-5.21,4.85-5.06,8.39.31,16.81.06,25.22.13,1.41.01,2.81.51,4.21.79-2.8,4.73-5.25,9.93-12.4,8.23-.6-.14-1.5.99-2.27,1.52-1.89.01-3.77.02-5.66.03-.28.26-.56.52-.84.78h0c-.27.27-.54.54-.81.81-.26,0-.52.02-.79.03-2.49,2.18-4.02,8.21-3.13,11.3.69,2.37,1.36,4.85,1.4,7.29.17,8.53.33,17.08-.02,25.6-.28,7.04,1.64,14.26-1.47,21.12-.25.55-.11,1.38.08,2,1.15,3.67,6.53,7.68,10.43,7.53,9.5-.37,19.12,1.28,28.48-1.6Z"/>
          <path class="cls-17" d="m193.95,225.04c.4-.01,1.12-.11,1.14-.03.85,3.19,2.25,6.38,2.32,9.6.26,13.02.12,26.04.1,39.07,0,4.76-4.17,7.45-8.48,5.69-1.44-.59-3.1-.87-4.66-.88-12.48-.07-24.96-.03-37.44-.05-4.41,0-6.37-1.96-6.39-6.31-.02-5.97.07-11.94-.06-17.91-.04-1.68-1.04-3.37-.93-5.01.14-2.11,1.12-4.14,1.44-6.25.27-1.79.15-3.64.11-5.46-.11-4.97-.33-9.94-.26-14.9,0-.39,1.97-1.06,3.03-1.08,7.19-.1,14.38.03,21.57-.12,1.21-.02,2.4-.99,3.6-1.53.53,0,1.07,0,1.6,0,1.1.26,2.2.51,3.3.77l1.58.79c.56,0,1.12,0,1.68,0,.53,0,1.05,0,1.58,0,1.17.24,2.33.66,3.5.69,1.95.06,4.03.26,5.84-.29,2.8-.85,5.05.16,5.87,3.23-6.14,0-12.29,0-18.43,0-2.18,0-4.36,0-6.54,0h-24.85v47.71c-.05.12-.18.29-.14.36.11.21.29.39.45.58v.02c.98.38,1.95,1.08,2.93,1.09,13.13.1,26.27.09,39.4.12.36,0,.73,0,1.09.01.8-.18,1.6-.36,2.39-.54.52.02,1.04.03,1.56.05.5-.31,1.01-.62,1.51-.93l.3.11c.06-.37.12-.73.18-1.1,0-12.52-.02-25.04-.03-37.56,0-1.87-.02-3.74-.03-5.61.06-1.43.12-2.86.17-4.29Z"/>
          <path class="cls-7" d="m178.78,221.42c-.53,0-1.05,0-1.58,0,2.95-3.77,2.8-5.17-.85-8.09-.54-1.19-1.52-2.36-1.55-3.56-.15-7.16-.1-14.33-.05-21.5,0-1.18.03-2.58.63-3.49,2.29-3.5-.76-5.12-2.29-7.3-.5-1.12-1.01-2.23-1.51-3.35-.04-.5-.08-.99-.12-1.49-.95-2.5-1.06-6.24-5.44-3.56-.34.21-.99-.16-1.51-.17-3.81-.06-7.63-.36-11.42-.06-2.71.21-5.34,1.61-8.04,1.76-2.29.12-4.63-.79-6.95-1.24-.55-2.39-1.09-4.78-1.64-7.17.33-.13.66-.25.99-.38.27.04.5.16.69.34,1.23.78,2.42,2.11,3.72,2.23,3.46.31,6.96.1,10.44.1,8.53,0,17.06.26,25.57-.12,4.33-.19,5.14,1.32,5.07,5.27-.24,12.85-.03,25.71-.14,38.57-.02,1.9-.9,3.77-1.21,5.68-.16,1,.05,2.05.09,3.08.87-.12,1.75-.24,2.62-.35.33.01.66.02,1,.03.01.51.02,1.02.03,1.53-.88.55-1.73,1.17-2.66,1.62-1.27.61-2.6,1.08-3.9,1.61Z"/>
          <path class="cls-17" d="m262.64,91.22c2.43-.32,3.3.65,3.3,3.18-.06,39.69-.05,79.37-.03,119.06,0,2.39-.38,3.92-3.18,2.32-.19-.57-.38-1.14-.57-1.71-.04-13.68-.11-27.37-.11-41.05.01-26.96.08-53.93.12-80.89l.46-.9Z"/>
          <path class="cls-11" d="m91.68,33.4c.03-.95-.29-2.11.15-2.81,1.36-2.19,2.63-5.17,4.66-5.94,1.33-.5,4.41,1.92,5.8,3.72,1.87,2.44,2.7,5.66,4.3,8.35,1.03,1.73,2.49,3.29,4.89,1.36,1.99-1.6,3.8-1.45,5.41.89.89,1.29,2.19,2.67,3.6,3.15,4.04,1.38,4.32,3.85,2.95,7.31-1.46,3.68-2.91,7.39-4,11.19-.86,3,1.34,5.14,3.67,5.82,1.09.31,2.97-2.1,4.49-3.29.6-.47,1.13-1.05,1.78-1.42,7.25-4.08,5.47-8.5-.12-12.92-.41-.32-.9-.55-1.63-.99,1.17-2.34.47-6,4.89-5.39.76,1.35,1.53,2.71,2.29,4.06,1.32,5.1,5.48,3.83,8.99,4.01-1.34,3.25-2.68,6.5-4.03,9.76-.61-.33-1.67-1.04-1.75-.95-1.94,2.41-3.78,4.9-5.63,7.38-2.67,2.22-5.34,4.45-8.01,6.67-.83.3-1.66.59-2.49.89-1.39-2.49-2.78-4.99-4.17-7.48-.38-1.54-.38-3.32-1.21-4.56-1.6-2.41-1.67-4.34.36-6.47,1.21-1.26,2.11-2.81,3.4-4.58-1.04-.26-1.87-.47-2.69-.68.58-1.15,1.15-2.3,1.73-3.45l-.99.42c-1.3-2.22-2.59-4.44-3.89-6.66-.28-.46-.56-.92-.84-1.37-.24.38-.49.75-.73,1.13-.26.08-.52.15-.79.21-3.08.66-6.15,1.32-10.05,2.15-.17-1.59-.44-3.99-.7-6.39.15-1.51.3-3.02.4-4.01-2.68-1.04-4.92-1.9-7.37-2.85-.81,1.22-1.68,2.53-2.54,3.84,0,0-.15-.11-.15-.11Z"/>
          <path class="cls-2" d="m262.18,92.12c-.04,26.96-.1,53.93-.12,80.89,0,13.68.07,27.37.11,41.05-.06.6-.13,1.19-.19,1.79-.3.06-.6.12-.9.18-1.75-.09-3.49-.26-5.24-.26-21.23-.01-42.47-.01-63.7.01-1.47,0-2.95.2-4.42.31-.51-.03-1.02-.07-1.53-.1-.58-.03-1.16-.06-1.75-.08-.05-1.35-.15-2.7-.16-4.05-.05-16.27-.09-32.54-.14-48.81-.43-.31-.87-.62-1.3-.93,0,0,.04-.16.04-.16-5.43-.04-10.85-.07-16.28-.11-5.97,0-11.94,0-17.92,0-1.9,0-3.79.01-5.69.02-1.61.1-3.22.2-4.83.29-.2-.18-.43-.29-.7-.34.04-.74.09-1.49.13-2.23.97-2.46,1.95-4.92,2.92-7.38q.12,7.39,7.42,7.39c7.57,0,15.15,0,22.72,0,3.85-.83,7.71-1.65,11.78-2.53,1.06,1.67,2.37,3.74,3.68,5.8,0,5.7,0,11.39,0,17.09v1.63c0,9.28-.07,18.56.07,27.83.02,1.31,1.02,2.6,1.57,3.9l1.61.03c1.19.54,2.38,1.54,3.58,1.54,20.62.1,41.23.08,61.85.06,4.89,0,6.21-1.36,6.21-6.18,0-36.89.03-73.79-.07-110.68,0-2.28-1.03-4.56-1.58-6.83.81,0,1.63,0,2.44-.01,0,0,.12-.07.12-.07.09.32.17.64.26.96Z"/>
          <path class="cls-11" d="m57.5,146.58c2.27-8.34-5.79-7.84-9.91-11.03,2.4-2.82,2.38-5.21.57-8.42-1.39-2.47-.9-6-1.24-9.05,3.55,1.14,6.22-.67,7.28-4.93.82-.55,1.64-1.11,2.46-1.66.61.56,1.14,1.41,1.86,1.64,4.45,1.41,8.94,2.68,12.72,3.79,1.26,3.16,2.32,5.81,3.37,8.46-1.02-.63-1.99-1.38-3.07-1.88-1.22-.56-2.55-.91-4.4-1.54.84,2.5,1.27,3.8,1.71,5.11-.77,0-1.54-.01-2.31-.02-.86-1.35-1.72-2.69-2.58-4.04l-.79-.83s-.02,0-.02,0c-1.68-1.87-2.99-1.5-5.66,1.58-.54-.04-1.08-.08-1.62-.11-2.8-1.44-4.01-.4-3.99,2.56-2.47,3.05,1.04,4.87,1.5,7.32.1.66-.05,1.6.33,1.92,2.09,1.78,4.32,3.42,6.52,5.07.03.03.36-.33.54-.51l.84.22c1.29.96,2.59,1.91,4.64,3.43-2.16.57-3.54.82-4.81,1.32-.85.33-1.55,1.04-2.31,1.57-.54,0-1.08.01-1.63.02Z"/>
          <path class="cls-15" d="m135.64,247.51c-9.36,2.88-18.98,1.23-28.48,1.6-3.9.15-9.28-3.85-10.43-7.53-.2-.62-.33-1.45-.08-2,3.11-6.86,1.19-14.08,1.47-21.12.34-8.52.19-17.07.02-25.6-.05-2.44-.72-4.92-1.4-7.29-.89-3.09.64-9.12,3.13-11.3.26.81.52,1.61.78,2.42-.01.8-.02,1.61-.03,2.41-.26,1.27-.75,2.55-.75,3.82-.05,19.18-.05,38.36,0,57.53,0,1.27.51,2.53.79,3.79.27.29.53.58.8.86,1.28.25,2.55.72,3.83.73,9.03.05,18.06,0,27.09-.01l1.76-.65c1.04-.05,2.07-.09,3.11-.14-.53.82-1.05,1.64-1.58,2.46Z"/>
          <path class="cls-11" d="m141.93,79.54c.95,1.41,1.89,2.81,2.84,4.22,1.83-1.82,3.76-3.56,5.41-5.53.43-.52-.05-1.78-.12-2.89-1.52-.29-2.92-.55-4.27-.81.54-7.32,6.66-9.86,11.15-13.69.69-.59,2.06-.36,3.1-.57,2.45-.47,4.94-.82,7.33-1.51,3.43-.99,6.08-.63,7.31,3.2-3.65-.15-7.24-.17-8.94,4.03-1.08-.49-2.16-.99-3.24-1.48-.51.25-1.02.5-1.53.74-6.13-.25-10.87,4.4-8.79,9.36,1.25,2.98.93,5.18-.18,7.73-.27.27-.54.53-.81.8-1.2,1.4-2.41,2.8-3.61,4.2-1.13.03-2.25.05-3.38.08-1.72-.02-3.45.06-5.16-.11-.88-.09-1.72-.64-2.57-.98,1.33-1.92,2.65-3.84,3.98-5.76.49-.34.98-.69,1.47-1.03Z"/>
          <path class="cls-1" d="m101.34,36.54c.26,2.4.53,4.81.7,6.4,3.89-.83,6.97-1.49,10.05-2.15-.31,2.97-2.39,3.37-4.79,3.3-.31.52-.62,1.04-.93,1.56,0,.54.01,1.08.02,1.62-1.33.55-2.66,1.1-3.99,1.65-.03.29-.05.58-.08.88.02.2.01.4,0,.6.79,2.83,1.7,5.62,2.34,8.48,1.01,4.59-4.34,3.66-5.64,6.29-1.35-.01-2.69-.02-4.04-.03.84-.81,1.68-1.63,2.52-2.44,2.12-1.01,4.83-1.63,3.23-5.03-.68-1.54-1.19-3.2-2.1-4.59-.67-1.03-1.85-1.73-2.81-2.58-.82-.29-1.65-.57-2.47-.86-1.11-.6-2.21-1.2-3.32-1.79,2.16-2.16,2.35-4.12-.71-5.57-3.61-1.71-.28-4.29-.86-6.37.56.02,1.12.04,1.67.06.78,2.56,4.03,4.27,2.64,7.58.9.32,2.21,1.18,2.64.86,1.21-.91,2.06-2.3,3.06-3.5.27-.68.44-1.44.85-2.03.58-.83,1.34-1.54,2.03-2.3Z"/>
          <path class="cls-13" d="m152.01,82.35c1.1-2.55,1.42-4.75.17-7.73-2.07-4.96,2.66-9.61,8.79-9.36-1.69,1.59-3.37,3.18-5.06,4.76-3.18,2.07-.98,3.37.78,5.32.79-1.72,1.37-3,1.95-4.29.98-.68,1.97-1.36,2.95-2.04,2.81.96,3.32-1.24,4.14-3.01,1.69-4.19,5.28-4.18,8.94-4.03,0,.25.02.51.04.76-.31,2.72-.61,5.45-.91,8.17-.49-.02-.99-.04-1.49-.06-1.04-.54-2.07-1.08-2.86-1.49-1.6,1.18-2.81,2.71-4.29,3.04-2.58.58-2.8,2.06-2.56,4.1-.98-.37-1.97-.73-3.13-1.17-.93,2.41-1.8,4.66-2.67,6.9-1.6.04-3.2.08-4.81.12Z"/>
          <path class="cls-11" d="m156.82,82.23c.87-2.25,1.74-4.49,2.67-6.9,1.16.43,2.15.8,3.13,1.17,4.4,2.38,6.78-1,9.52-3.34.56-.75,1.11-1.5,1.67-2.24.31-2.72.61-5.45.92-8.17.97.35,1.94.71,2.04.74.27,2.2.67,3.71.56,5.18-.11,1.39-.56,2.85-1.24,4.07-1.16,2.08-2.62,3.99-4.49,6.75-.47.28-1.92,1.13-3.37,1.98.61,3.72-.71,5.34-4.71,4.99-1.65-.14-3.4.95-5.11,1.48-.21-.81-.42-1.62-.62-2.44.03-.52.07-1.04.1-1.56.08-.1.23-.22.21-.29-.06-.21-.2-.4-.3-.6-.32-.27-.65-.54-.97-.82Z"/>
          <path class="cls-17" d="m194.22,89.64c4.36-.57,8.72-1.13,13.09-1.7,13.56,0,27.12,0,40.68,0,3.95,0,7.91-.14,11.85.08.72.04,1.35,1.54,2.03,2.36-22.51-.04-45.02-.08-67.52-.12-.04-.21-.08-.42-.12-.64Z"/>
          <path class="cls-11" d="m94.94,83.09c3.64,2.22,6.83,1.34,10.12-1.04,2.29-1.66,4.22-.19,5.99,1.57,1.09,1.08,2.6,1.73,3.92,2.58.38-1.45.81-2.89,1.12-4.36.14-.65.03-1.35.03-2.03.8.54,1.6,1.09,2.4,1.63.03.55.05,1.09.08,1.64.21.54.43,1.08.64,1.62,0,1.36.01,2.71.02,4.07-.5.92-1.35,1.8-1.44,2.76-.22,2.36-.1,4.75-.11,7.13-1.39-2.2-2.78-4.41-4.16-6.61-1.05-1.34-2.1-2.68-3.15-4.02-2.3-1.27-4.58-2.84-7.24-.78-1.05.79-2.09,1.57-3.14,2.36-2.72-1.43-3.32,1.8-5.15,2.34.01-.77.02-1.55.04-2.33-.25-1.09-.5-2.19-.75-3.28-.02-.82-.03-1.64-.05-2.46.28-.27.55-.53.83-.8Z"/>
          <path class="cls-1" d="m103.92,148.99c-1.37-.27-2.73-.53-4.1-.8-1.09-.02-2.18-.04-3.27-.06,1.39-.99,2.79-1.99,4.18-2.98,1.87-.03,3.75-.07,5.62-.1.55-.29,1.11-.57,1.66-.86,1.13-.41,2.24-1.05,3.4-1.19,3.98-.49,7.99-.81,11.98-1.2,1.96,1.32,3.91,2.64,5.87,3.95,2.6,4.08,3.96,8.17-.03,12.24-.57-.54-1.14-1.08-1.71-1.62,0-2.18-.01-4.37-.02-6.55-.54-.55-1.07-1.09-1.61-1.64,0,0-.01,0-.01,0-2.93-1.01-5.95-3.05-8.77-2.8-4.48.4-8.82,2.33-13.21,3.62Z"/>
          <path class="cls-11" d="m77.95,94.41c-5.89,0-9.54-7.47-6.58-13.4,1.11-2.22,2.11-4.5,3.37-7.18,1.69-.56,3.99-1.59,6.39-2.03,2.98-.55,5.38.33,5.69,3.93-.27.53-.54,1.05-.82,1.58-1.95-.38-3.9-.76-5.86-1.13-.48-.06-.96-.12-1.44-.18-2.88.1-3.08.47-1.63,3.02-.22.86-.16,2.1-.72,2.53-3.9,2.97-1.5,5.87-.1,8.81.56,1.36,1.12,2.72,1.68,4.07Z"/>
          <path class="cls-13" d="m102.31,50.38c.02-.2.02-.4,0-.6.03-.29.05-.58.08-.88,1.33-.55,2.66-1.1,3.99-1.65.52.62,1.04,1.24,1.56,1.87,1.09,2.11,2.2,2.08,3.33.04,2.78-.63,2.15,1.41,2.41,2.92.11.62.97,1.65,1.29,1.58.7-.15,1.36-.81,1.86-1.41.39-.46.51-1.15.76-1.74.82.21,1.65.41,2.69.68-1.29,1.76-2.2,3.31-3.4,4.58-2.04,2.14-1.97,4.07-.36,6.47.82,1.24.83,3.02,1.21,4.56-1.13.22-2.25.45-3.38.67-1.02-2.42-2.04-4.85-3.05-7.27,0-.25,0-.5-.03-.75-.93-5.06-6.87-5.16-8.95-9.07Z"/>
          <path class="cls-17" d="m186.18,215.99c.51.03,1.02.07,1.53.1,1.45.16,2.91.46,4.36.47,22.18.05,44.35.06,66.53.08.53.38,1.06.76,2.19,1.56-25.53,0-50.49,0-75.44,0-.01-.51-.02-1.02-.03-1.54.29-.22.58-.44.87-.66Z"/>
          <path class="cls-11" d="m103.92,148.99c4.4-1.28,8.74-3.22,13.21-3.62,2.82-.25,5.84,1.79,8.77,2.8-1.63,0-3.28.21-4.87-.02-3.38-.49-5.61.94-7.26,3.72,5.2,3.31,5.34,4.43.24,7.94-3.3-3.54-6.7-7.18-10.1-10.82Z"/>
          <path class="cls-17" d="m158.41,87.93c1.71-.53,3.46-1.62,5.11-1.48,4,.34,5.32-1.27,4.71-4.99,1.98,0,3.97,0,6.44,0-.88,1.98-1.54,3.47-2.34,5.28,3.74.45,7.12.85,10.51,1.26.07.57.14,1.14.21,1.71-.06.17-.09.34-.08.52-8.7.09-17.41.18-26.11.27-.02-.48-.04-.97-.06-1.45.03-.34.06-.67.09-1.01.23-.04.45-.1.66-.2.29.03.58.07.88.1Z"/>
          <path class="cls-1" d="m74.63,125.38c-1.06-2.65-2.11-5.3-3.37-8.46-3.79-1.11-8.28-2.38-12.72-3.79-.72-.23-1.24-1.08-1.86-1.64.01-.26.06-.51.14-.75,1.32,0,2.63,0,3.95-.01,1.07.3,2.15.59,3.22.89,2.99.53,5.98,1.06,8.97,1.58,1.63.27,3.26.53,4.89.8,1.64.53,3.27,1.06,4.91,1.59-1.84,0-3.68,0-5.65,0v5.83c.79.54,1.58,1.09,2.37,1.63.82.25,1.63.5,2.45.74-1.63,1.08-3.26,2.15-4.89,3.23-.81-.54-1.61-1.09-2.42-1.63Z"/>
          <path class="cls-11" d="m94.96,151.47c-1.31.54-2.6,1.46-3.95,1.55-4.81.31-6.56,1.72-7.54,6.3-.19.88-1.18,2.28-1.78,2.27-4.06-.09-5.6,3.21-8.05,5.37-1.28,1.14-3.14,1.62-4.74,2.4.41-1.18.82-2.37,1.22-3.55l.2.07c.57-.57,1.14-1.15,1.71-1.72l.21-.08.16.15c.47-.46.93-.91,1.4-1.37.53-.88,1.61-1.82,1.51-2.63-.48-3.93,1.12-5.76,5.02-5.84.29,0,.57-.8.85-1.22,2.15-.84,4.31-1.67,6.46-2.51,2.43.26,4.86.52,7.3.77l.02.02Z"/>
          <path class="cls-1" d="m137.23,245.05c-1.04.05-2.07.09-3.11.14,0,0-.09-.12-.09-.12.06-.23.1-.46.13-.7.21-.06.41-.12.62-.2.29-1.23.82-2.46.83-3.69.08-6.44-.02-12.89.07-19.33.02-1.52.57-3.03.88-4.54,8.19,0,16.38.05,24.57-.03,2.91-.03,5.81-.37,8.72-.57.56-.02,1.12-.04,1.68-.05-.02.75-.03,1.5-.05,2.25h0c-9.55,0-19.09-.06-28.64.07-1.31.02-2.6,1.02-3.9,1.56,0,0-.01.01-.01.01-.54,1.16-1.54,2.32-1.56,3.49-.15,6.97-.07,13.94-.07,20.92-.01.26-.04.53-.06.79Z"/>
          <path class="cls-11" d="m135.64,41.47c1.19-1.69,2.24-3.51,3.61-5.03,1.09-1.21,2.57-2.08,3.88-3.1,2.25-1.73,3.64-.22,5.09,1.3,1.66,1.73,3.38,3.4,5.09,5.07,1.91,1.87,4.84,3.8,3.33,6.66-1.35,2.54-4.07,4.42-6.43,6.28-.31.24-2.08-1.36-3.17-2.11,3.51.1,5.5-2.16,6.32-5.03.34-1.18-.94-3.2-2.02-4.32-2.01-2.09-4.41-3.81-7.27-6.2-.36,1.26-.74,2.6-1.12,3.94-.26.08-.52.15-.78.22-2.18.78-4.36,1.55-6.54,2.33Z"/>
          <path class="cls-1" d="m135.61,67.62c-.59,3.81-.52,7.4,3.27,9.75-1.37.52-2.73,1.04-4.1,1.56-.48-.04-.97-.08-1.45-.13-1.06-.33-2.12-.66-3.18-1-.04,1.2-.08,2.39-.12,3.59-5.02.24-5.75.99-5.77,5.89,0,1.33-.02,2.65-.04,3.98-.56-1.62-1.12-3.24-1.68-4.85-.25-1.94-.5-3.87-.75-5.81,1.92-1.92,3.84-3.84,5.76-5.76.28.04.56.08.83.12,1.62-.33,4.88,1.11,3.14-2.88.82-1.23,1.64-2.46,2.46-3.69.54-.26,1.09-.51,1.63-.77Z"/>
          <path class="cls-11" d="m60.77,110.72c-1.32,0-2.63,0-3.95.01-.05-1.89-.1-3.78-.15-5.67-.26-.55-.53-1.09-.79-1.64-.03-.52-.05-1.04-.08-1.57-1.01-1.89-2.07-2.58-3.23-.11-.05.24-.11.48-.19.71l-8.66.23c-.29-.03-.59-.05-.88-.08,2.64-1.09,5.28-2.18,7.93-3.25.47-.19.99-.29,1.66-.48.07-1.43-.08-2.82.29-4.05.24-.78,1.22-1.73,1.97-1.83.83-.11,2.58.82,2.54,1.05-1.07,6.06,5.48,10.5,3.53,16.69Z"/>
          <path class="cls-13" d="m81.18,153.18c-.28.43-.56,1.22-.85,1.22-3.9.08-5.49,1.91-5.02,5.84.1.8-.98,1.75-1.51,2.63-.43.02-.85.03-1.28.05,0-3.22,2.52-7.35-3.14-8.52-.22-.05-.4-.66-.47-1.03-.4-2.2-.92-4.41-3.76-4.31-2.69.1-6.06-1.45-7.43,2.7-.15.46-1.66.48-2.54.7-.02-1.41-.05-2.81-.07-4.22.79-.55,1.59-1.1,2.38-1.65.54,0,1.08-.01,1.63-.02,2.98.02,5.95.03,8.93.05,1.03,2.22,2.05,4.43,3.07,6.62,2.44-.54,5-1.11,7.57-1.68-.07.7-.14,1.4-.22,2.11,1.13-.2,1.92-.34,2.7-.48Z"/>
          <path class="cls-1" d="m142.96,38.92c.38-1.34.76-2.68,1.12-3.94,2.86,2.4,5.26,4.11,7.27,6.2,1.08,1.12,2.35,3.14,2.02,4.32-.82,2.87-2.8,5.13-6.32,5.03-1.08,0-2.16,0-3.24,0-3.51-.18-7.67,1.08-8.99-4.01.77-.01,1.54-.02,2.31-.03,1.74,1.68,3.42,2.31,5.4.17.44-.47,1.77-.12,2.69-.14,2.13,2.13,3.3,1.75,5.81-2.06-.82-.21-1.56-.41-2.29-.6-1.33-2.34-.89-6.74-5.76-4.93Z"/>
          <path class="cls-15" d="m127.54,156.37c.57.54,1.14,1.08,1.71,1.62.02.28.03.56.05.84-1.71,3.5-3.42,7.01-5.13,10.51-.76.17-1.99.12-2.21.56-1.7,3.44-4.79,2.69-7.62,2.73-2.12.03-4.24,0-6.37-.01.76-.54,1.67-1.67,2.27-1.52,7.15,1.7,9.6-3.5,12.4-8.23,1.09-1.68,2.14-3.39,3.3-5.03.41-.58,1.06-.98,1.61-1.46Z"/>
          <path class="cls-16" d="m194.34,90.28c22.51.04,45.02.08,67.52.12-.02.28-.04.56-.06.84-.81,0-1.63,0-2.44.01-20.38,0-40.77.03-61.15-.07-3.52-.02-5.64,1.28-6.33,4.76-.6.46-1.19.91-1.79,1.37-.5.15-1,.3-1.5.45-.82-.28-1.65-.57-2.47-.85-.22-.71-.45-1.43-.67-2.14.24-.63.47-1.26.71-1.89l-.08-.35c1.59.3,3.17.6,4.76.9l3.5-3.15Z"/>
          <path class="cls-1" d="m42.85,102.6c.29.03.59.05.88.08-.02.51-.05,1.02-.07,1.53-.01.56-.02,1.12-.03,1.67.58.52,1.17,1.04,1.75,1.55.25.29.5.58.75.87,1.04,1.92,2.07,3.84,3.11,5.76,1.39-.34,2.78-.67,4.16-1.01.28.03.55.06.83.09-1.07,4.26-3.74,6.07-7.28,4.93-.46-.79-1.48-1.74-1.3-2.33,1.15-3.76-2.16-4.59-3.86-6.57-1.21-1.41-1.82-3.35-2.69-5.06,1.26-.5,2.51-1.01,3.77-1.51Z"/>
          <path class="cls-7" d="m247.99,87.95c-13.56,0-27.12,0-40.68,0,1.05-.54,2.09-1.53,3.14-1.54,11.47-.11,22.94-.11,34.4,0,1.05.01,2.09,1,3.14,1.54Z"/>
          <path class="cls-8" d="m114.35,67.47c1.13-.22,2.25-.45,3.38-.67,1.39,2.49,2.78,4.99,4.17,7.48-.95.79-1.9,1.58-2.85,2.37-1.49-3.33-3.81-4.77-7.43-3.28-.12.05-.26.03-.4.04-.27-.03-.54-.07-.81-.1-.29-1.1-.58-2.21-.86-3.31.83-.81,1.65-1.62,2.48-2.43.78-.03,1.55-.06,2.33-.1Z"/>
          <path class="cls-22" d="m258.6,216.63c-22.18-.02-44.35-.03-66.53-.08-1.45,0-2.91-.3-4.36-.47,1.47-.11,2.95-.31,4.42-.31,21.23-.02,42.47-.03,63.7-.01,1.75,0,3.49.17,5.24.26-.83.2-1.65.4-2.47.6Z"/>
          <path class="cls-11" d="m102.31,50.38c2.09,3.91,8.03,4.02,8.95,9.07-2.38.24-4.36.47-5.3,3.53-1.02,3.32-4.45,1.93-6.95,2.17,1.3-2.63,6.65-1.71,5.64-6.29-.63-2.86-1.55-5.66-2.34-8.48Z"/>
          <path class="cls-11" d="m55.12,148.23c.02,1.41.05,2.81.07,4.22-.29,1.56-.58,3.11-.87,4.67-.52,1.12-1.05,2.24-1.57,3.36-.6.51-1.19,1.03-1.79,1.54-.8.55-1.59,1.1-2.39,1.65.28-2.43-.03-5.13.98-7.21,1.42-2.94.8-7.52,5.58-8.23Z"/>
          <path class="cls-11" d="m183.05,89.71c-.07-.57-.14-1.14-.21-1.71-.48-1.09-.91-2.21-1.47-3.26-.43-.8-1.03-1.5-1.55-2.24.93-.34,2.38-1.23,2.7-.93,3.03,2.89,8.63-.75,10.85,4.36.31.72,2.31.7,3.53,1.03-.01.35-.03.69-.04,1.04-1.63,0-3.25,0-4.88,0-.74-1.96-1.07-4.62-4.21-2.47-.09.22-.18.44-.25.67-.45.59-.91,1.19-1.36,1.78-.1.52-.21,1.04-.31,1.56-.93.06-1.86.12-2.79.18Z"/>
          <path class="cls-11" d="m138.93,219.85c1.3-.54,2.6-1.54,3.9-1.56,9.54-.13,19.09-.07,28.64-.07-.28.55-.55,1.1-.83,1.65-.53,0-1.07,0-1.6,0-10.04,0-20.08-.02-30.11-.02Z"/>
          <path class="cls-13" d="m77.95,94.41c-.56-1.36-1.12-2.72-1.68-4.07,2.18.32,4.36.63,6.54.95,1.07-.91,2.14-1.83,3.21-2.74.53.89,1.07,1.78,1.6,2.67.31.48.62.96.93,1.44,1.06.09,2.11.18,3.17.27-1.38.79-2.76,1.59-4.14,2.38-.82,0-1.64,0-2.47,0-1.35-.29-2.71-.59-4.06-.88-1.04,0-2.08,0-3.12,0Z"/>
          <path class="cls-11" d="m137.29,244.26c0-6.97-.08-13.95.07-20.92.02-1.17,1.02-2.33,1.56-3.49,0,5.25-.05,10.5,0,15.76.03,2.53,2.28,5.09-.13,7.56-.43.44-1,.73-1.51,1.09Z"/>
          <path class="cls-11" d="m114.35,67.47c-.78.03-1.55.06-2.33.1-.83.81-1.65,1.62-2.48,2.43.29,1.1.58,2.21.86,3.31-1.28,0-2.55,0-3.88,0,1.75-4.8,3.26-8.96,4.77-13.11,1.02,2.42,2.04,4.85,3.05,7.27Z"/>
          <path class="cls-3" d="m97.5,62.68c-.84.81-1.68,1.63-2.52,2.44-7.2.11-7.76-.23-8.11-4.93.79-.03,1.58-.05,2.37-.08,1.08.11,2.16.21,3.24.32,1.33.24,2.66.49,3.99.73.34.51.68,1.01,1.02,1.52Z"/>
          <path class="cls-8" d="m137.12,46.48c-.77.01-1.54.02-2.31.03-.77-1.35-1.53-2.71-2.29-4.06,1.04-.33,2.08-.65,3.12-.98,2.18-.78,4.36-1.55,6.54-2.33-1.69,2.45-3.37,4.89-5.06,7.34Z"/>
          <path class="cls-1" d="m86.01,77.3c.27-.53.54-1.05.82-1.58,2.7,2.45,5.41,4.91,8.11,7.37-.28.27-.55.53-.83.8-1.68-.18-3.37-.36-5.06-.54-.52-1.15-1.05-2.3-1.57-3.44-.49-.87-.98-1.73-1.47-2.6Z"/>
          <path class="cls-11" d="m82.76,115.58c-1.64-.53-3.27-1.06-4.91-1.59,2.38-2.12,2.64-4.83,2.54-7.83-.04-1.17.99-2.37,1.53-3.56,0,0,.08.08.08.08.56,1.64,1.13,3.27,1.69,4.91-.02.24-.06.48-.13.72-2.3,1.05-2.31,2.15-.07,3.3l.04.04.86,1.54c0,.79-.01,1.58-.02,2.37-.53,0-1.06.02-1.59.02Z"/>
          <path class="cls-6" d="m90.03,47.82c1.11.6,2.21,1.2,3.32,1.79-.46.74-1.49,1.71-1.3,2.18,1.46,3.6-.9,4.49-3.48,5.31-.26-.31-.53-.63-.79-.94.75-2.78,1.5-5.57,2.25-8.35Z"/>
          <path class="cls-11" d="m64.84,169.36c-4.31,0-8.62.09-12.93-.02-2.86-.08-3.83-1.39-3.35-4.04,1.36.32,2.72.64,4.08.96,1.94.45,3.87.91,5.81,1.36h1.38c1.67.58,3.34,1.16,5.01,1.74Z"/>
          <path class="cls-1" d="m111.22,73.41c.13-.01.28,0,.4-.04,3.62-1.5,5.94-.06,7.43,3.28.05,1.05.1,2.11.14,3.16-.22.54-.44,1.09-.66,1.63-.8-.54-1.6-1.09-2.4-1.63-1.64-2.13-3.27-4.26-4.91-6.4Z"/>
          <path class="cls-13" d="m135.61,67.62c-.54.26-1.09.51-1.63.77-.53-.56-1.06-1.12-1.59-1.68,1.86-2.48,3.69-4.97,5.63-7.38.08-.09,1.14.61,1.75.95-1.39,2.45-2.78,4.89-4.17,7.34Z"/>
          <path class="cls-1" d="m64.84,169.36c-1.67-.58-3.34-1.16-5.01-1.73.07-.71.13-1.42.2-2.13,1.58-.5,3.16-1,4.75-1.5.73,1.37,1.37,2.56,2.11,3.92,1.3-.84,2.27-1.48,3.24-2.11-.41,1.18-.82,2.37-1.22,3.55-1.35,0-2.7,0-4.06,0Z"/>
          <path class="cls-11" d="m81.06,94.42c1.35.29,2.71.59,4.06.88.55,1.89,1.09,3.79,1.64,5.68-.54.53-1.07,1.06-1.61,1.59-.23.06-.47.1-.7.12-.82,0-1.64,0-2.46,0,0,0-.08-.08-.08-.08,2.06-2.97.86-5.61-.85-8.19Z"/>
          <path class="cls-11" d="m72.96,113.19c-2.99-.53-5.98-1.06-8.97-1.58,1.98-.28,3.99-.89,5.94-.72,1.07.09,2.03,1.49,3.04,2.31Z"/>
          <path class="cls-8" d="m187.76,85.52c3.15-2.14,3.48.51,4.21,2.47.03.51.06,1.03.08,1.54-.4.33-.8.65-1.2.98-.48-.05-.96-.1-1.44-.16,1.18-2.2,1.65-4.17-1.65-4.84Z"/>
          <path class="cls-8" d="m52.64,166.26c-1.36-.32-2.72-.64-4.08-.96,0-.54,0-1.08,0-1.62.8-.55,1.59-1.1,2.39-1.65.55,1.13,1.11,2.26,1.66,3.39,0,.28.01.56.02.84Z"/>
          <path class="cls-8" d="m141.93,79.54c-.49.34-.98.69-1.47,1.03-.57.23-1.15.45-1.72.67.03-.98.06-1.95.09-2.93l.22-.25c.71.08,1.43.16,2.15.24.28.3.56.61.84.91,0,0-.11.33-.11.33Z"/>
          <path class="cls-11" d="m90.13,35.94c-.56-.02-1.12-.04-1.67-.06,1.07-.82,2.15-1.65,3.22-2.47,0,0,.15.11.15.11-.04.51-.09,1.01-.13,1.52l-1.57.9Z"/>
          <path class="cls-22" d="m190.85,90.51c.4-.33.8-.65,1.2-.98.72.04,1.44.07,2.16.11.04.21.08.42.12.64-1.17,1.05-2.33,2.1-3.5,3.15,0-.71-.01-1.41-.01-2.12.11-.26.12-.53.03-.79Z"/>
          <path class="cls-11" d="m96.55,148.13c1.09.02,2.18.04,3.27.06-1.07.55-2.15,1.11-3.22,1.66,0,0-.03-.03-.03-.03-.02-.55-.03-1.11-.05-1.66,0,0,.03-.03.03-.03Z"/>
          <path class="cls-8" d="m134.78,78.92c1.37-.52,2.73-1.04,4.1-1.55.05.23.1.46.17.69,0,0-.22.25-.22.25-1.35.2-2.7.41-4.05.61Z"/>
          <path class="cls-20" d="m89.24,60.11c-.79.03-1.58.05-2.37.08.01-.5.03-1,.04-1.5.51-.29,1.01-.59,1.52-.88.27.77.54,1.54.81,2.3Z"/>
          <path class="cls-7" d="m109.59,17.12c.55-.53,1.11-1.05,1.66-1.58-.55.53-1.11,1.05-1.66,1.58Z"/>
          <path class="cls-11" d="m96.6,149.85c-.55.54-1.09,1.08-1.64,1.62,0,0-.02-.02-.02-.02.54-.54,1.09-1.08,1.63-1.62,0,0,.03.03.03.03Z"/>
          <path class="cls-11" d="m125.91,148.18c.54.55,1.07,1.09,1.61,1.64-.54-.55-1.07-1.09-1.61-1.64Z"/>
          <path class="cls-8" d="m88.43,57.81c-.51.29-1.01.59-1.52.88.29-.84.57-1.67.86-2.51.26.31.53.63.79.94-.08.22-.12.46-.14.69Z"/>
          <path class="cls-22" d="m261.98,215.85c.06-.6.13-1.19.19-1.79.19.57.38,1.14.57,1.71,0,0-.37.11-.37.11l-.39-.04Z"/>
          <path class="cls-22" d="m262.18,92.12c-.09-.32-.17-.64-.26-.96.24.02.48.04.72.06-.15.3-.31.6-.46.9Z"/>
          <path class="cls-11" d="m142.03,79.21c-.28-.3-.56-.61-.84-.91.28.3.56.61.84.91Z"/>
          <path class="cls-1" d="m107.97,172.62c2.12,0,4.24.04,6.37.01,2.83-.04,5.92.71,7.62-2.73.22-.44,1.45-.39,2.21-.56-1.08,1.6-2.15,3.2-3.23,4.79-2.33.31-4.65.71-6.99.92-3.64.32-7.3.52-10.95.77-.78.29-1.57.58-2.35.87-.26-.81-.52-1.61-.78-2.42.26-.01.52-.02.79-.03.27-.27.54-.54.81-.81,0,0,0,0,0,0,.28-.26.56-.52.84-.78,1.89-.01,3.77-.02,5.66-.03Z"/>
          <path class="cls-15" d="m102.31,172.65c-.28.26-.56.52-.84.78.28-.26.56-.52.84-.78Z"/>
          <path class="cls-15" d="m101.46,173.44c-.27.27-.54.54-.81.81.27-.27.54-.54.81-.81Z"/>
          <path class="cls-10" d="m191.84,274.43c-.52-.02-1.04-.03-1.56-.04-1.39-.28-2.78-.79-4.17-.8-13.28-.08-26.57-.07-39.85-.08-.26-5.99-.56-11.99-.71-17.99-.01-.49.98-1,1.5-1.5,0,4.6.01,9.21,0,13.81,0,2.75,1.01,4.18,4.1,4.14,11.64-.12,23.29-.14,34.93,0,3.28.04,4.43-1.26,4.11-4.34-.31-3.08-.88-6.17-.76-9.23.37-9.07,1.02-18.12,1.56-27.18.51,0,1.02,0,1.53,0,.21.04.42.08.63.12.02.5.04.99.06,1.49,0,.7,0,1.39,0,2.09l.28.05.29-.04c0,12.52.02,25.04.03,37.56-.06.37-.12.73-.19,1.1,0,0-.3-.11-.3-.11-.5.31-1.01.62-1.51.93Z"/>
          <path class="cls-2" d="m147.05,254.03c-.53.5-1.52,1.01-1.5,1.5.15,6,.45,11.99.71,17.99-.6.07-1.2.13-1.79.2,0,0,0-.02,0-.02-.1-.31-.21-.63-.31-.94v-47.71c8.48,0,16.66,0,24.85,0-1.13.44-2.25,1.21-3.4,1.25-4.2.15-8.41-.09-12.6.13-1.9.1-5,.44-5.42,1.51-1.15,2.94-1.32,6.31-1.6,9.53-.17,1.98.15,4,.25,6.01,0,1.89,0,3.79,0,5.68.27,1.63.54,3.26.81,4.89h0Z"/>
          <path class="cls-10" d="m146.25,243.45c-.1-2-.43-4.03-.25-6.01.28-3.22.45-6.59,1.6-9.53.42-1.07,3.51-1.41,5.42-1.51,4.19-.22,8.4.02,12.6-.13,1.15-.04,2.27-.81,3.4-1.25,2.18,0,4.36,0,6.54,0,.86.44,1.69,1.18,2.57,1.25,2.28.18,4.62-.18,6.85.17,1.02.16,1.86,1.5,2.78,2.3-.72.28-1.47.85-2.16.79-6.33-.6-12.63.79-19.11-1.24-4.8-1.5-10.45-.41-15.71-.19-.73.03-1.93,1.64-2.01,2.6-.25,3.31.08,6.67-.22,9.97-.09.99-1.51,1.85-2.31,2.77Z"/>
          <path class="cls-16" d="m144.46,273.71c.6-.07,1.2-.13,1.79-.2,13.28.01,26.57,0,39.85.08,1.39,0,2.78.52,4.17.8-.8.18-1.6.36-2.39.54-.36,0-.72,0-1.09-.01-13.13-.02-26.27-.02-39.4-.12-.98,0-1.96-.71-2.94-1.09Z"/>
          <path class="cls-2" d="m187.76,228.76c-.92-.8-1.76-2.14-2.78-2.3-2.24-.35-4.58,0-6.85-.17-.89-.07-1.72-.81-2.57-1.25,6.15,0,12.29,0,18.43,0,0,0,.14-.3.14-.3,0,0-.17.3-.18.3-.06,1.43-.12,2.86-.17,4.29-.23.35-.47.7-.71,1.05-.18.29-.36.57-.53.86-.51,0-1.02,0-1.53,0-1.08-.82-2.16-1.65-3.25-2.47Z"/>
          <path class="cls-12" d="m170.64,219.87c.28-.55.55-1.1.83-1.65,0,0,0,0,0,0,3.36.11,5-1.5,4.87-4.88,3.65,2.92,3.8,4.32.85,8.09-.56,0-1.12,0-1.68,0-.53-.26-1.05-.53-1.58-.79l-3.3-.77Z"/>
          <path class="cls-22" d="m193.07,230.38c.24-.35.47-.7.71-1.05,0,1.87.02,3.74.03,5.61,0,0-.29.04-.29.04,0,0-.28-.05-.28-.06,0-.7,0-1.39,0-2.08-.02-.5-.04-.99-.06-1.49-.03-.33-.06-.65-.1-.98Z"/>
          <path class="cls-7" d="m173.94,220.64c.53.26,1.05.53,1.58.79-.53-.26-1.05-.53-1.58-.79Z"/>
          <path class="cls-16" d="m191.84,274.43c.5-.31,1.01-.62,1.51-.93-.5.31-1.01.62-1.51.93Z"/>
          <path class="cls-16" d="m144.16,272.75c.1.31.21.62.31.94-.15-.19-.34-.37-.45-.58-.04-.07.09-.24.14-.36Z"/>
          <path class="cls-22" d="m193.65,273.61c.06-.37.13-.73.19-1.1-.06.37-.12.73-.19,1.1Z"/>
          <path class="cls-22" d="m186.8,274.91c.36,0,.72,0,1.09.01-.36,0-.72,0-1.09-.01Z"/>
          <path class="cls-17" d="m148.68,161.84c5.97,0,11.94,0,17.92,0,5.43.04,10.85.07,16.28.11,0,0-.04.16-.04.16.43.31.87.62,1.3.93.04,16.27.08,32.54.14,48.81,0,1.35.1,2.7.16,4.05-.09.23-.13.47-.12.72-.87.12-1.75.24-2.62.35-.04-1.03-.26-2.09-.09-3.08.31-1.91,1.19-3.79,1.21-5.68.11-12.86-.09-25.72.14-38.57.07-3.95-.74-5.46-5.07-5.27-8.51.38-17.05.11-25.57.12-3.48,0-6.99.21-10.44-.1-1.3-.12-2.48-1.45-3.72-2.23,1.61-.1,3.22-.2,4.83-.29,1.9,0,3.79-.01,5.69-.02Z"/>
          <path class="cls-4" d="m138.1,169.37c2.32.45,4.67,1.36,6.95,1.24,2.7-.15,5.33-1.54,8.04-1.76,3.78-.29,7.61,0,11.42.06.51,0,1.17.38,1.51.17,4.38-2.68,4.5,1.06,5.44,3.56-11.12-.01-22.24-.03-33.36-.04,0-1.08,0-2.15,0-3.23Z"/>
          <path class="cls-15" d="m176.35,213.34c.13,3.38-1.51,4.99-4.87,4.88.02-.75.03-1.5.05-2.25.16-.38.32-.76.48-1.14.37-1.33,1.04-2.66,1.05-3.99.08-11.11.04-22.22.04-33.34,1.53,2.18,4.59,3.8,2.29,7.3-.6.91-.62,2.31-.63,3.49-.05,7.17-.1,14.33.05,21.5.02,1.2,1.01,2.37,1.55,3.56Z"/>
          <path class="cls-1" d="m138.1,172.61c11.12.01,22.24.03,33.36.04.04.5.08,1,.12,1.49,0,0-.2.2-.2.2-11.61-.03-23.23.03-34.84-.19-1.45-.03-2.87-1.56-4.3-2.39.21-.88.42-1.77.63-2.65.37.07.73.15,1.1.22-.45,3.38,1.7,3.51,4.12,3.28Z"/>
          <path class="cls-1" d="m173.09,177.49c0,11.11.04,22.23-.04,33.34,0,1.33-.68,2.66-1.05,3.99-.1-11.34-.21-22.68-.31-34.02.08-.09.24-.2.22-.27-.04-.21-.16-.41-.24-.62,0-.8-.02-1.59-.03-2.39-.07-.8-.15-1.61-.22-2.41,0,0-.13.04-.13.04.03-.27.06-.54.09-.81,0,0,.2-.2.2-.2.51,1.12,1.01,2.23,1.52,3.35Z"/>
          <path class="cls-15" d="m138.1,172.61c-2.42.23-4.57.11-4.12-3.28-.02-.57-.04-1.14-.06-1.71.04-.25,0-.5-.11-.73l1.12-3.19c.26-.55.52-1.09.77-1.64v.02c.26-.04.52,0,.77.12.55,2.39,1.09,4.78,1.64,7.17,0,1.08,0,2.16,0,3.23Z"/>
          <path class="cls-20" d="m136.46,162.2c-.25-.12-.51-.16-.78-.12-.02-6.52-.05-13.03-.07-19.55,0,0,.39,0,.39,0l.38.07c.32,5.17.65,10.35.97,15.52.08.49.16.98.24,1.47-.05.74-.09,1.49-.14,2.23-.33.13-.66.25-.99.38Z"/>
          <path class="cls-22" d="m184.31,216.63c0-.25.03-.49.12-.72.58.03,1.16.06,1.75.08-.29.22-.58.44-.87.66-.33-.01-.66-.02-1-.03Z"/>
          <path class="cls-21" d="m117.59,50.51c-.24.59-.37,1.28-.76,1.74-.5.6-1.17,1.26-1.86,1.41-.32.07-1.18-.96-1.29-1.58-.26-1.51.37-3.55-2.41-2.92-1.11-.01-2.22-.03-3.33-.04-.52-.62-1.04-1.24-1.56-1.87,0-.54-.01-1.08-.02-1.62.31-.52.62-1.04.93-1.56,2.4.07,4.48-.33,4.79-3.3.26-.06.53-.13.78-.21.52.08,1.05.16,1.57.25,1.3,2.22,2.59,4.44,3.89,6.66l.99-.42c-.58,1.15-1.15,2.3-1.73,3.45Z"/>
          <path class="cls-8" d="m91.69,35.04c.04-.51.09-1.02.13-1.52.87-1.31,1.74-2.62,2.55-3.84,2.45.95,4.69,1.82,7.37,2.85-.1.99-.25,2.5-.4,4.01-.69.76-1.45,1.47-2.03,2.3-.41.59-.57,1.35-.85,2.03-1.34-5.31-2.4-6.22-6.76-5.84Zm3.63-2.78c-.21.12-.48.19-.59.36-.07.12.08.38.13.58.21-.1.51-.14.6-.3.08-.14-.08-.41-.14-.64Z"/>
          <path class="cls-20" d="m119.19,79.81c-.05-1.05-.09-2.11-.14-3.16.95-.79,1.9-1.58,2.85-2.37.83-.3,1.66-.59,2.49-.89,1.05.48,2.1.97,3.15,1.45-1.92,1.92-3.84,3.84-5.76,5.76-.86-.26-1.73-.53-2.59-.79Z"/>
          <path class="cls-6" d="m127.54,74.84c-1.05-.48-2.1-.97-3.15-1.45,2.67-2.22,5.34-4.45,8.01-6.67.53.56,1.06,1.12,1.59,1.68-.82,1.23-1.64,2.46-2.46,3.69-1.05.96-2.09,1.92-3.14,2.88-.28-.04-.56-.08-.83-.12Z"/>
          <path class="cls-1" d="m114.44,40.82c-.52-.08-1.05-.16-1.57-.25.24-.38.49-.75.73-1.13.28.46.56.92.84,1.37Z"/>
          <path class="cls-5" d="m186.12,162.86c-1.31-2.06-2.62-4.13-3.68-5.8-4.08.87-7.93,1.7-11.78,2.53-1.19-.54-2.37-1.52-3.57-1.55-6.24-.16-12.48-.07-18.72-.07-6.59,0-7.12-.61-6.17-7.18.09-.65.3-1.32.61-1.9,2.43-4.52,5.68-8.68,5.99-14.12.02-.34.33-.82.63-.95,4.37-1.88,8.29-4.83,13.55-4.44,3.97.29,3.98,4.02,6.15,5.79,1.36,3.59,3.76.47,5.61.87.51.79.84,1.9,1.57,2.31,2.55,1.46,5.19.46,7.89.34,3.2-.15,4.51-2.37,4.5-3.95-.03-2.89-.62-5.57.18-8.66.69-2.68-1.03-5.89-.97-8.85.03-1.51,1.37-3.95,2.58-4.29,3.35-.94,4.29-3.48,5.22-6.11.91-2.57,1.48-5.25,2.25-8.09-.87-.08-1.52-.13-2.17-.19-.02-.72-.04-1.44-.05-2.16-.16-2.77,1.09-3.63,3.88-3.61,18.02.12,36.03.16,54.05-.02,3.6-.04,4.17,1.31,4.17,4.49-.09,37.25-.12,74.5.03,111.75.02,3.8-1.31,4.41-4.68,4.39-21.27-.13-42.53-.06-63.8-.06-.54,0-1.07-.02-1.61-.03,0-9.27.06-18.54-.09-27.81-.02-1.32-1.01-2.62-1.55-3.92,0-.54,0-1.08,0-1.63,2.39-2.27,2.38-14.85,0-17.09Z"/>
          <path class="cls-10" d="m189.37,213.34c21.27,0,42.53-.08,63.8.06,3.37.02,4.7-.6,4.68-4.39-.15-37.25-.12-74.5-.03-111.75,0-3.17-.57-4.52-4.17-4.49-18.01.18-36.03.14-54.05.02-2.79-.02-4.04.83-3.88,3.61-1.28-.15-2.57-.3-3.85-.46.69-3.48,2.81-4.78,6.33-4.76,20.38.1,40.77.06,61.15.07.55,2.28,1.57,4.55,1.58,6.83.1,36.89.07,73.79.07,110.68,0,4.82-1.32,6.18-6.21,6.18-20.62.02-41.23.03-61.85-.06-1.19,0-2.38-1.01-3.58-1.54Z"/>
          <path class="cls-10" d="m169.12,135.17c-2.17-1.77-2.18-5.49-6.15-5.79-5.26-.39-9.17,2.57-13.55,4.44-.3.13-.61.61-.63.95-.3,5.43-3.56,9.59-5.99,14.12-.31.58-.52,1.25-.61,1.9-.95,6.57-.42,7.18,6.17,7.18,6.24,0,12.48-.08,18.72.07,1.2.03,2.38,1.01,3.57,1.55-7.57,0-15.15.01-22.72,0q-7.3,0-7.42-7.39c-.2-1.6-.41-3.19-.61-4.79-.02-.8-.05-1.6-.07-2.4,1.05-1.93,2.1-3.85,3.14-5.78,1.64-2.7,3.28-5.39,4.92-8.09,1.19-1.05,2.25-2.37,3.61-3.1,3.32-1.77,6.79-3.27,10.2-4.88,2.53.71,5.09,1.34,7.57,2.19.82.28,2.11,1.28,2.03,1.73-.54,2.73-1.42,5.4-2.18,8.09Z"/>
          <path class="cls-10" d="m186.13,181.57c.54,1.31,1.53,2.61,1.55,3.92.14,9.27.08,18.54.09,27.81-.55-1.3-1.55-2.59-1.57-3.9-.14-9.28-.07-18.56-.07-27.83Z"/>
          <path class="cls-10" d="m186.12,162.86c2.39,2.24,2.39,14.82,0,17.09,0-5.7,0-11.39,0-17.09Z"/>
          <path class="cls-16" d="m139.9,147.42c.2,1.6.41,3.19.61,4.79-.97,2.46-1.95,4.92-2.92,7.38-.08-.49-.16-.98-.24-1.47.24-.91.48-1.81.72-2.72.3-1.28.6-2.55.9-3.83.22-1.4.45-2.79.67-4.19l.26.05Z"/>
          <path class="cls-16" d="m182.87,161.96c-5.43-.04-10.85-.07-16.28-.11,5.43.04,10.85.07,16.28.11Z"/>
          <path class="cls-16" d="m148.68,161.84c-1.9,0-3.79.01-5.69.02,1.9,0,3.79-.01,5.69-.02Z"/>
          <path class="cls-22" d="m184.13,163.05c-.43-.31-.87-.62-1.3-.93.43.31.87.62,1.3.93Z"/>
          <path class="cls-12" d="m74.63,125.38c.81.54,1.61,1.09,2.42,1.63,1.43.44,3.11,1.56,4.22,1.14,1.49-.57,2.43-2.45,3.8-3.52,1.26-.99,2.81-2.41,4.17-2.35,5.29.25,10.56.99,15.83,1.64.58.07,1.15.65,1.63,1.09,2.4,2.2,4.78,4.44,7.5,6.99-1.63,4.37-6.96,2.78-10.33,4.84-.25,0-.51-.03-.76-.09-1.07-.97-2.51-1.76-3.13-2.96-1.49-2.9-3.77-3.74-6.76-3.4-.73,0-1.47,0-2.2,0-2.96,2-7.68.05-9.72,4.35-.22.46-1.71.31-2.61.44-2.16-1.09-4.32-2.19-6.49-3.28l-3.32-4.82c-.44-1.3-.87-2.61-1.71-5.11,1.85.64,3.18.98,4.4,1.54,1.08.5,2.05,1.24,3.07,1.88Z"/>
          <path class="cls-3" d="m68.06,146.61c-2.98-.02-5.95-.03-8.93-.05.77-.54,1.47-1.24,2.31-1.57,1.27-.5,2.65-.75,4.81-1.32-2.05-1.52-3.35-2.47-4.64-3.43,0,0-.05-.31-.05-.31.31-.21.63-.42.94-.64.25,0,.49-.03.72-.12l.63-.69c.06-.29.13-.57.19-.86.54,0,1.07.01,1.61.02.25.26.51.52.76.78.86,1.86,1.73,3.71,2.59,5.57-.03.58-.05,1.15-.08,1.73-.29.29-.58.59-.87.88Z"/>
          <path class="cls-21" d="m63.23,139.17c-.23.08-.47.12-.72.12-.31.21-.63.42-.94.64,0,0,.05.31.05.31-.28-.07-.56-.15-.84-.22-.57-2.83-.75-6.01-5.02-5.52-.13.02-.34-.65-.52-.99,3.8,1.36,4.29-2.39,6.18-3.99.59,1.43,1.17,2.86,1.76,4.28-.04,1.35-3.99,3.6.87,3.83-.06.29-.13.57-.19.86-.21.23-.42.46-.63.69Z"/>
          <path class="cls-6" d="m63.97,123.01c.86,1.35,1.72,2.69,2.58,4.04-.04,1.07-.08,2.14-.11,3.22-1.58-.5-3.15-1-4.73-1.51.36-1.75,2.37-3.57-.24-5.18.56-.47,1.13-.93,1.69-1.4,0,0,.02,0,.02,0,.26.28.53.55.79.83Z"/>
          <path class="cls-13" d="m55.24,133.51c.17.35.39,1.01.52.99,4.27-.5,4.45,2.69,5.02,5.52-.19.18-.51.54-.54.51-2.2-1.66-4.42-3.29-6.52-5.07-.38-.32-.23-1.26-.33-1.92.53-.55,1.06-1.09,1.59-1.64.09.54.17,1.07.26,1.61Z"/>
          <path class="cls-1" d="m54.98,131.9c-.53.55-1.06,1.09-1.59,1.64-.46-2.45-3.97-4.27-1.5-7.32.51,0,1.01.01,1.52.02.82,1.08,1.64,2.16,2.46,3.24-.3.81-.59,1.62-.89,2.43Z"/>
          <path class="cls-6" d="m54.21,113.15c-.28-.03-.55-.06-.83-.09-.29-.85-.58-1.7-.87-2.55.1-1.03.21-2.06.31-3.1.86.23,1.72.46,2.53.67.49-1.14.9-2.08,1.31-3.02.05,1.89.1,3.78.15,5.67-.08.24-.13.5-.14.75-.82.55-1.64,1.1-2.46,1.66Z"/>
          <path class="cls-1" d="m66.44,130.27c.04-1.07.08-2.14.11-3.22.77,0,1.54.01,2.31.02,1.11,1.61,2.21,3.22,3.32,4.83,0,0-.04.04-.04.04-1.9-.56-3.8-1.11-5.7-1.67Z"/>
          <path class="cls-6" d="m55.87,129.47c-.82-1.08-1.64-2.16-2.46-3.24.82-.86,1.65-1.72,2.47-2.58.54.04,1.08.08,1.62.12,0,.32-.01.64-.02.96-.54,1.58-1.07,3.16-1.61,4.75Z"/>
          <path class="cls-13" d="m57.48,124.73c0-.32.01-.64.02-.96,2.68-3.08,3.98-3.45,5.66-1.58-.56.47-1.13.93-1.69,1.4-.21.1-.44.19-.66.26-.55.3-1.1.61-1.66.91-.56,0-1.12-.02-1.67-.03Z"/>
          <path class="cls-13" d="m55.88,123.65c-.82.86-1.65,1.72-2.47,2.58-.51,0-1.01-.01-1.52-.02-.02-2.96,1.19-4,3.99-2.56Z"/>
          <path class="cls-13" d="m63.97,123.01c-.26-.28-.53-.55-.79-.83.26.28.53.55.79.83Z"/>
          <path class="cls-1" d="m100.64,244.26c-.27-1.26-.78-2.53-.79-3.79-.05-19.18-.05-38.36,0-57.53,0-1.27.49-2.55.75-3.82.22.57.43,1.14.65,1.71.03,1.35.08,2.7.08,4.05,0,19.71-.02,39.41-.03,59.12-.22.09-.44.18-.66.27Z"/>
          <path class="cls-13" d="m132.36,245.84c-9.03.02-18.06.06-27.09.01-1.28,0-2.56-.47-3.83-.73,0,0,.11-.22.11-.22,10.29.08,20.59.16,30.88.24-.03.23-.05.46-.07.69Z"/>
          <path class="cls-8" d="m101.26,180.82c-.22-.57-.43-1.14-.65-1.71.01-.81.02-1.61.03-2.41.78-.29,1.57-.58,2.35-.87-.58,1.66-1.16,3.33-1.74,4.99Z"/>
          <path class="cls-1" d="m132.36,245.84c.02-.23.04-.46.07-.7.53-.02,1.07-.05,1.6-.07,0,0,.09.11.09.12-.58.22-1.17.43-1.75.65Z"/>
          <path class="cls-8" d="m101.44,245.12c-.27-.29-.53-.58-.8-.86.22-.09.44-.18.65-.27,0,0,.31.16.31.16-.08.25-.1.5-.07.75l-.11.22Z"/>
          <path class="cls-12" d="m136.48,86.33c.86.34,1.69.89,2.57.98,1.71.17,3.44.09,5.15.11-1.55,3.98-5,1.45-7.99,2.09.42,1.56.78,2.91,1.14,4.26.23,2.67.47,5.33.7,8-.74,2.28-1.54,4.55-2.17,6.87-.09.33.63.89.98,1.34.03.17.11.33.22.47-.28.06-.57.11-.85.17l-2.24,1.76c-1.74,0-3.47,0-5.21.02-1.78.03-3.24-.08-2.65-2.61.6-2.62.93-5.31,1.37-7.97,1.61-3.47,3.27-6.93,4.73-10.46.12-.29-.98-1.33-1.68-1.66-.79-.37-1.77-.32-2.94-.49.48-2.55-2.25-6.29,3.14-6.11.55.53,1.11,1.07,1.66,1.6,1.35.55,2.7,1.1,4.05,1.65Z"/>
          <path class="cls-22" d="m136.87,109.97c-.35-.45-1.07-1-.98-1.34.63-2.32,1.42-4.58,2.17-6.87.49-2.73,2.63-5.6-.7-8-.36-1.35-.72-2.69-1.14-4.26,2.99-.64,6.44,1.89,7.99-2.09,1.13-.02,2.26-.05,3.39-.07,1.78.74,3.56,1.48,5.33,2.23.98-.52,1.96-1.03,2.94-1.55.31.34.62.69.92,1.03.02.48.04.97.06,1.45-.26,1.41-.52,2.82-.78,4.23-7.38-2.22-9.29,4.29-12.95,8.01,1.43,1.33,2.82,2.61,4.2,3.89l-2.81,2.31c.44-.73.88-1.46,1.41-2.35-2.87-1.35-4.15-.74-3.76,2.4l.07.36c-.55.18-1.1.37-1.65.55-1.31-3.66-2.49-1.02-3.71.08Zm10.94-16.72c-3.5-.95-6.12-1.65-8.96-2.42,1.34,3.08,2.35,5.39,3.66,8.39,1.71-1.93,3.16-3.55,5.3-5.97Z"/>
          <path class="cls-6" d="m155.86,88.02c-.98.52-1.96,1.03-2.94,1.55-1.97-1.77-2.96-3.8-1.72-6.42.27-.27.54-.53.81-.8,1.6-.04,3.2-.08,4.81-.12.32.27.65.54.97.82.03.3.06.59.09.89-.03.52-.07,1.04-.1,1.56-.08.78-.17,1.56-.25,2.34-.21.1-.43.17-.66.2-.34,0-.67-.01-1.01-.02Z"/>
          <path class="cls-20" d="m155.92,70.02c1.69-1.59,3.37-3.18,5.06-4.76.51-.25,1.02-.5,1.53-.74,1.44,1.85.51,3.22-.91,4.5-.98.68-1.97,1.36-2.95,2.04-.91-.34-1.82-.69-2.73-1.03Z"/>
          <path class="cls-1" d="m136.48,86.33c-1.35-.55-2.7-1.1-4.05-1.65,0-.52-.02-1.05-.02-1.57,1.13-.47,2.25-.94,3.38-1.41.98-.15,1.97-.31,2.95-.46.58-.22,1.15-.45,1.72-.67-1.33,1.92-2.65,3.84-3.98,5.76Z"/>
          <path class="cls-13" d="m151.2,83.15c-1.24,2.63-.25,4.66,1.72,6.42-1.78-.74-3.55-1.49-5.33-2.23,1.2-1.4,2.41-2.8,3.61-4.2Z"/>
          <path class="cls-6" d="m161.61,69.01c1.42-1.27,2.35-2.65.91-4.5,1.08.5,2.16.99,3.24,1.48-.82,1.78-1.33,3.97-4.14,3.01Z"/>
          <path class="cls-6" d="m91.69,35.04c4.37-.38,5.42.52,6.76,5.84-.99,1.2-1.84,2.59-3.06,3.5-.42.32-1.73-.54-2.64-.86,1.39-3.32-1.86-5.02-2.64-7.58.52-.3,1.04-.6,1.57-.9Z"/>
          <path class="cls-21" d="m88.43,57.81c.02-.24.06-.47.14-.69,2.59-.82,4.94-1.72,3.49-5.31-.19-.47.84-1.44,1.3-2.18.82.29,1.65.57,2.47.86.04,1.47.5,3.1.01,4.36-.78,1.99-2.2,3.74-3.35,5.59-1.08-.11-2.16-.21-3.24-.32-.27-.77-.54-1.54-.81-2.3Z"/>
          <path class="cls-8" d="m92.48,60.43c1.15-1.85,2.57-3.59,3.35-5.59.49-1.26.03-2.9-.01-4.36.96.85,2.14,1.55,2.81,2.58.91,1.4,1.42,3.05,2.1,4.59-1.42,1.17-2.84,2.34-4.25,3.51-1.33-.24-2.66-.49-3.99-.73Z"/>
          <path class="cls-21" d="m96.47,61.17c1.42-1.17,2.83-2.34,4.25-3.51,1.6,3.4-1.11,4.02-3.23,5.03-.34-.51-.68-1.01-1.02-1.52Z"/>
          <path class="cls-13" d="m107.29,44.08c-.31.52-.62,1.04-.93,1.56.31-.52.62-1.04.93-1.56Z"/>
          <path class="cls-11" d="m102.39,48.9c-.03.29-.05.58-.08.88.03-.29.05-.58.08-.88Z"/>
          <path class="cls-21" d="m172.15,73.15c-2.74,2.34-5.12,5.72-9.52,3.34-.24-2.04-.02-3.52,2.56-4.1,1.48-.33,2.69-1.85,4.29-3.04.79.41,1.82.95,2.86,1.49-.06.77-.12,1.54-.19,2.3Z"/>
          <path class="cls-6" d="m155.92,70.02c.91.34,1.82.69,2.73,1.03-.58,1.28-1.17,2.57-1.95,4.29-1.76-1.95-3.96-3.24-.78-5.32Z"/>
          <path class="cls-8" d="m172.15,73.15c.06-.77.12-1.54.19-2.3.5.02.99.04,1.49.06-.56.75-1.11,1.5-1.67,2.24Z"/>
          <path class="cls-13" d="m157.53,87.83c.08-.78.17-1.56.25-2.34.21.81.42,1.63.63,2.44-.29-.03-.58-.07-.88-.1Z"/>
          <path class="cls-13" d="m157.88,83.93c-.03-.3-.06-.59-.09-.89.11.2.24.39.3.6.02.07-.14.19-.21.29Z"/>
          <path class="cls-12" d="m94.87,91.95c1.82-.54,2.43-3.77,5.15-2.33-.02.46-.04.93-.06,1.39,3.15,3.1,7.2,3.78,11.34,4.22,1.08,2.71,2.16,5.43,3.23,8.14-1.36,1.38-2.8,2.7-4.05,4.18-.73.86-1.15,1.99-1.7,3-.8.1-1.59.2-2.39.31-1.45-.87-2.9-1.75-4.77-2.87.5-7.25-8.22-5.28-11.47-9.63,6.93-2.21,7.48-3.02,4.72-6.38v-.03Z"/>
          <path class="cls-13" d="m114.53,103.37c-1.08-2.71-2.16-5.43-3.24-8.14-.02-.8-.05-1.6-.07-2.41l-.03-.1c.79-.22,1.57-.45,2.36-.67,1.39,2.2,2.78,4.41,4.16,6.61.27,1.13.54,2.26.83,3.46.95-.48,1.63-.83,2.32-1.18,0,.8.34,1.94-.06,2.35-3.03,3.11-2.09,6.96-2.28,10.62-.04.86-.51,1.69-.78,2.54-.28-1.91-.56-3.82-.84-5.73-.79-2.45-1.59-4.9-2.38-7.35Z"/>
          <path class="cls-1" d="m120.86,100.95c-.69.35-1.37.7-2.32,1.18-.29-1.2-.55-2.33-.83-3.46.01-2.38-.11-4.77.11-7.13.09-.96.94-1.84,1.44-2.76.52.56,1.04,1.12,1.56,1.68.01,3.5.02,6.99.03,10.49Z"/>
          <path class="cls-6" d="m103.15,87.26c2.66-2.06,4.94-.49,7.24.78.27,1.56.53,3.13.8,4.69,0,0,.03.1.03.1-.53-.02-1.05-.04-1.58-.06-2.16-1.84-4.33-3.67-6.49-5.51Z"/>
          <path class="cls-8" d="m120.82,90.46c-.52-.56-1.04-1.12-1.56-1.68,0-1.36-.01-2.71-.02-4.07-.21-.54-.43-1.08-.64-1.62-.03-.55-.05-1.09-.08-1.64.22-.54.44-1.09.66-1.63.86.26,1.72.53,2.59.79.25,1.94.5,3.87.75,5.81-.57,1.35-1.13,2.7-1.7,4.05Z"/>
          <path class="cls-8" d="m103.15,87.26c2.16,1.84,4.33,3.67,6.49,5.51-3.23-.58-6.46-1.17-9.68-1.76.02-.46.04-.93.06-1.39,1.05-.79,2.09-1.57,3.14-2.36Z"/>
          <path class="cls-8" d="m94.91,89.63c-.01.78-.02,1.55-.04,2.33,0,0,0,.03,0,.03-.74.04-1.49.08-2.24.13-.57-1.64-1.14-3.28-1.71-4.92.76-.31,1.52-.62,2.28-.93l.15.11c.52,1.09,1.04,2.18,1.55,3.26Z"/>
          <path class="cls-8" d="m111.19,92.73c-.27-1.56-.53-3.13-.8-4.69,1.05,1.34,2.1,2.68,3.15,4.02-.79.22-1.57.45-2.36.67Z"/>
          <path class="cls-8" d="m89.05,83.34c1.69.18,3.37.36,5.06.54.02.82.03,1.64.05,2.46-.27,0-.54,0-.8.02,0,0-.15-.11-.15-.11-.77-.52-1.54-1.04-2.32-1.56l-1.84-1.35Z"/>
          <path class="cls-1" d="m93.35,86.36c.27-.02.54-.03.8-.02.25,1.09.5,2.19.75,3.28-.52-1.09-1.04-2.18-1.55-3.26Z"/>
          <path class="cls-1" d="m118.6,83.08c.22.54.43,1.08.64,1.62-.22-.54-.43-1.08-.64-1.62Z"/>
          <path class="cls-19" d="m135.61,142.53c.02,6.52.05,13.03.07,19.55,0,0,0-.02,0-.02-.26.55-.52,1.09-.77,1.64-.37,1.06-.74,2.13-1.12,3.19-.47-1.16-1.42-2.37-1.31-3.47.27-2.65-.87-3.94-3.2-4.59-.02-.28-.03-.56-.05-.84,3.99-4.07,2.63-8.15.03-12.24,1.31-1.63,2.62-3.25,3.93-4.88,0,0,.4,0,.4,0l.39.04c.54.54,1.08,1.09,1.62,1.63Z"/>
          <path class="cls-18" d="m133.21,140.87c-1.31,1.63-2.62,3.25-3.93,4.88-1.96-1.32-3.91-2.64-5.87-3.95-.85-.89-1.71-1.77-2.56-2.66.31-.29.61-.57.92-.85.33-.47.66-.94,1-1.41.48-1.12.95-2.24,1.43-3.36,1.13,0,2.26.01,3.39.02.52.26,1.05.53,1.57.79,1.35,2.18,2.7,4.37,4.06,6.55Z"/>
          <path class="cls-20" d="m120.85,139.14c.85.89,1.71,1.77,2.56,2.66-4,.39-8,.71-11.98,1.2-1.17.14-2.27.78-3.41,1.19-.55.29-1.11.57-1.66.86-1.87.03-3.75.07-5.62.1-.54-.31-1.09-.62-1.63-.92,0-.32-.01-.64-.02-.97,1.61-.59,3.23-1.19,4.84-1.78.49-.05.97-.09,1.46-.14.6-.18,1.19-.36,1.79-.53,4.56-.55,9.12-1.11,13.68-1.66Z"/>
          <path class="cls-8" d="m99.1,144.22c.54.31,1.09.61,1.63.92-1.39,1-2.79,1.99-4.18,2.99,0,0-.03.03-.03.03-1.66-.05-3.31-.09-4.97-.14.57-.47,1.14-.95,1.71-1.42,1.11-.29,2.21-.58,3.32-.86.84-.51,1.68-1.01,2.52-1.52Z"/>
          <path class="cls-8" d="m106.36,145.05c.55-.29,1.11-.57,1.66-.86-.55.29-1.11.57-1.66.86Z"/>
          <path class="cls-19" d="m89.05,83.34c.61.45,1.23.9,1.84,1.35.01.83.02,1.66.03,2.49.57,1.64,1.14,3.28,1.71,4.92-.3.27-.61.55-.91.82-1.06-.09-2.11-.18-3.17-.27-.31-.48-.62-.96-.93-1.44-.53-.89-1.07-1.78-1.6-2.67-.29-1.15-.39-2.4-.92-3.42-.49-.95-1.43-1.67-2.17-2.48-.61,1.02-1.78,2.09-1.7,3.06.16,1.89,1.01,3.73,1.57,5.58-2.18-.32-4.36-.63-6.54-.95-1.4-2.94-3.8-5.84.1-8.81.56-.42.49-1.66.72-2.53.54-1.01,1.08-2.01,1.63-3.02.48.06.96.12,1.44.18,1.28,3.53,4.2,3.83,7.33,3.73.52,1.15,1.05,2.3,1.57,3.44Z"/>
          <path class="cls-6" d="m87.48,79.9c-3.13.1-6.05-.21-7.33-3.73,1.95.38,3.9.76,5.86,1.13.49.87.98,1.73,1.47,2.6Z"/>
          <path class="cls-6" d="m78.71,75.98c-.54,1.01-1.08,2.01-1.63,3.02-1.45-2.55-1.25-2.92,1.63-3.02Z"/>
          <path class="cls-8" d="m107.94,49.12c1.11.01,2.22.02,3.33.04-1.14,2.04-2.25,2.08-3.33-.04Z"/>
          <path class="cls-16" d="m156.07,94.72c.26-1.41.52-2.82.78-4.23,8.7-.09,17.41-.18,26.11-.27.72.64,1.44,1.28,2.15,1.92-1.79.27-3.58.55-5.37.82-.59-.56-1.18-1.13-1.77-1.69-.54,0-1.07,0-1.61-.01-4.33-.01-8.67.08-13-.07-2.47-.09-3.89.75-4.1,3.29-.82.3-1.63.61-2.45.91-.25-.22-.49-.45-.74-.67Z"/>
          <path class="cls-8" d="m185.11,92.14c-.72-.64-1.44-1.28-2.15-1.92,0-.18.03-.35.09-.52.93-.06,1.86-.12,2.79-.18.11.29.21.58.32.87-.01.26.02.52.08.78-.05.45-.11.9-.16,1.36,0,0,.08.35.08.35-.35-.25-.7-.49-1.05-.74Z"/>
          <path class="cls-13" d="m155.86,88.02c.34,0,.67.01,1.01.02-.03.34-.06.67-.09,1.01-.31-.34-.62-.68-.92-1.03Z"/>
          <path class="cls-11" d="m103.84,136.84c3.37-2.06,8.71-.48,10.33-4.85-2.72-2.54-5.1-4.78-7.5-6.99-.48-.44-1.05-1.02-1.63-1.09-5.27-.65-10.54-1.39-15.83-1.64-1.36-.07-2.91,1.36-4.17,2.35-1.37,1.08-2.31,2.96-3.8,3.52-1.1.42-2.79-.71-4.22-1.14,1.63-1.08,3.26-2.15,4.89-3.23,0,0,0,0,0,0,2.16-1.61,4.33-3.22,6.49-4.83.83,0,1.66.01,2.49.02,3.5,2.17,6.99,4.44,11.37,2.37,4.09,1.86,8.17,3.72,12.26,5.57l3.25,6.69-.03,1.58c.06,2.89-1.97,3.19-4.1,3.23-3.24.06-6.48.02-9.72.02-.03-.53-.06-1.05-.09-1.58Z"/>
          <path class="cls-8" d="m90.91,118.97c-.83,0-1.66-.01-2.49-.02-1.51-.15-3.01-.3-4.29-.43-.8,1.92-1.5,3.59-2.2,5.27,0,0,0,0,0,0-.82-.25-1.63-.5-2.45-.74.54-.92,1.07-1.85,1.61-2.77-.2-.24-.4-.48-.6-.72-1.12.62-2.25,1.24-3.37,1.86v-5.83c1.97,0,3.81,0,5.65,0,.53,0,1.06-.02,1.59-.02,3.18.35,6.35.7,9.52,1.04.17-.51.35-1.02.52-1.53-1.17-1.19-2.34-2.38-3.51-3.57-.27-.52-.54-1.04-.81-1.56.01-.31.02-.61.04-.92.98.26,1.95.51,2.52.66.73-1.03,1.48-2.08,2.22-3.13.83,2.21,1.65,4.43,2.48,6.64-.3,1.08-.61,2.15-.91,3.23-.2.54-.4,1.07-.61,1.61-1.64.31-3.27.61-4.91.92Z"/>
          <path class="cls-21" d="m77.11,121.41c1.12-.62,2.25-1.24,3.37-1.86.2.24.4.48.6.72-.54.92-1.07,1.85-1.61,2.77-.79-.54-1.58-1.09-2.37-1.63Z"/>
          <path class="cls-19" d="m70.12,165.81c-.97.63-1.95,1.27-3.24,2.11-.73-1.36-1.37-2.56-2.11-3.92-1.59.5-3.17,1-4.75,1.5-.84-.62-1.69-1.25-2.53-1.87,0-.76,0-1.52,0-2.29,1.04-.09,2.08-.18,3.13-.27.72.33,1.42.82,2.18.94,1.07.16,2.18.07,3.27.04,1.43-.03,2.86-.1,4.29-.15-.42-1.68-.73-3.41-1.32-5.03-.29-.79-1.37-1.28-1.66-2.07-1.48-3.99-2.39-4.3-5.76-1.84-1.25.91-2.57,1.72-3.72,2.47.76.94,1.38,1.71,2.01,2.48-1.86-.27-3.72-.53-5.58-.8.29-1.56.58-3.11.87-4.67.88-.22,2.39-.24,2.54-.7,1.37-4.15,4.73-2.6,7.43-2.7,2.84-.1,3.36,2.11,3.76,4.31.07.37.24.99.47,1.03,5.65,1.16,3.14,5.3,3.14,8.52-.04.44-.08.88-.12,1.32l-.16-.15s-.21.08-.21.08c-.57.58-1.14,1.15-1.71,1.72l-.2-.07Z"/>
          <path class="cls-8" d="m81.18,153.18c-.79.14-1.57.28-2.7.48.07-.72.15-1.41.22-2.11,2.69-1.12,5.38-2.25,8.07-3.37.29.29.58.59.87.88,0,.54,0,1.08,0,1.61-2.15.84-4.31,1.67-6.46,2.51Z"/>
          <path class="cls-1" d="m87.64,150.67c0-.54,0-1.08,0-1.62,1.31-.34,2.61-.69,3.92-1.03,1.66.05,3.31.09,4.97.14.02.55.03,1.11.05,1.66-.54.54-1.09,1.08-1.63,1.62-2.43-.26-4.86-.52-7.3-.77Z"/>
          <path class="cls-1" d="m70.32,165.88c.57-.57,1.14-1.15,1.71-1.72-.57.57-1.14,1.15-1.71,1.72Z"/>
          <path class="cls-1" d="m72.41,164.23c.04-.44.08-.88.12-1.32.42-.02.85-.03,1.28-.05-.47.46-.93.91-1.4,1.37Z"/>
          <path class="cls-19" d="m101.61,244.15s-.32-.16-.31-.16c.01-19.71.03-39.41.04-59.12,0-1.35-.05-2.7-.08-4.05.58-1.66,1.16-3.33,1.74-4.99,3.65-.25,7.3-.45,10.95-.77,2.34-.21,4.66-.61,6.99-.92-1.73,3.11-4.7,3.18-7.77,3.42-2.3.18-4.56.99-6.83,1.52l-.03.04c-1.07,1.63-3.06,3.25-3.08,4.89-.22,17.95-.16,35.91-.07,53.86,0,1.05,1.01,2.1,1.54,3.14h.01c1.05.55,2.06,1.47,3.15,1.56,2.68.23,5.4.16,8.1.05,4.39-.17,8.78-.46,13.16-.7,2.77-.51,3.81-1.75,2.78-4.75-.62-1.8-.24-3.94-.31-5.93,2.37.21,2.47-1.32,2.46-3.08-.04-4.39,0-8.79,0-13.18h0c1.63-.54,3.25-1.07,4.88-1.61h4.85c.79.53,1.57,1.5,2.37,1.52,6.49.12,12.99.12,19.48.04,3.01-.03,4.25-1.82,4.23-4.73-.04-7.04.03-14.07-.04-21.11-.01-1.41-.47-2.83-.72-4.24-.3-1.9-.61-3.8-.91-5.7.47-2.88-1.09-3.34-3.55-3.31-8.8.1-17.6.08-26.4,0-1.41-.01-2.81-.5-4.22-.77,12.42.03,24.84.05,37.26.08,0,0,.13-.04.13-.05.07.8.15,1.61.22,2.41,0,.8.02,1.59.03,2.39,0,.3.01.59.02.89.11,11.34.21,22.68.31,34.02-.16.38-.32.76-.48,1.14-.56.02-1.12.04-1.68.05-11.1-.03-22.2-.05-33.3-.08-.57,1.1-1.61,2.19-1.63,3.29-.16,8.31-.12,16.63-.14,24.94-.2.08-.41.15-.62.2-10.85-.08-21.7-.15-32.54-.23Z"/>
          <path class="cls-8" d="m136.54,215.94c11.1.02,22.2.05,33.3.08-2.91.2-5.81.54-8.72.57-8.19.08-16.38.03-24.57.03-.03-.22-.04-.45-.01-.67Z"/>
          <path class="cls-6" d="m101.61,244.15c10.85.08,21.7.15,32.54.23-.03.23-.07.47-.13.7-.53.02-1.07.05-1.6.07-10.29-.08-20.59-.16-30.88-.24-.03-.26-.01-.51.07-.75Z"/>
          <path class="cls-6" d="m136.54,215.94c-.02.23-.02.45.01.67-.31,1.51-.86,3.02-.88,4.54-.1,6.44,0,12.89-.07,19.33-.02,1.23-.54,2.46-.83,3.69.02-8.31-.02-16.63.14-24.94.02-1.11,1.06-2.2,1.63-3.29Z"/>
          <path class="cls-6" d="m137.12,46.48c1.69-2.45,3.37-4.89,5.06-7.34.26-.07.52-.14.78-.22,4.88-1.81,4.43,2.59,5.76,4.93-1.17.89-2.34,1.77-3.51,2.66-.92.03-2.25-.33-2.69.14-1.99,2.13-3.66,1.51-5.4-.17Z"/>
          <path class="cls-20" d="m120.82,90.46c.57-1.35,1.13-2.7,1.7-4.05.56,1.62,1.12,3.24,1.68,4.85,0,0,0,0,0,0-.83,9.74-1.66,19.49-2.49,29.23-1.29,0-2.57,0-3.86,0-.11-.55-.22-1.1-.32-1.65.07-.8.14-1.6.21-2.39.27-.85.73-1.68.78-2.54.19-3.66-.75-7.51,2.28-10.62.4-.41.06-1.55.06-2.35-.01-3.5-.02-6.99-.03-10.49Z"/>
          <path class="cls-11" d="m130.77,83.08c-5.39-.17-2.66,3.56-3.14,6.11,1.16.17,2.15.12,2.94.49.7.33,1.8,1.37,1.68,1.66-1.47,3.53-3.12,6.99-4.73,10.46,0-1.58.21-3.19-.06-4.72-.26-1.45-1.01-2.82-1.55-4.22-.56-.53-1.12-1.07-1.68-1.6,0,0,0,0,0,0,.01-1.33.03-2.65.04-3.98.02-4.9.75-5.65,5.77-5.89.28-.02.57-.05.85-.07,0,0,.03.04.03.04.01.52.02,1.04.04,1.56l-.17.17Z"/>
          <path class="cls-20" d="m138.73,81.24c-.98.15-1.97.31-2.95.46-1.63-.12-3.25-.23-4.88-.35,0,0-.03-.04-.03-.04.82-.84,1.64-1.68,2.46-2.52.48.04.97.09,1.45.13,1.35-.21,2.7-.41,4.05-.61-.03.98-.06,1.95-.1,2.93Z"/>
          <path class="cls-8" d="m133.33,78.8c-.82.84-1.64,1.68-2.46,2.52-.28.02-.57.05-.85.07.04-1.2.08-2.39.12-3.59,1.06.33,2.12.66,3.18,1Z"/>
          <path class="cls-12" d="m128.37,74.96c1.05-.96,2.09-1.92,3.14-2.88,1.73,3.99-1.52,2.55-3.14,2.88Z"/>
          <path class="cls-19" d="m56.67,105.06c-.41.94-.82,1.88-1.31,3.02-.8-.21-1.67-.44-2.53-.67-.09-.25-.17-.51-.24-.77,0-1.07.02-2.15.02-3.22h0c1.09,0,2.18,0,3.27,0,.26.55.53,1.09.79,1.64Z"/>
          <path class="cls-8" d="m43.65,104.21c.02-.51.05-1.02.07-1.53,2.89-.07,5.77-.15,8.66-.22.08.32.16.64.23.97,0,0,0,0,0,0-.85.33-1.7.65-2.55.98-2.14-.06-4.27-.13-6.41-.19Z"/>
          <path class="cls-6" d="m52.61,103.42c-.08-.32-.15-.64-.23-.97.07-.23.14-.47.19-.71,1.08.04,2.15.08,3.23.11.03.52.05,1.04.08,1.57-1.09,0-2.18,0-3.27,0Z"/>
          <path class="cls-8" d="m55.8,101.86c-1.08-.04-2.15-.08-3.23-.11,1.17-2.47,2.22-1.78,3.23.11Z"/>
          <path class="cls-11" d="m86.76,148.17c-2.69,1.12-5.38,2.25-8.07,3.37-2.56.57-5.13,1.14-7.57,1.68-1.01-2.18-2.04-4.4-3.07-6.62.29-.29.58-.59.87-.88.37-.12.73-.24,1.1-.36.18.37.36.73.54,1.1.24.31.48.63.71.94.04.24.08.47.11.71.3.52.6,1.04.91,1.55.49-.48.99-.96,1.48-1.45,1.05-1.62,2.1-3.25,3.15-4.87.37-.78.75-1.57,1.12-2.35,1.83,1.32,3.66,2.64,5.49,3.95.26.06.51.11.77.15.27.23.53.47.8.7.59.81,1.18,1.61,1.78,2.42,0,0-.12-.05-.12-.05Z"/>
          <path class="cls-21" d="m145.21,46.51c1.17-.89,2.34-1.77,3.51-2.66.74.19,1.47.38,2.29.6-2.5,3.81-3.68,4.19-5.81,2.06Z"/>
          <path class="cls-18" d="m134.03,175.07c1.41.27,2.81.76,4.22.77,8.8.07,17.6.1,26.4,0,2.46-.03,4.02.43,3.55,3.31-2.26-.54-4.52-1.51-6.8-1.56-9.16-.18-18.34.02-27.5-.15-2.43-.04-4.83-1.06-7.27-1.3-1.34-.13-2.78.34-4.11.74-2.19.66-4.28,1.9-6.49,2.15-3.19.36-6.46.06-9.7.05,2.28-.53,4.53-1.34,6.83-1.52,3.07-.24,6.04-.31,7.77-3.42,1.08-1.6,2.15-3.2,3.23-4.79,1.71-3.5,3.42-7.01,5.13-10.51,2.33.65,3.47,1.95,3.2,4.59-.11,1.1.84,2.31,1.31,3.47.12.23.15.47.11.73-.35.5-.69.99-1.04,1.49-.21.88-.42,1.77-.63,2.65-.91.86-1.81,1.73-3.48,3.32,2.46,0,3.87,0,5.27,0Z"/>
          <path class="cls-17" d="m185.45,94.77c.22.71.45,1.43.67,2.14-.57,1.03-1.15,2.05-1.72,3.08-.24.86-.72,1.74-.67,2.58.07,1.11.54,2.19.84,3.29-1.63.52-3.25,1.04-4.88,1.56-.23-.63-.47-1.26-.7-1.9-.36-1.8-.72-3.61-1.07-5.41.63-.76,1.25-1.52,1.88-2.28,1.71-1.33,2.17-4.99,5.65-3.05Z"/>
          <path class="cls-22" d="m191.88,95.94c1.28.15,2.57.3,3.85.46.02.72.04,1.44.05,2.16-.84,1.02-1.68,2.04-2.52,3.06-.51.03-1.01.06-1.52.09-.06-1.65,2.2-4.17-1.65-4.39.6-.46,1.19-.91,1.79-1.37Z"/>
          <path class="cls-17" d="m190.1,97.31c3.85.22,1.6,2.74,1.65,4.39,0,0,0,.02,0,.02-1.35.04-2.7.09-4.04.13-.06-.22-.13-.44-.22-.66.37-1.15.74-2.29,1.11-3.44.5-.15,1-.3,1.5-.45Z"/>
          <path class="cls-22" d="m185.45,94.77c-3.48-1.94-3.93,1.72-5.65,3.05-.02-1.62-.04-3.24-.06-4.86,1.79-.27,3.57-.55,5.37-.82.35.25.7.49,1.05.74-.24.63-.47,1.26-.71,1.89Z"/>
          <path class="cls-17" d="m186.08,92.53c.05-.45.11-.9.16-1.36,1.53.05,3.06.09,4.58.14,0,.71.01,1.41.02,2.12-1.59-.3-3.17-.6-4.76-.9Z"/>
          <path class="cls-22" d="m188.59,97.76c-.37,1.15-.74,2.29-1.11,3.44-1.03-.4-2.06-.8-3.08-1.2.57-1.03,1.15-2.05,1.72-3.08.82.28,1.65.57,2.47.85Z"/>
          <path class="cls-8" d="m52.59,106.64c.07.26.15.52.24.77-.1,1.03-.21,2.06-.31,3.1-1.1,1.19-2.2,2.37-3.3,3.56-1.04-1.92-2.07-3.84-3.11-5.76,2.16,1.58,3.14-.11,4.22-1.52.75-.05,1.5-.09,2.26-.14Z"/>
          <path class="cls-21" d="m50.33,106.78c-1.08,1.41-2.06,3.1-4.22,1.52-.25-.29-.5-.58-.75-.87-.58-.52-1.17-1.04-1.75-1.55.01-.56.02-1.12.03-1.67,2.14.06,4.27.13,6.41.19.09.79.18,1.59.27,2.38Z"/>
          <path class="cls-21" d="m49.22,114.07c1.1-1.19,2.2-2.37,3.3-3.56.29.85.58,1.7.87,2.55-1.39.34-2.78.67-4.16,1.01Z"/>
          <path class="cls-8" d="m43.62,105.88c.58.52,1.17,1.04,1.75,1.55-.58-.52-1.17-1.04-1.75-1.55Z"/>
          <path class="cls-13" d="m109.54,70c.83-.81,1.65-1.62,2.48-2.43-.83.81-1.65,1.62-2.48,2.43Z"/>
          <path class="cls-21" d="m57.49,161.34c0,.76,0,1.52,0,2.29-.79.57-1.58,1.14-2.37,1.71-.84.02-1.67.05-2.51.07-.55-1.13-1.11-2.26-1.66-3.39.6-.51,1.19-1.03,1.79-1.54,1.58.28,3.16.57,4.74.85Z"/>
          <path class="cls-6" d="m57.49,161.34c-1.58-.28-3.16-.57-4.74-.85.52-1.12,1.05-2.24,1.57-3.36,1.86.27,3.72.53,5.58.8.24,1.05.48,2.1.72,3.15-1.04.09-2.08.18-3.13.27Z"/>
          <path class="cls-20" d="m186.16,90.39c-.11-.29-.21-.58-.32-.87.1-.52.21-1.04.31-1.56.45-.59.91-1.19,1.36-1.78.08-.23.16-.45.25-.67,3.31.67,2.83,2.64,1.65,4.84-1.09.01-2.17.02-3.25.04Z"/>
          <path class="cls-8" d="m187.5,86.19c-.45.59-.91,1.19-1.36,1.78.45-.59.91-1.19,1.36-1.78Z"/>
          <path class="cls-11" d="m97.34,113.21c-.83-2.21-1.65-4.43-2.48-6.64.5-.71,1.01-1.43,2.13-3.02h-6.07c-.22-.14-.46-.22-.72-.25-.35-.75-.69-1.5-1.04-2.25-.53-1.91-1.05-3.82-1.58-5.73,1.38-.79,2.76-1.59,4.14-2.38.3-.27.61-.55.91-.82.75-.04,1.49-.08,2.24-.12,2.76,3.37,2.21,4.17-4.72,6.38,3.26,4.34,11.97,2.38,11.47,9.63,1.86,1.12,3.32,1.99,4.77,2.87.02.52.03,1.05.05,1.57-.15.52-.3,1.04-.45,1.56-2.82,0-5.65,0-8.47-.01-.09-.25-.15-.51-.18-.78Z"/>
          <path class="cls-6" d="m82.81,91.28c-.56-1.86-1.42-3.69-1.57-5.58-.08-.97,1.09-2.04,1.7-3.06.74.82,1.68,1.53,2.17,2.48.53,1.03.63,2.27.92,3.42-1.07.91-2.14,1.82-3.21,2.74Z"/>
          <path class="cls-8" d="m87.59,95.31c.53,1.91,1.05,3.82,1.58,5.73-.48,0-.97-.01-1.45-.02-.32-.01-.64-.03-.96-.04-.55-1.89-1.09-3.79-1.64-5.68.82,0,1.64,0,2.47,0Z"/>
          <path class="cls-6" d="m87.63,91.22c.31.48.62.96.93,1.44-.31-.48-.62-.96-.93-1.44Z"/>
          <path class="cls-1" d="m90.89,111.5l3.51,3.57c-.17.51-.35,1.02-.52,1.53-3.17-.35-6.35-.7-9.52-1.04,0-.79.01-1.58.02-2.37,2.17-.56,4.35-1.12,6.52-1.69Z"/>
          <path class="cls-6" d="m87.72,101.02c.48,0,.97.01,1.45.02.34.75.69,1.5,1.03,2.25-.11.12-.21.23-.32.34-1.27.6-3.22.89-3.66,1.86-.78,1.74-.65,3.89-.91,5.87-.6.09-1.2.19-1.79.28,0,0-.04-.04-.04-.04.02-1.1.05-2.2.07-3.3.07-.23.11-.47.13-.72.26-1.63.51-3.27.77-4.9.24-.02.47-.06.7-.12.85-.52,1.71-1.04,2.56-1.55Z"/>
          <path class="cls-13" d="m83.52,111.64c.6-.09,1.2-.19,1.79-.28.73-.01,1.45-.03,2.18-.05l2.59-1.37c.27.52.54,1.04.81,1.56-2.17.56-4.35,1.12-6.52,1.68-.29-.51-.57-1.03-.86-1.54Z"/>
          <path class="cls-13" d="m84.45,102.69c-.26,1.63-.51,3.26-.77,4.9-.56-1.64-1.13-3.27-1.69-4.91.82,0,1.64,0,2.46,0Z"/>
          <path class="cls-13" d="m83.55,108.3c-.02,1.1-.05,2.2-.07,3.3-2.24-1.15-2.23-2.25.07-3.3Z"/>
          <path class="cls-1" d="m52.62,165.41c.84-.02,1.67-.05,2.51-.07,1.11.76,2.22,1.52,3.32,2.28-1.94-.45-3.87-.91-5.81-1.36,0-.28-.01-.56-.02-.84Z"/>
          <path class="cls-8" d="m58.45,167.62c-1.11-.76-2.22-1.52-3.32-2.28.79-.57,1.58-1.14,2.37-1.71.84.62,1.69,1.25,2.53,1.87-.07.71-.13,1.42-.2,2.13-.46,0-.92,0-1.38,0Z"/>
          <path class="cls-13" d="m87.72,101.02c-.85.52-1.71,1.04-2.56,1.55.54-.53,1.07-1.06,1.61-1.59.32.01.64.03.96.04Z"/>
          <path class="cls-1" d="m186.16,90.39c1.08-.01,2.17-.02,3.25-.04.48.05.96.1,1.44.16.09.27.09.53-.03.8-1.53-.04-3.06-.09-4.59-.14-.07-.26-.09-.51-.08-.78Z"/>
          <path class="cls-5" d="m187.76,228.76c1.08.82,2.16,1.65,3.25,2.47-.54,9.06-1.2,18.11-1.56,27.18-.12,3.06.45,6.16.76,9.23.31,3.08-.83,4.38-4.11,4.34-11.64-.14-23.29-.13-34.93,0-3.09.03-4.11-1.39-4.1-4.14,0-4.6,0-9.21,0-13.81,0,0,0,0,0,0,2.57-2.35,2.33-3.8-.81-4.89,0-1.89,0-3.79,0-5.68.81-.92,2.23-1.79,2.31-2.77.3-3.3-.04-6.66.22-9.97.07-.95,1.27-2.56,2.01-2.6,5.26-.22,10.91-1.31,15.71.19,6.48,2.02,12.78.63,19.11,1.24.69.07,1.44-.51,2.16-.79Z"/>
          <path class="cls-16" d="m193.23,232.84c0,.69,0,1.39,0,2.08,0-.69,0-1.39,0-2.08Z"/>
          <path class="cls-16" d="m193.07,230.38c.03.32.07.65.1.98-.21-.03-.42-.07-.63-.12.18-.29.35-.57.53-.86Z"/>
          <path class="cls-10" d="m146.24,249.14c3.14,1.09,3.38,2.54.81,4.89l-.81-4.89Z"/>
          <path class="cls-6" d="m134.03,175.07h-5.27c1.67-1.59,2.58-2.45,3.48-3.32,1.43.83,2.85,2.36,4.3,2.39,11.61.22,23.22.17,34.84.19-.03.27-.06.54-.09.81-12.42-.03-24.84-.05-37.26-.08Z"/>
          <path class="cls-13" d="m132.88,169.11c.35-.5.69-.99,1.04-1.49.02.57.04,1.14.06,1.71-.37-.07-.74-.15-1.1-.22Z"/>
          <path class="cls-8" d="m171.65,177.52c-.07-.8-.15-1.61-.22-2.41.07.8.15,1.61.22,2.41Z"/>
          <path class="cls-8" d="m171.69,180.8c0-.3-.01-.59-.02-.89.09.2.2.4.25.62.02.07-.14.18-.22.27Z"/>
          <path class="cls-20" d="m134.92,163.7c.26-.55.52-1.09.77-1.64-.26.55-.52,1.09-.77,1.64Z"/>
          <path class="cls-13" d="m138.07,155.39c-.24.91-.48,1.81-.72,2.72-.32-5.17-.64-10.35-.97-15.52.27-.31.54-.62.81-.92.26,3.8.53,7.59.79,11.39.03.78.05,1.56.08,2.34Z"/>
          <path class="cls-8" d="m137.2,141.67c-.27.31-.54.62-.81.93,0,0-.38-.07-.38-.07,0,0-.39,0-.39,0-.54-.54-1.08-1.09-1.62-1.63.76-.31,1.52-.62,2.28-.94.37.34.73.68,1.1,1.03-.07.22-.13.45-.18.67Z"/>
          <path class="cls-6" d="m95.32,32.26c.06.23.22.5.14.64-.09.16-.39.21-.6.3-.05-.2-.21-.46-.13-.58.11-.17.38-.24.59-.36Z"/>
          <path class="cls-16" d="m179,105.51c.23.63.47,1.26.7,1.9,1.27.61,2.55,1.22,3.82,1.83.08.5.15,1,.23,1.5-.23.89-.45,1.78-.68,2.67-.57-.12-1.14-.24-1.72-.36-.33.03-.66.07-.98.1-.76.05-1.51.1-2.27.14-.07,1.08-.13,2.15-.2,3.23,1.11.52,2.22,1.05,3.33,1.57.52.91,1.04,1.83,1.56,2.74-2.77.68-5.23,1.59-6.49,4.62-.53,1.28-2.1,2.14-3.2,3.19-1.62,4.74-1.06,5.58,3.51,5.7,1.55.04,3.08.44,4.62.68-2.17.34-4.34.68-6.51,1.03-1.85-.4-4.25,2.72-5.61-.87.77-2.69,1.64-5.36,2.19-8.09.09-.44-1.21-1.45-2.03-1.73-2.48-.85-5.04-1.48-7.57-2.19,2.26-1.62,2.31-3.22-.06-4.79,3.23-2,6.47-4.01,8.82-5.46-.23-3.28-.42-5.96-.61-8.65.51,0,1.02,0,1.53-.01.18,2.54-.31,5.65,3.99,4.66,1.21-1.13,2.41-2.27,3.62-3.4Zm-4.53,9.3c-3.42,2.01-6.1,3.59-9.21,5.42,3.62,1.25,6.35,2.19,9.21,3.18v-8.6Z"/>
          <path class="cls-10" d="m174.74,136.04c2.17-.34,4.34-.68,6.51-1.02.56-.05,1.12-.11,1.69-.17.5.02,1,.04,1.5.05,2.54-2.13,2.26-4.59-.7-6.34-1.38-1.32-1.31-2.69-.11-4.08.79-.86,1.58-1.73,2.36-2.59-.81-.42-1.62-.84-2.44-1.26l-.61-2.84c.04-1.49.08-2.97.11-4.46,2.95-.44,6.22-.34,7.03-4.29,0,0,.03-.04.03-.04.26-.52.52-1.04.78-1.56.29-.28.58-.56.87-.84,4.16-.56,1.69-3.13,1.51-5,.84-1.02,1.68-2.04,2.52-3.06.65.06,1.31.11,2.17.19-.77,2.83-1.34,5.52-2.25,8.09-.93,2.62-1.86,5.16-5.22,6.11-1.22.34-2.55,2.78-2.58,4.29-.06,2.96,1.66,6.17.97,8.85-.8,3.09-.21,5.77-.18,8.66.02,1.59-1.29,3.8-4.5,3.95-2.7.13-5.34,1.12-7.89-.34-.73-.42-1.06-1.52-1.57-2.31Z"/>
          <path class="cls-22" d="m161.65,118.38c2.36,1.57,2.32,3.17.06,4.79-3.41,1.61-6.88,3.11-10.2,4.88-1.37.73-2.42,2.05-3.61,3.1-.29-.89-.58-1.79-.87-2.68.27-.53.4-1.29.84-1.56,4.57-2.88,9.19-5.69,13.79-8.52Z"/>
          <path class="cls-22" d="m137.38,140.99c-.37-.34-.73-.68-1.1-1.02-.17-1.62-.35-3.24-.53-4.87,1.34-.22,2.68-.43,4.02-.65.29.05.57.09.86.14.78,1.55,1.56,3.09,2.34,4.64-1.05,1.93-2.1,3.85-3.14,5.78-.82-1.34-1.63-2.68-2.45-4.02Z"/>
          <path class="cls-17" d="m142.97,139.23c-.78-1.55-1.56-3.09-2.34-4.64.83-.87,1.66-1.74,2.49-2.6,1.3-1.18,2.6-2.35,3.9-3.53.29.89.58,1.79.87,2.68-1.64,2.7-3.28,5.39-4.92,8.09Z"/>
          <path class="cls-12" d="m137.38,140.99c.82,1.34,1.63,2.68,2.45,4.02.02.8.05,1.6.07,2.4,0,0-.26-.05-.26-.05-.31,1.05-.62,2.11-.94,3.16-.24.84-.48,1.68-.72,2.53-.26-3.8-.53-7.59-.79-11.39.05-.23.11-.45.18-.67Z"/>
          <path class="cls-8" d="m137.99,153.06c.24-.84.48-1.68.72-2.53.09.34.18.69.26,1.03-.3,1.28-.6,2.55-.9,3.83-.03-.78-.05-1.56-.08-2.34Z"/>
          <path class="cls-22" d="m138.97,151.56c-.09-.34-.18-.69-.26-1.03.31-1.05.62-2.11.93-3.16-.22,1.4-.45,2.8-.67,4.19Z"/>
          <path class="cls-11" d="m78.67,135.18c.9-.13,2.4.02,2.61-.44,2.04-4.3,6.76-2.34,9.72-4.35-.37,1.71-.73,3.41-1.1,5.12-.89.01-1.78.03-2.67.04-.68.14-1.37.29-2.05.43h0c-.28.24-.56.48-.84.72-.28.3-.56.6-.85.91-2.3.56-4.76,1.45-4.82-2.43Z"/>
          <path class="cls-11" d="m93.2,130.39c2.99-.34,5.26.49,6.76,3.4.62,1.21,2.06,1.99,3.13,2.96-1.63.01-3.25.02-4.88.04-1.33-.58-2.66-1.16-4-1.74-.34-1.55-.68-3.11-1.01-4.66Z"/>
          <path class="cls-1" d="m78.67,135.18c.06,3.88,2.52,2.99,4.82,2.43.04.8.08,1.59.12,2.39-.47.24-1.02.76-1.41.66-1.44-.37-2.82-.94-4.23-1.44-1.12-1.3-2.23-2.61-3.35-3.91-.82-.3-1.64-.6-2.46-.9,0-.82-.02-1.65-.02-2.47,0,0,.04-.04.04-.04,2.16,1.09,4.32,2.19,6.49,3.28Z"/>
          <path class="cls-8" d="m98.21,136.79c1.63-.01,3.25-.02,4.88-.04.25.06.5.09.76.09.03.53.06,1.05.09,1.58,0,1.02,0,2.04-.01,3.05-1.61.59-3.23,1.19-4.84,1.78-.31-1.32-.62-2.65-.93-3.97.02-.83.04-1.66.06-2.49Z"/>
          <path class="cls-13" d="m93.2,130.39c.34,1.55.68,3.11,1.01,4.66-1.42.24-2.83.47-4.25.71l-.06-.25c.37-1.71.73-3.42,1.1-5.12.73,0,1.47,0,2.2,0Z"/>
          <path class="cls-19" d="m72.16,134.41c.82.3,1.64.6,2.46.9-1.08.49-2.15.99-3.23,1.48l-4.05.18c-.56.23-1.13.46-1.69.69-.54,0-1.07-.01-1.61-.02-4.87-.23-.92-2.48-.87-3.83.59-.03,1.17-.07,1.76-.1.76-.02,1.52-.03,2.28-.05l4.95.76Z"/>
          <path class="cls-21" d="m70.57,146.46c-.18-.37-.36-.73-.54-1.09-.34-.45-.68-.91-1.02-1.37-.86-1.86-1.73-3.71-2.59-5.57,0,0,.36.01.36.01,0,0,.36,0,.36,0,.84.55,1.68,1.1,2.52,1.65,1.24,1.89,2.48,3.79,3.72,5.69,1.67-1.14,2.61-1.78,3.55-2.42-1.05,1.62-2.1,3.25-3.15,4.87-.79-.04-1.59-.07-2.38-.11-.04-.24-.07-.47-.11-.71-.24-.31-.48-.63-.71-.94Z"/>
          <path class="cls-20" d="m67.14,138.44h-.36s-.36,0-.36,0c-.25-.26-.51-.52-.76-.78.56-.23,1.13-.46,1.69-.69-.07.49-.14.98-.21,1.47Z"/>
          <path class="cls-13" d="m69.01,144c.34.46.68.92,1.02,1.37-.36.12-.73.24-1.09.36.03-.58.05-1.15.08-1.73Z"/>
          <path class="cls-19" d="m63.23,139.17c.21-.23.42-.46.63-.69-.21.23-.42.46-.63.69Z"/>
          <path class="cls-19" d="m61.57,139.93c.31-.21.63-.43.94-.64-.31.21-.63.43-.94.64Z"/>
          <path class="cls-19" d="m57.48,124.73c.56,0,1.12.02,1.67.02.55-.3,1.1-.61,1.66-.91.23-.07.45-.15.66-.26,2.61,1.61.61,3.43.24,5.18-.09.25-.19.5-.3.75-1.88,1.6-2.38,5.35-6.18,3.99-.08-.54-.17-1.07-.26-1.61.3-.81.59-1.62.89-2.43.54-1.58,1.07-3.16,1.61-4.75Z"/>
          <path class="cls-13" d="m61.42,129.51c.11-.25.21-.5.3-.75,1.58.5,3.15,1,4.73,1.51,1.9.56,3.8,1.11,5.7,1.67,0,.82.02,1.65.02,2.47-1.65-.25-3.3-.5-4.95-.76-.76.02-1.52.03-2.28.05-.59.03-1.17.07-1.76.1-.59-1.43-1.17-2.86-1.76-4.28Z"/>
          <path class="cls-6" d="m60.81,123.84c-.55.3-1.11.61-1.66.91.55-.3,1.11-.61,1.66-.91Z"/>
          <path class="cls-3" d="m125.9,92.86c.54,1.4,1.29,2.77,1.55,4.22.27,1.53.06,3.14.06,4.72-.45,2.66-.77,5.34-1.37,7.97-.58,2.53.87,2.64,2.65,2.61,1.74-.03,3.47-.01,5.21-.02-.27.58-.53,1.16-.8,1.74-1.64.49-3.29.98-4.93,1.47-.59.29-1.18.58-1.76.86-.95-2.79-3.49-6.38-2.55-8.2,2.62-5.11,1.58-10.24,1.94-15.37Z"/>
          <path class="cls-2" d="m136.87,109.97c1.21-1.1,2.4-3.73,3.71-.08-.55,1.96-1.07,3.93-1.67,5.88-.42,1.35-.97,2.65-1.46,3.98-.31-.27-.62-.55-.93-.82l.11-.8c.15-2.56.31-5.12.46-7.69-.11-.14-.18-.29-.22-.47Z"/>
          <path class="cls-2" d="m137.35,93.76c3.32,2.4,1.19,5.27.7,8-.23-2.67-.47-5.33-.7-8Z"/>
          <path class="cls-20" d="m133.2,114.1c.27-.58.53-1.16.8-1.74.75-.59,1.49-1.17,2.24-1.76-.09.45-.19.9-.28,1.36v.03c.08.42.16.84.24,1.26-.76.8-1.52,1.6-2.29,2.41-.24-.52-.48-1.03-.72-1.55Z"/>
          <path class="cls-16" d="m135.96,111.96c.09-.45.19-.9.28-1.36.28-.06.56-.11.85-.17-.15,2.56-.31,5.12-.46,7.68-.14-1.62-.28-3.25-.42-4.87-.08-.42-.16-.84-.25-1.25,0,0,0-.04,0-.04Z"/>
          <path class="cls-11" d="m132.4,83.11c0,.52.01,1.05.02,1.57-.55-.53-1.1-1.07-1.66-1.6,0,0,.17-.17.17-.17.49.07.98.13,1.47.2Z"/>
          <path class="cls-5" d="m147.02,128.46c-1.3,1.18-2.6,2.35-3.9,3.53-.86-1.01-2.46-2.03-2.46-3.04.03-6.56-1.12-13.26,1.56-19.61,0,0-.07-.36-.07-.36.79-.02,1.57-.03,2.36-.05.94-.77,1.87-1.54,2.81-2.31.45-.78,1.33-1.59,1.27-2.33-.39-4.62,1.79-6.52,6.23-6.68.69-.02,1.33-1.45,1.99-2.23.82-.3,1.63-.61,2.45-.91,5.2-.56,10.4-1.07,15.58-1.73.56-.07,1.02-.97,1.52-1.48.54,0,1.07,0,1.61.01,0,1.34.29,2.77-.1,3.98-.31.96-1.49,2.37-2.23,2.35-4.88-.19-5.62,2.94-5.79,6.67.19,2.68.38,5.37.61,8.65-2.35,1.46-5.59,3.46-8.82,5.46-4.6,2.83-9.22,5.63-13.79,8.52-.43.27-.56,1.03-.84,1.56Z"/>
          <path class="cls-10" d="m156.81,95.39c-.66.78-1.3,2.2-1.99,2.23-4.43.16-6.61,2.05-6.23,6.68.06.74-.82,1.55-1.27,2.33-1.38-1.28-2.77-2.56-4.2-3.89,3.65-3.72,5.57-10.24,12.95-8.01.25.22.49.45.74.67Z"/>
          <path class="cls-10" d="m142.23,109.34c-2.68,6.35-1.53,13.05-1.56,19.61,0,1.01,1.6,2.03,2.46,3.04-.83.87-1.66,1.74-2.49,2.6-.29-.05-.57-.09-.86-.14-.28-3.43-.47-6.87-.9-10.27-.16-1.25-.92-2.43-1.4-3.64-.11-.3-.22-.59-.33-.89,0,0,.3.09.3.09.49-1.32,1.04-2.63,1.46-3.98.61-1.94,1.12-3.92,1.67-5.88.55-.18,1.1-.37,1.65-.55Z"/>
          <path class="cls-16" d="m147.81,93.24c-2.15,2.42-3.59,4.04-5.3,5.97-1.31-3-2.32-5.31-3.66-8.39,2.84.77,5.46,1.48,8.96,2.42Z"/>
          <path class="cls-17" d="m144.52,108.93c-.79.02-1.57.03-2.36.05-.39-3.14.89-3.75,3.76-2.4-.53.88-.97,1.62-1.41,2.35Z"/>
          <path class="cls-8" d="m132.4,83.11c-.49-.07-.98-.13-1.47-.2-.01-.52-.02-1.04-.04-1.56,1.63.11,3.25.23,4.88.35-1.13.47-2.25.94-3.38,1.41Z"/>
          <path class="cls-11" d="m114.53,103.37c.79,2.45,1.59,4.9,2.38,7.35-1.83,1.08-3.65,2.16-5.48,3.24-.37-.5-.73-1-1.1-1.49h-.04c-.51-.65-1.01-1.29-1.52-1.93.56-1.01.98-2.13,1.7-3,1.25-1.48,2.69-2.79,4.05-4.18Z"/>
          <path class="cls-11" d="m99.96,91.01c3.23.59,6.46,1.17,9.68,1.76.53.02,1.05.04,1.58.06.02.8.05,1.61.07,2.41-4.14-.44-8.19-1.12-11.34-4.22Z"/>
          <path class="cls-8" d="m108.78,110.55c.51.64,1.01,1.28,1.52,1.92-1.29-.01-2.57-.02-3.86-.04-.02-.53-.03-1.05-.05-1.57.8-.1,1.59-.2,2.39-.31Z"/>
          <path class="cls-1" d="m111.43,113.97c1.83-1.08,3.65-2.16,5.48-3.24.28,1.91.56,3.82.84,5.73-.07.8-.14,1.6-.21,2.39-1.29.84-2.58,1.67-3.87,2.51-1.11-.26-2.22-.52-3.32-.78.02-1.1.05-2.2.07-3.3.26-.81.53-1.62.79-2.43.07-.29.15-.58.22-.88Z"/>
          <path class="cls-6" d="m90.93,87.18c-.01-.83-.02-1.66-.03-2.49.77.52,1.55,1.04,2.32,1.56-.76.31-1.52.62-2.28.93Z"/>
          <path class="cls-1" d="m135.75,135.1c.18,1.62.35,3.25.53,4.87-.76.31-1.52.62-2.28.94,0,0-.39-.04-.39-.04,0,0-.4,0-.4,0-1.35-2.18-2.7-4.37-4.06-6.55-.26-1.29-.9-2.64-.7-3.85.34-2.01.63-4.82,3.99-2.76,1.02.61,2.04,1.22,3.06,1.82.08,1.86.16,3.71.24,5.57Z"/>
          <path class="cls-6" d="m132.45,127.71c-3.36-2.06-3.64.75-3.99,2.76-.21,1.21.44,2.56.7,3.85-.52-.26-1.05-.53-1.57-.79,0-1.84,0-3.69,0-5.59-4.26,1.23-5.08.45-5.59-5.09.93,1.05,1.85,2.09,3.37,3.8.9-2.01,1.63-3.61,2.35-5.22.17-1.07.34-2.13.51-3.2l.06-2.67c1.64-.49,3.29-.98,4.93-1.47.24.52.48,1.03.72,1.55.07,1.18.13,2.36.2,3.54-.56,2.84-1.11,5.68-1.67,8.52Z"/>
          <path class="cls-19" d="m121.99,122.85c.51,5.53,1.33,6.32,5.59,5.09,0,1.91,0,3.75,0,5.59-1.13,0-2.26-.01-3.39-.02-1.06-1.07-2.12-2.14-3.18-3.21,0,0-.02-.02-.02-.02-.57-.76-1.14-1.52-1.7-2.29-.55-.23-1.1-.45-1.66-.68v-.19c0-1.94.01-3.89.02-5.83.07-.26.15-.53.22-.79,1.29,0,2.57,0,3.86,0,.09.78.17,1.57.26,2.35Z"/>
          <path class="cls-1" d="m103.92,141.47c0-1.02,0-2.04.01-3.05,3.24,0,6.48.03,9.72-.02,2.13-.04,4.16-.34,4.1-3.23,1.34,1.04,2.67,2.08,4.01,3.12-.31.28-.61.57-.92.85-4.56.55-9.12,1.11-13.68,1.66-.6.18-1.19.36-1.79.53-.49.05-.97.09-1.46.14Z"/>
          <path class="cls-8" d="m121.77,138.29c-1.34-1.04-2.67-2.08-4.01-3.12.01-.53.02-1.05.03-1.58.49-1.34.98-2.68,1.46-4.01l.15-.12c.53.28,1.06.55,1.59.83,0,0,.02.02.02.02.58,2.19,1.17,4.38,1.75,6.57-.33.47-.66.94-1,1.41Z"/>
          <path class="cls-6" d="m122.76,136.87c-.58-2.19-1.17-4.38-1.75-6.57,1.06,1.07,2.12,2.14,3.18,3.21-.48,1.12-.95,2.24-1.43,3.36Z"/>
          <path class="cls-19" d="m98.16,139.28c.31,1.33.62,2.65.93,3.97,0,.32.01.64.02.97-.84.51-1.68,1.01-2.52,1.52,0-.95.14-1.92-.02-2.84-.29-1.62,1.16-4.32-1.98-4.37-2.67-.04-6.33-1.57-7.01,3.13-.75-.29-1.5-.57-2.25-.86l-.06-.05c.54-1.46,1.08-2.92,1.61-4.38.12-.27.23-.54.35-.81.89-.02,1.78-.03,2.67-.04,0,0,.06.25.06.24,1.06.34,2.15.61,3.16,1.06,1.71.76,3.36,1.64,5.03,2.47Z"/>
          <path class="cls-8" d="m105.38,141.34c.6-.18,1.19-.36,1.79-.53-.6.18-1.19.36-1.79.53Z"/>
          <path class="cls-18" d="m87.58,141.65c.68-4.7,4.33-3.17,7.01-3.12,3.13.05,1.69,2.75,1.98,4.37.16.92.02,1.89.02,2.84-1.11.29-2.21.58-3.32.86-1.84-.03-3.68-.05-5.52-.08-.05-1.62-.11-3.25-.16-4.87Z"/>
          <path class="cls-21" d="m87.74,146.52c1.84.03,3.68.05,5.52.08-.57.47-1.14.95-1.71,1.42-1.31.34-2.61.69-3.92,1.03-.29-.29-.58-.59-.87-.88,0,0,.12.05.12.05.29-.57.57-1.13.86-1.7Z"/>
          <path class="cls-10" d="m169.86,104.27c.17-3.74.91-6.86,5.79-6.67.74.03,1.92-1.39,2.23-2.35.39-1.21.1-2.64.1-3.98.59.56,1.18,1.13,1.77,1.69.02,1.62.04,3.24.06,4.86-.63.76-1.25,1.52-1.88,2.28-1.37.63-2.74,1.26-4.11,1.88l-2.42,2.27c-.51,0-1.02,0-1.53.01Z"/>
          <path class="cls-10" d="m176.37,91.26c-.51.51-.96,1.41-1.52,1.48-5.18.66-10.38,1.17-15.58,1.73.21-2.54,1.63-3.38,4.1-3.29,4.33.15,8.67.06,13,.07Z"/>
          <path class="cls-6" d="m117.65,121.29c0,1.94-.01,3.89-.02,5.83-1.03-.07-2.06-.15-3.08-.22-4.09-1.86-8.17-3.72-12.26-5.57-1.08-.57-2.15-1.13-3.23-1.7.81-.81,1.62-1.61,2.44-2.42,1.88.53,3.77,1.06,5.65,1.59,1.07.59,2.14,1.18,3.21,1.77,1.11.26,2.22.52,3.32.78,1.33-.02,2.65-.04,3.98-.06Z"/>
          <path class="cls-1" d="m99.05,119.63c1.08.57,2.15,1.13,3.23,1.7-4.39,2.07-7.87-.19-11.37-2.37,1.64-.31,3.27-.61,4.91-.92,1.08.53,2.16,1.06,3.24,1.59Z"/>
          <path class="cls-1" d="m114.54,126.91c1.03.07,2.06.15,3.08.22,0,0,0,.19,0,.19.54.75,1.08,1.5,1.62,2.26-.49,1.34-.98,2.68-1.46,4.01-1.08-2.23-2.16-4.46-3.24-6.69Z"/>
          <path class="cls-1" d="m81.93,123.78c.7-1.67,1.4-3.35,2.2-5.27,1.28.13,2.78.28,4.29.43-2.16,1.61-4.33,3.22-6.49,4.83Z"/>
          <path class="cls-21" d="m90.92,103.54h6.07c-1.13,1.6-1.63,2.31-2.13,3.02-.74,1.05-1.49,2.09-2.22,3.13-.57-.15-1.54-.4-2.52-.66,0,0-.04-.19-.04-.19,1.37-1.48.95-2.97,0-4.46l.85-.85Z"/>
          <path class="cls-20" d="m99.05,119.63c-1.08-.53-2.16-1.06-3.24-1.59.2-.54.4-1.07.61-1.61.6-.3,1.2-.6,1.8-.9,1.09.56,2.18,1.12,3.27,1.68-.81.81-1.62,1.61-2.44,2.42Z"/>
          <path class="cls-6" d="m98.22,115.53c-.6.3-1.2.6-1.8.9.3-1.08.61-2.15.91-3.23.03.27.09.53.18.78.23.52.47,1.03.7,1.55Z"/>
          <path class="cls-6" d="m90.08,109.95c-.86.46-1.73.91-2.59,1.37.86-.82,1.72-1.65,2.58-2.48,0,0,.04.19.04.19-.01.3-.02.61-.04.91Z"/>
          <path class="cls-18" d="m60.62,161.07c-.24-1.05-.48-2.1-.72-3.15-.62-.77-1.24-1.54-2.01-2.48,1.14-.76,2.47-1.56,3.72-2.47,3.37-2.47,4.28-2.15,5.76,1.84.29.79,1.38,1.28,1.66,2.07.59,1.62.9,3.35,1.32,5.03-1.43.05-2.86.12-4.29.15-1.09.02-2.2.12-3.27-.04-.76-.12-1.46-.61-2.18-.94Z"/>
          <path class="cls-9" d="m106.33,179.08c3.24.02,6.5.32,9.7-.05,2.22-.25,4.31-1.49,6.49-2.15,1.33-.4,2.77-.87,4.11-.74,2.44.23,4.84,1.25,7.27,1.3,9.17.17,18.34-.03,27.5.15,2.27.05,4.53,1.01,6.8,1.56.3,1.9.61,3.8.91,5.7-.29,1.25-.82,2.51-.83,3.76-.09,6.36-.03,12.72-.05,19.08-.02,4.71-.95,5.61-5.77,5.63-6.23.03-12.45.03-18.68.05-1.62,0-3.23,0-4.85,0-1.63.53-3.25,1.07-4.88,1.6,0,0,0,0,0,0-.55,1.4-1.43,2.76-1.59,4.2-.45,4-.59,8.04-.86,12.07.07,1.99-.31,4.13.31,5.93,1.03,3-.01,4.24-2.78,4.75-1.38-.3-2.76-.85-4.14-.87-6.76-.09-13.51-.04-20.27-.03,0,0-.01-.01-.01-.01.98-20.62-1.95-41.34,1.6-61.89l.03-.04Z"/>
          <path class="cls-18" d="m106.3,179.12c-3.55,20.55-.62,41.27-1.6,61.89-.54-1.05-1.54-2.09-1.55-3.14-.1-17.95-.15-35.91.07-53.86.02-1.64,2-3.26,3.08-4.89Z"/>
          <path class="cls-18" d="m143.77,213.37c6.23-.01,12.45-.02,18.68-.05,4.82-.02,5.75-.92,5.77-5.63.02-6.36-.04-12.72.05-19.08.02-1.26.54-2.51.83-3.76.25,1.41.7,2.82.72,4.24.07,7.04,0,14.07.04,21.11.01,2.91-1.23,4.7-4.23,4.73-6.49.07-12.99.08-19.48-.04-.8-.02-1.58-.98-2.37-1.51Z"/>
          <path class="cls-18" d="m104.71,241.02c6.76,0,13.51-.06,20.27.03,1.39.02,2.76.56,4.14.87-4.39.24-8.77.53-13.16.7-2.7.1-5.42.17-8.1-.05-1.09-.09-2.1-1.01-3.15-1.55Z"/>
          <path class="cls-18" d="m131.59,231.24c.27-4.02.41-8.06.86-12.07.16-1.44,1.04-2.8,1.59-4.2,0,4.4-.04,8.79,0,13.18.02,1.76-.08,3.29-2.46,3.08Z"/>
          <path class="cls-18" d="m134.05,214.97c1.63-.53,3.25-1.07,4.88-1.6-1.63.53-3.25,1.07-4.88,1.6Z"/>
          <path class="cls-1" d="m121.99,122.85c-.09-.78-.17-1.57-.26-2.35.83-9.75,1.66-19.49,2.49-29.24.56.53,1.12,1.07,1.68,1.6-.37,5.13.68,10.26-1.94,15.37-.93,1.82,1.6,5.42,2.55,8.2.04.59.08,1.18.12,1.77l1.08,3.23c-.72,1.61-1.45,3.21-2.35,5.22-1.51-1.71-2.44-2.76-3.37-3.8Z"/>
          <path class="cls-13" d="m117.65,121.29c-1.33.02-2.65.04-3.98.06,1.29-.84,2.58-1.67,3.87-2.51.11.55.21,1.1.32,1.65-.07.26-.15.53-.22.79Z"/>
          <path class="cls-6" d="m50.33,106.78c-.09-.8-.18-1.59-.27-2.38.85-.32,1.7-.65,2.55-.97,0,1.07-.02,2.15-.02,3.22-.75.05-1.5.09-2.26.14Z"/>
          <path class="cls-18" d="m76.93,143.35c-.94.64-1.88,1.28-3.55,2.42-1.24-1.9-2.48-3.79-3.72-5.69.58-1.1,1.16-2.2,1.74-3.3,1.08-.49,2.15-.99,3.23-1.48,1.12,1.3,2.23,2.61,3.35,3.91.03.59.05,1.18.08,1.77l-1.12,2.35Z"/>
          <path class="cls-13" d="m78.05,140.99c-.03-.59-.05-1.18-.08-1.77,1.4.5,2.79,1.07,4.23,1.44.39.1.93-.42,1.41-.66.55.25,1.11.5,1.66.74,0,0,.06.05.06.05-.6,1.38-1.2,2.77-1.79,4.15-1.83-1.32-3.66-2.64-5.49-3.95Z"/>
          <path class="cls-6" d="m83.54,144.95c.6-1.38,1.19-2.77,1.79-4.15.75.29,1.5.57,2.25.86.05,1.62.11,3.25.16,4.87-.28.57-.57,1.13-.85,1.7-.59-.81-1.18-1.61-1.78-2.42-.27-.23-.53-.47-.8-.7-.26-.04-.51-.1-.77-.15Z"/>
          <path class="cls-13" d="m71.4,148.11c.79.04,1.59.07,2.38.11-.49.48-.99.97-1.48,1.45-.3-.52-.6-1.04-.91-1.55Z"/>
          <path class="cls-13" d="m70.57,146.46c.24.31.48.63.71.94-.24-.31-.48-.63-.71-.94Z"/>
          <path class="cls-13" d="m84.31,145.1c.27.23.53.47.8.7-.27-.23-.53-.47-.8-.7Z"/>
          <path class="cls-16" d="m193.26,101.61c.17,1.87,2.65,4.44-1.51,5-.5-.54-1.03-1.57-1.51-1.55-1.91.07-3.82.47-5.72.75l.06.04c-.3-1.09-.78-2.18-.84-3.29-.05-.84.43-1.72.67-2.58,1.03.4,2.06.8,3.08,1.2.08.22.16.43.22.66,1.45,2.95,2.76,1.76,4.04-.13,0,0,0-.02,0-.02.51-.03,1.01-.06,1.52-.09Z"/>
          <path class="cls-22" d="m173.81,101.99c1.37-.63,2.74-1.26,4.11-1.88.36,1.8.71,3.61,1.07,5.41-1.2,1.13-2.41,2.27-3.62,3.4-.52-2.31-1.05-4.62-1.57-6.93Z"/>
          <path class="cls-22" d="m183.52,109.24c-1.27-.61-2.55-1.22-3.82-1.83,1.63-.52,3.25-1.04,4.88-1.56,0,0-.06-.04-.06-.04-.33,1.14-.67,2.28-1,3.43Z"/>
          <path class="cls-22" d="m191.74,101.72c-1.29,1.89-2.6,3.08-4.04.13,1.35-.04,2.7-.09,4.04-.13Z"/>
          <path class="cls-1" d="m98.22,115.53c-.24-.52-.47-1.03-.7-1.55,2.82,0,5.65,0,8.47.01.41,1.07.82,2.14,1.23,3.2-.03.53-.05,1.07-.08,1.6-1.88-.53-3.77-1.06-5.65-1.59-1.09-.56-2.18-1.12-3.27-1.68Z"/>
          <path class="cls-20" d="m107.22,117.2c-.41-1.07-.82-2.14-1.23-3.2.15-.52.3-1.04.44-1.56,1.29.01,2.57.02,3.86.04,0,0,.04,0,.04,0,.29.79.59,1.58.88,2.37-.26.81-.53,1.62-.79,2.43-1.07-.02-2.13-.05-3.2-.07Z"/>
          <path class="cls-6" d="m90.92,103.54c-.28.28-.57.57-.85.85-.04-.26-.1-.51-.2-.76.11-.11.22-.23.32-.34.26.03.5.11.73.25Z"/>
          <path class="cls-19" d="m89.88,103.63c.1.24.16.5.2.76.94,1.49,1.36,2.98,0,4.46-.86.82-1.72,1.65-2.58,2.47-.73.01-1.45.03-2.18.04.25-1.98.12-4.13.91-5.87.44-.97,2.39-1.26,3.66-1.86Z"/>
          <path class="cls-10" d="m174.46,114.82v8.6c-2.86-.99-5.59-1.93-9.21-3.18,3.11-1.83,5.79-3.41,9.21-5.42Z"/>
          <path class="cls-17" d="m183.52,109.24c.33-1.14.67-2.28,1-3.43,1.91-.28,3.81-.68,5.72-.75.48-.02,1.01,1,1.51,1.55-.29.28-.58.56-.87.84-.26.52-.52,1.04-.78,1.56,0,0-.03.04-.03.04-2.11.56-4.21,1.12-6.32,1.69-.08-.5-.15-1-.23-1.5Z"/>
          <path class="cls-17" d="m183.04,113.34c-.04,1.49-.08,2.97-.11,4.46-.57.1-1.13.2-1.7.3-1.11-.52-2.22-1.05-3.33-1.57.07-1.08.13-2.15.2-3.23.76-.05,1.51-.1,2.27-.14.33-.03.66-.07.98-.1.57.12,1.14.24,1.72.36,0,0-.02-.07-.02-.07Z"/>
          <path class="cls-17" d="m173.81,101.99c.52,2.31,1.05,4.62,1.57,6.93-4.3.99-3.81-2.12-3.99-4.66.81-.76,1.62-1.51,2.42-2.27Z"/>
          <path class="cls-17" d="m173.1,128.64c-.3,3.26,1.63,3.87,4.38,4.16,1.87.2,3.63,1.33,5.44,2.05-.56.06-1.12.11-1.69.17-1.54-.24-3.08-.64-4.62-.68-4.58-.12-5.14-.96-3.51-5.7Z"/>
          <path class="cls-22" d="m183.04,113.34s.02.07.02.07c.23-.89.45-1.78.68-2.67,2.11-.56,4.21-1.12,6.32-1.69-.81,3.95-4.08,3.85-7.03,4.29Z"/>
          <path class="cls-22" d="m181.23,118.1c.57-.1,1.14-.2,1.7-.3.2.95.41,1.89.61,2.84-.27.25-.54.51-.81.76-.13-.2-.11-.38.05-.56-.52-.91-1.04-1.83-1.56-2.74Z"/>
          <path class="cls-22" d="m178.1,113.29c-.07,1.08-.13,2.15-.2,3.23.06-1.08.13-2.15.2-3.23Z"/>
          <path class="cls-22" d="m181.35,113.05c-.33.03-.66.07-.98.1.33-.03.66-.07.98-.1Z"/>
          <path class="cls-17" d="m182.74,121.39c.27-.25.54-.51.81-.76.81.42,1.62.84,2.44,1.26-.79.86-1.58,1.73-2.36,2.59-.29-1.03-.58-2.06-.88-3.09Z"/>
          <path class="cls-17" d="m184.43,134.91c-.23-2.11-.47-4.23-.7-6.34,2.97,1.75,3.24,4.21.7,6.34Z"/>
          <path class="cls-22" d="m190.1,109.01c.26-.52.52-1.04.78-1.56-.26.52-.52,1.04-.78,1.56Z"/>
          <path class="cls-2" d="m135.75,135.1c-.08-1.86-.16-3.71-.24-5.57.65-3,1.31-6,1.96-9,.48,1.21,1.24,2.39,1.4,3.64.44,3.41.62,6.85.9,10.27-1.34.22-2.68.43-4.02.65Z"/>
          <path class="cls-6" d="m85.27,140.75c-.55-.25-1.11-.5-1.66-.74-.04-.8-.08-1.6-.12-2.39.28-.3.56-.6.84-.91.28-.24.56-.48.84-.72,0,0,0,0,0,0,.57.13,1.13.25,1.7.38-.54,1.46-1.08,2.92-1.61,4.38Z"/>
          <path class="cls-13" d="m86.88,136.36c-.57-.13-1.13-.25-1.7-.38.68-.14,1.36-.29,2.05-.43-.11.27-.23.54-.35.81Z"/>
          <path class="cls-13" d="m85.18,135.99c-.28.24-.56.48-.84.72.28-.24.56-.48.84-.72Z"/>
          <path class="cls-6" d="m98.16,139.28c-1.68-.83-3.33-1.71-5.03-2.47-1.01-.45-2.1-.72-3.16-1.06,1.42-.23,2.83-.47,4.25-.7,1.33.58,2.66,1.16,4,1.74-.02.83-.04,1.66-.06,2.49Z"/>
          <path class="cls-8" d="m71.4,136.79c-.58,1.1-1.16,2.2-1.74,3.3-.84-.55-1.68-1.1-2.52-1.65.07-.49.14-.98.21-1.48,1.35-.06,2.7-.12,4.05-.17Z"/>
          <path class="cls-21" d="m64.94,133.7c.76-.02,1.52-.03,2.28-.05-.76.02-1.52.03-2.28.05Z"/>
          <path class="cls-20" d="m126.63,118.2c-.04-.59-.08-1.18-.12-1.77.59-.29,1.18-.58,1.76-.86-.02.89-.04,1.78-.06,2.67-.53-.01-1.05-.02-1.58-.03Z"/>
          <path class="cls-13" d="m134.12,119.2c-.07-1.18-.13-2.36-.2-3.55.76-.8,1.52-1.6,2.29-2.41.14,1.62.28,3.25.42,4.87-.04.27-.08.54-.11.8l-.07-.02c-.77.1-1.55.2-2.32.3Z"/>
          <path class="cls-6" d="m136.51,118.92c.31.27.62.55.93.82,0,0-.3-.09-.3-.09-.23-.25-.47-.5-.7-.75l.07.02Z"/>
          <path class="cls-13" d="m135.96,111.96s0,.04,0,.04c0,0,0-.04,0-.04Z"/>
          <path class="cls-20" d="m136.44,118.9c.23.25.47.5.7.75.11.3.22.59.33.89-.65,3-1.3,6-1.96,9-1.02-.61-2.04-1.21-3.06-1.82.56-2.84,1.11-5.68,1.67-8.52.77-.1,1.55-.19,2.32-.29Z"/>
          <path class="cls-8" d="m111.21,114.85c-.29-.79-.59-1.58-.88-2.37.37.5.73,1,1.1,1.49-.07.29-.15.58-.22.88Z"/>
          <path class="cls-8" d="m107.22,117.2c1.07.02,2.13.05,3.2.07-.02,1.1-.05,2.2-.07,3.3-1.07-.59-2.14-1.18-3.21-1.77.03-.54.05-1.07.08-1.61Z"/>
          <path class="cls-8" d="m126.63,118.2c.53,0,1.05.02,1.58.03-.17,1.07-.34,2.13-.51,3.2-.36-1.08-.72-2.15-1.07-3.23Z"/>
          <path class="cls-8" d="m119.25,129.58c-.54-.75-1.08-1.51-1.62-2.26.55.23,1.1.45,1.66.68.04.49.07.97.11,1.46l-.15.12Z"/>
          <path class="cls-6" d="m119.4,129.46c-.04-.49-.07-.98-.11-1.46.57.76,1.13,1.53,1.7,2.29-.53-.28-1.06-.55-1.59-.83Z"/>
        </g>
      </g>
      <g>
        <g>
          <path class="cls-14" d="m360.38,129.08v4.6h-11.84v7.29h9.08v4.52h-9.08v12.01h-5.7v-28.41h17.54Z"/>
          <path class="cls-14" d="m370.11,129.08v28.41h-5.7v-28.41h5.7Z"/>
          <path class="cls-14" d="m390.38,157.49l-6.27-11.07h-2.69v11.07h-5.7v-28.41h10.66c2.2,0,4.07.39,5.62,1.16,1.55.77,2.71,1.82,3.48,3.13.77,1.32,1.16,2.79,1.16,4.42,0,1.87-.54,3.56-1.63,5.07-1.09,1.51-2.7,2.54-4.84,3.11l6.8,11.52h-6.59Zm-8.95-15.34h4.76c1.55,0,2.7-.37,3.46-1.12.76-.75,1.14-1.78,1.14-3.11s-.38-2.31-1.14-3.03c-.76-.72-1.91-1.08-3.46-1.08h-4.76v8.34Z"/>
          <path class="cls-14" d="m406.27,156.76c-1.59-.68-2.84-1.65-3.76-2.93-.92-1.28-1.4-2.78-1.42-4.52h6.11c.08,1.17.49,2.09,1.24,2.77.75.68,1.77,1.02,3.07,1.02s2.37-.32,3.13-.96c.76-.64,1.14-1.47,1.14-2.5,0-.84-.26-1.53-.77-2.08-.52-.54-1.16-.97-1.93-1.28-.77-.31-1.84-.66-3.19-1.04-1.85-.54-3.34-1.08-4.5-1.61-1.15-.53-2.14-1.33-2.97-2.4-.83-1.07-1.24-2.5-1.24-4.29,0-1.68.42-3.15,1.26-4.4.84-1.25,2.02-2.2,3.54-2.87,1.52-.66,3.26-1,5.21-1,2.93,0,5.31.71,7.14,2.14s2.84,3.41,3.03,5.96h-6.27c-.05-.98-.47-1.78-1.24-2.42-.77-.64-1.8-.96-3.07-.96-1.11,0-2,.28-2.67.85-.66.57-1,1.4-1,2.48,0,.76.25,1.39.75,1.89.5.5,1.13.91,1.87,1.22.75.31,1.8.67,3.15,1.08,1.85.54,3.35,1.09,4.52,1.63,1.17.54,2.17,1.36,3.01,2.44.84,1.09,1.26,2.51,1.26,4.27,0,1.52-.39,2.93-1.18,4.23-.79,1.3-1.94,2.34-3.46,3.11-1.52.77-3.32,1.16-5.41,1.16-1.98,0-3.76-.34-5.35-1.02Z"/>
          <path class="cls-14" d="m445.94,129.08v4.6h-7.57v23.81h-5.7v-23.81h-7.57v-4.6h20.84Z"/>
          <path class="cls-14" d="m477.32,129.08v4.6h-11.84v7.29h9.08v4.52h-9.08v12.01h-5.7v-28.41h17.54Z"/>
          <path class="cls-14" d="m487.05,152.97h9.36v4.52h-15.06v-28.41h5.7v23.89Z"/>
          <path class="cls-14" d="m505.89,155.9c-2.23-1.25-3.99-2.98-5.29-5.19-1.3-2.21-1.95-4.71-1.95-7.51s.65-5.26,1.95-7.47c1.3-2.21,3.07-3.94,5.29-5.19,2.22-1.25,4.67-1.87,7.33-1.87s5.14.62,7.35,1.87c2.21,1.25,3.96,2.98,5.25,5.19,1.29,2.21,1.93,4.7,1.93,7.47s-.64,5.3-1.93,7.51c-1.29,2.21-3.05,3.94-5.27,5.19-2.23,1.25-4.67,1.87-7.33,1.87s-5.1-.62-7.33-1.87Zm11.84-4.38c1.3-.77,2.32-1.88,3.05-3.32.73-1.44,1.1-3.11,1.1-5.01s-.37-3.56-1.1-4.99c-.73-1.42-1.75-2.52-3.05-3.28-1.3-.76-2.81-1.14-4.52-1.14s-3.22.38-4.54,1.14c-1.32.76-2.34,1.85-3.07,3.28-.73,1.42-1.1,3.09-1.1,4.99s.37,3.57,1.1,5.01c.73,1.44,1.76,2.54,3.07,3.32,1.32.77,2.83,1.16,4.54,1.16s3.22-.39,4.52-1.16Z"/>
          <path class="cls-14" d="m537.84,155.9c-2.23-1.25-3.99-2.98-5.29-5.19-1.3-2.21-1.95-4.71-1.95-7.51s.65-5.26,1.95-7.47c1.3-2.21,3.07-3.94,5.29-5.19,2.22-1.25,4.67-1.87,7.33-1.87s5.14.62,7.35,1.87c2.21,1.25,3.96,2.98,5.25,5.19,1.29,2.21,1.93,4.7,1.93,7.47s-.64,5.3-1.93,7.51c-1.29,2.21-3.05,3.94-5.27,5.19-2.23,1.25-4.67,1.87-7.33,1.87s-5.1-.62-7.33-1.87Zm11.84-4.38c1.3-.77,2.32-1.88,3.05-3.32.73-1.44,1.1-3.11,1.1-5.01s-.37-3.56-1.1-4.99c-.73-1.42-1.75-2.52-3.05-3.28-1.3-.76-2.81-1.14-4.52-1.14s-3.22.38-4.54,1.14c-1.32.76-2.34,1.85-3.07,3.28-.73,1.42-1.1,3.09-1.1,4.99s.37,3.57,1.1,5.01c.73,1.44,1.76,2.54,3.07,3.32,1.32.77,2.83,1.16,4.54,1.16s3.22-.39,4.52-1.16Z"/>
          <path class="cls-14" d="m578.58,157.49l-6.27-11.07h-2.69v11.07h-5.7v-28.41h10.66c2.2,0,4.07.39,5.62,1.16,1.55.77,2.71,1.82,3.48,3.13.77,1.32,1.16,2.79,1.16,4.42,0,1.87-.54,3.56-1.63,5.07-1.09,1.51-2.7,2.54-4.84,3.11l6.8,11.52h-6.59Zm-8.95-15.34h4.76c1.55,0,2.7-.37,3.46-1.12.76-.75,1.14-1.78,1.14-3.11s-.38-2.31-1.14-3.03c-.76-.72-1.91-1.08-3.46-1.08h-4.76v8.34Z"/>
          <path class="cls-14" d="m367.62,167.48v3.49h-18.55v15.72h15.66v3.49h-15.66v19.4h-4.22v-42.11h22.77Z"/>
          <path class="cls-14" d="m382.86,207.27c-3.17-1.83-5.67-4.38-7.5-7.65-1.83-3.27-2.74-6.98-2.74-11.11s.91-7.84,2.74-11.11c1.83-3.27,4.33-5.82,7.5-7.65,3.17-1.83,6.71-2.74,10.6-2.74s7.49.91,10.66,2.74c3.17,1.83,5.66,4.38,7.47,7.65,1.81,3.27,2.71,6.98,2.71,11.11s-.9,7.84-2.71,11.11c-1.81,3.27-4.3,5.82-7.47,7.65-3.17,1.83-6.73,2.74-10.66,2.74s-7.43-.91-10.6-2.74Zm19.04-3.1c2.49-1.45,4.46-3.52,5.9-6.23s2.17-5.85,2.17-9.43-.72-6.71-2.17-9.4c-1.45-2.69-3.41-4.76-5.9-6.2-2.49-1.45-5.3-2.17-8.43-2.17s-5.94.72-8.43,2.17c-2.49,1.45-4.46,3.51-5.9,6.2-1.45,2.69-2.17,5.82-2.17,9.4s.72,6.72,2.17,9.43,3.41,4.79,5.9,6.23c2.49,1.45,5.3,2.17,8.43,2.17s5.94-.72,8.43-2.17Z"/>
          <path class="cls-14" d="m426.05,167.48v26.51c0,4.18.99,7.27,2.98,9.28,1.99,2.01,4.71,3.01,8.16,3.01s6.15-.99,8.1-2.98c1.95-1.99,2.92-5.09,2.92-9.31v-26.51h4.22v26.44c0,5.34-1.42,9.36-4.25,12.05-2.83,2.69-6.52,4.04-11.05,4.04s-8.22-1.35-11.05-4.04c-2.83-2.69-4.25-6.71-4.25-12.05v-26.44h4.22Z"/>
          <path class="cls-14" d="m493.58,209.59h-4.22l-23.31-35.42v35.42h-4.22v-42.11h4.22l23.31,35.36v-35.36h4.22v42.11Z"/>
          <path class="cls-14" d="m527.61,170.01c3.33,1.69,5.88,4.12,7.65,7.29,1.77,3.17,2.65,6.95,2.65,11.33s-.88,8.08-2.65,11.23c-1.77,3.15-4.32,5.56-7.65,7.23-3.33,1.67-7.33,2.5-11.99,2.5h-12.47v-42.11h12.47c4.66,0,8.65.84,11.99,2.53Zm1.42,31.47c3.07-3.07,4.61-7.36,4.61-12.86s-1.54-9.87-4.61-12.98c-3.07-3.11-7.54-4.67-13.4-4.67h-8.25v35.12h8.25c5.86,0,10.33-1.54,13.4-4.61Z"/>
          <path class="cls-14" d="m570.08,199.59h-19.16l-3.67,10h-4.46l15.36-41.56h4.76l15.3,41.56h-4.46l-3.67-10Zm-1.27-3.49l-8.31-22.77-8.31,22.77h16.63Z"/>
          <path class="cls-14" d="m609.6,167.48v3.49h-11.69v38.61h-4.22v-38.61h-11.75v-3.49h27.65Z"/>
          <path class="cls-14" d="m620.5,167.48v42.11h-4.22v-42.11h4.22Z"/>
          <path class="cls-14" d="m638.39,207.27c-3.17-1.83-5.67-4.38-7.5-7.65-1.83-3.27-2.74-6.98-2.74-11.11s.91-7.84,2.74-11.11c1.83-3.27,4.33-5.82,7.5-7.65,3.17-1.83,6.71-2.74,10.6-2.74s7.49.91,10.66,2.74c3.17,1.83,5.66,4.38,7.47,7.65,1.81,3.27,2.71,6.98,2.71,11.11s-.9,7.84-2.71,11.11c-1.81,3.27-4.3,5.82-7.47,7.65-3.17,1.83-6.73,2.74-10.66,2.74s-7.43-.91-10.6-2.74Zm19.04-3.1c2.49-1.45,4.46-3.52,5.9-6.23s2.17-5.85,2.17-9.43-.72-6.71-2.17-9.4c-1.45-2.69-3.41-4.76-5.9-6.2-2.49-1.45-5.3-2.17-8.43-2.17s-5.94.72-8.43,2.17c-2.49,1.45-4.46,3.51-5.9,6.2-1.45,2.69-2.17,5.82-2.17,9.4s.72,6.72,2.17,9.43,3.41,4.79,5.9,6.23c2.49,1.45,5.3,2.17,8.43,2.17s5.94-.72,8.43-2.17Z"/>
          <path class="cls-14" d="m709.29,209.59h-4.22l-23.31-35.42v35.42h-4.22v-42.11h4.22l23.31,35.36v-35.36h4.22v42.11Z"/>
        </g>
        <path class="cls-14" d="m735,154.64c1.15.69,2.05,1.63,2.69,2.81.64,1.18.96,2.49.96,3.93s-.32,2.75-.96,3.93c-.64,1.18-1.53,2.12-2.69,2.81-1.15.69-2.45,1.04-3.89,1.04s-2.73-.35-3.89-1.04c-1.15-.69-2.05-1.63-2.69-2.81-.64-1.18-.96-2.49-.96-3.93s.32-2.75.96-3.93c.64-1.18,1.53-2.12,2.69-2.81,1.15-.69,2.45-1.04,3.89-1.04s2.73.35,3.89,1.04Zm-.41,12.82c1.02-.61,1.81-1.45,2.38-2.52.57-1.07.85-2.26.85-3.56s-.28-2.49-.85-3.56c-.57-1.07-1.36-1.91-2.38-2.52s-2.18-.92-3.48-.92-2.46.31-3.48.92-1.81,1.45-2.38,2.52c-.57,1.07-.85,2.26-.85,3.56s.28,2.49.85,3.56c.57,1.07,1.36,1.91,2.38,2.52s2.18.92,3.48.92,2.46-.31,3.48-.92Zm-2.87-5.6l2.81,3.83-.9.04-2.81-3.87h-1.63v3.87h-.81v-8.71h3.38c.84,0,1.5.21,1.97.63.47.42.71,1.01.71,1.77s-.24,1.36-.71,1.79c-.47.43-1.13.65-1.97.65h-.04Zm-2.52-.77h2.48c.6,0,1.07-.14,1.42-.41.35-.27.53-.69.53-1.26,0-1.09-.65-1.63-1.95-1.63h-2.48v3.3Z"/>
      </g>
    </g>
  </g>
</svg>